<svg width="336" height="206" viewBox="0 0 336 206" fill="none" xmlns="http://www.w3.org/2000/svg">
<g clip-path="url(#clip0_27_1871)">
<rect width="335" height="205" transform="translate(0.333344 0.248047)" fill="#F6FFF1"/>
<path d="M58.8427 113.721C50.2335 113.721 42.9764 106.811 42.9764 98.2956C42.9764 89.7803 50.2335 82.8701 58.8427 82.8701C63.618 82.8701 67.0239 84.6947 69.5741 87.1277L66.5447 90.0674C64.7133 88.3609 62.2315 87.0433 58.8427 87.0433C52.5612 87.0433 47.632 92.0611 47.632 98.2617C47.632 104.479 52.5612 109.48 58.8427 109.48C62.9333 109.48 65.261 107.858 66.733 106.405C67.9477 105.206 68.7696 103.465 69.0778 101.083H59.4247V96.8764H73.2197C73.3563 97.6365 73.4595 98.532 73.4595 99.5119C73.4595 102.671 72.5689 106.591 69.7625 109.362C67.0068 112.217 63.4981 113.721 58.8427 113.721Z" fill="#4285F4"/>
<path d="M85.6261 93.8174C80.0463 93.8174 75.53 98.0095 75.53 103.771C75.53 109.515 80.0806 113.718 85.6261 113.718C91.1716 113.718 95.7286 109.482 95.7286 103.771C95.7286 98.0095 91.2057 93.8174 85.6261 93.8174ZM85.6261 97.7519C88.6726 97.7519 91.2935 100.189 91.2935 103.771C91.2935 107.319 88.6726 109.783 85.6261 109.783C82.5795 109.783 79.9651 107.302 79.9651 103.771C79.9651 100.189 82.5795 97.7519 85.6261 97.7519Z" fill="#EA4335"/>
<path d="M108.257 93.8174C102.695 93.8174 98.1547 98.0095 98.1547 103.771C98.1547 109.515 102.712 113.718 108.257 113.718C113.82 113.718 118.373 109.482 118.373 103.771C118.373 98.0095 113.837 93.8174 108.257 93.8174ZM108.257 97.7519C111.304 97.7519 113.937 100.189 113.937 103.771C113.937 107.319 111.304 109.783 108.257 109.783C105.211 109.783 102.59 107.302 102.59 103.771C102.59 100.189 105.211 97.7519 108.257 97.7519Z" fill="#FBBC05"/>
<path d="M130.368 93.8496C125.336 93.8496 120.715 98.2297 120.715 103.822C120.715 109.398 125.336 113.719 130.368 113.719C132.747 113.719 134.665 112.656 135.657 111.457H135.792V112.876C135.792 116.677 133.723 118.705 130.42 118.705C127.698 118.705 126.038 116.798 125.336 115.176L121.485 116.747C122.598 119.383 125.525 122.627 130.42 122.627C135.606 122.627 139.989 119.619 139.989 112.287V94.4262H135.792V96.0481H135.657C134.681 94.8988 132.782 93.8496 130.368 93.8496ZM130.728 97.7524C133.757 97.7524 136.1 100.308 136.1 103.822C136.1 107.269 133.757 109.784 130.728 109.784C127.681 109.784 125.131 107.269 125.131 103.822C125.131 100.308 127.681 97.7524 130.728 97.7524Z" fill="#4285F4"/>
<path d="M148.529 84.8809V113.113H144.096V84.8809H148.529Z" fill="#34A853"/>
<path d="M161.433 93.7988C156.247 93.7988 151.934 97.8389 151.934 103.752C151.934 109.328 156.198 113.687 161.915 113.687C166.536 113.687 169.202 110.918 170.297 109.296L166.857 107.028C165.727 108.701 164.204 109.765 161.927 109.765C159.668 109.765 158.077 108.755 157.049 106.762L170.502 101.25L170.06 100.122C169.204 97.8918 166.654 93.7988 161.433 93.7988ZM161.555 97.651C163.318 97.651 164.791 98.5337 165.303 99.7671L156.279 103.467C156.194 99.632 159.313 97.6878 161.555 97.651Z" fill="#EA4335"/>
<path d="M189.741 101.143V113.105H186.112V85.2617H202.612V88.6409H189.741V97.8319H201.379V101.143H189.741Z" fill="#3A4546"/>
<path d="M209.022 85.2617V113.105H205.393V85.2617H209.022Z" fill="#3A4546"/>
<path d="M217.893 87.4247C217.893 88.1518 217.636 88.7596 217.141 89.2495C216.628 89.7559 216.01 89.9924 215.292 89.9924C214.608 89.9924 214.009 89.7559 213.512 89.2495C212.999 88.7591 212.76 88.1509 212.76 87.4247C212.76 86.7664 212.999 86.1745 213.512 85.6677C214.009 85.1773 214.608 84.9248 215.292 84.9248C216.011 84.9248 216.627 85.1785 217.141 85.6677C217.637 86.1741 217.893 86.7662 217.893 87.4247ZM217.141 94.0477V113.106H213.512V94.0477H217.141Z" fill="#3A4546"/>
<path d="M230.06 110.47C231.822 110.47 233.294 109.844 234.441 108.577C235.622 107.276 236.221 105.604 236.221 103.576C236.221 101.6 235.623 99.9607 234.441 98.6429C233.295 97.3419 231.822 96.683 230.06 96.683C228.314 96.683 226.859 97.3414 225.678 98.6429C224.479 99.9607 223.898 101.6 223.898 103.576C223.898 105.604 224.481 107.259 225.678 108.51C226.859 109.827 228.314 110.47 230.06 110.47ZM229.923 122.161C228.862 122.161 227.852 122.009 226.911 121.755C225.952 121.486 225.079 121.097 224.309 120.607C223.522 120.1 222.854 119.508 222.324 118.849C221.776 118.174 221.349 117.396 221.092 116.552L224.515 115.2C224.874 116.264 225.542 117.16 226.5 117.836C227.492 118.494 228.64 118.85 229.923 118.85C231.874 118.85 233.415 118.259 234.51 117.093C235.64 115.91 236.222 114.305 236.222 112.294V110.47H236.085C235.401 111.466 234.459 112.26 233.278 112.835C232.08 113.41 230.796 113.714 229.444 113.714C226.928 113.714 224.755 112.75 222.94 110.808C221.16 108.831 220.27 106.415 220.27 103.577C220.27 100.755 221.161 98.3391 222.94 96.3455C224.755 94.4194 226.928 93.4395 229.444 93.4395C230.796 93.4395 232.08 93.7435 233.278 94.3185C234.459 94.8592 235.401 95.6534 236.085 96.684H236.222V94.0482H239.713V112.295C239.713 115.353 238.807 117.735 237.043 119.459C235.263 121.25 232.884 122.161 229.923 122.161Z" fill="#3A4546"/>
<path d="M243.321 85.2617H246.949V94.0473L246.812 96.6831H246.949C247.479 95.7538 248.335 94.9766 249.482 94.3852C250.611 93.7599 251.827 93.4388 253.111 93.4388C255.421 93.4388 257.236 94.1315 258.519 95.4663C259.786 96.7841 260.436 98.6764 260.436 101.143V113.105H256.808V101.819C256.808 98.406 255.267 96.6827 252.221 96.6827C250.749 96.6827 249.499 97.308 248.455 98.5073C247.446 99.6904 246.949 101.092 246.949 102.698V113.105H243.321V85.2617Z" fill="#3A4546"/>
<path d="M270.695 113.443C269.086 113.443 267.768 112.97 266.724 112.024C265.715 111.045 265.184 109.693 265.15 107.969V97.2915H261.795V94.0475H265.15V88.168H268.778V94.0475H273.502V97.2915H268.778V106.82C268.778 108.087 269.018 108.949 269.531 109.389C270.028 109.845 270.592 110.064 271.242 110.064C271.5 110.064 271.79 110.052 272.063 109.99C272.321 109.905 272.611 109.821 272.886 109.721L273.981 112.897C273.057 113.251 271.962 113.443 270.695 113.443Z" fill="#3A4546"/>
<path d="M291.69 107.834C291.69 109.507 290.954 110.909 289.5 112.024C288.028 113.14 286.179 113.713 283.954 113.713C281.986 113.713 280.274 113.207 278.819 112.227C277.347 111.247 276.303 109.929 275.67 108.307L278.888 106.888C279.332 108.071 280.017 108.966 280.942 109.591C281.848 110.234 282.859 110.538 283.954 110.538C285.083 110.538 286.042 110.301 286.829 109.795C287.599 109.304 287.993 108.713 287.993 108.037C287.993 106.838 287.052 105.926 285.186 105.334L281.832 104.524C278.083 103.629 276.218 101.854 276.218 99.1849C276.218 97.4446 276.919 96.0424 278.34 94.9949C279.795 93.9638 281.643 93.4404 283.885 93.4404C285.563 93.4404 287.103 93.8622 288.473 94.6566C289.876 95.4339 290.869 96.4984 291.416 97.8331L288.13 99.1847C287.754 98.3902 287.155 97.7485 286.35 97.2924C285.528 96.8535 284.604 96.6168 283.612 96.6168C282.653 96.6168 281.78 96.8707 281.01 97.3599C280.274 97.816 279.915 98.3566 279.915 98.9817C279.915 100.113 280.959 100.908 283.064 101.347L285.939 102.09C289.756 103.037 291.69 104.962 291.69 107.834Z" fill="#3A4546"/>
</g>
<defs>
<clipPath id="clip0_27_1871">
<rect width="335" height="205" fill="white" transform="translate(0.333344 0.248047)"/>
</clipPath>
</defs>
</svg>
