<svg width="196" height="199" viewBox="0 0 196 199" fill="none" xmlns="http://www.w3.org/2000/svg">
<path id="Vector" d="M100.164 136.788C98.4957 134.592 96.6839 132.492 94.9913 130.296C91.2485 126 87.315 121.537 82.9047 117.837C82.3803 118.267 81.8319 118.696 81.3075 119.126C79.8771 120.319 78.4229 121.489 76.921 122.635C74.6086 124.425 72.3439 126.286 69.9599 127.981C68.3627 129.198 66.6224 130.487 64.7152 131.132C63.9762 131.513 63.2134 131.8 62.4028 131.991C60.7817 132.349 59.113 131.895 57.5157 131.633C54.8219 131.251 52.1042 131.8 49.6011 132.802C43.5458 135.38 38.3012 138.722 32.6512 141.705C27.0966 145.214 14.4856 151.778 13.0076 158.222C19.0151 159.511 28.4793 152.565 33.724 149.534C35.7027 148.054 38.1581 147.672 40.5421 148.221C47.7178 149.796 51.1506 149.534 57.9687 146.741C60.4957 146.049 61.6876 149.653 59.1845 150.56C51.8181 153.639 47.3125 153.806 39.5647 152.112C38.325 151.778 37.2522 152.112 36.2271 152.661C35.0352 153.663 33.6763 154.642 33.2234 155.047C27.2397 159.773 21.0176 164.165 15.3677 169.321C12.6738 171.684 9.95611 174.023 7.54833 176.672C6.261 178.08 4.83064 179.465 4.06777 181.255C8.97869 182.114 14.4379 177.651 18.4906 175.264C23.8307 171.922 29.0992 168.437 34.2246 164.762C35.5358 163.879 36.8231 162.948 38.182 162.136C38.6111 161.826 39.1832 161.731 39.7077 161.85C40.7566 162.041 41.4957 163.187 41.2573 164.213C40.8043 165.764 38.9448 166.289 37.7767 167.268C32.9373 170.705 27.9549 173.903 23.2108 177.484C19.2296 180.562 11.5295 184.906 10.123 189.871C10.8858 190.277 11.8394 189.967 12.6023 189.799C19.8256 187.58 25.9285 182.925 32.2936 179.011C37.2522 175.98 41.448 172.185 46.3827 169.249C48.2422 168.605 49.8633 171.039 48.5044 172.495C47.6701 173.33 46.6926 174.023 45.7868 174.763C40.9235 178.486 35.8934 182.018 30.9348 185.599C28.5032 187.723 21.995 191.47 22.3764 194.907C26.7391 195.981 33.128 190.993 36.8231 188.821C40.4706 186.434 44.1657 184.095 47.7416 181.613C50.507 179.751 53.2008 177.794 55.7516 175.646C60.6625 172.137 65.3351 168.294 69.7215 164.165C79.7102 154.928 89.0076 144.689 100.164 136.86V136.788ZM209.778 82.4884C211.852 80.9847 214.284 83.9443 212.21 85.6628C208.491 88.6463 204.724 91.5344 200.981 94.5179C189.395 103.659 177.809 112.849 165.747 121.37C156.139 128.793 145.936 135.499 135.637 141.872C128.486 146.67 121.739 152.064 114.373 156.527C112.99 157.315 111.607 158.15 110.249 159.01C109.724 159.344 109.176 159.63 108.58 159.797C107.507 160.656 106.124 161.158 104.336 161.062C98.9486 160.704 91.916 155.62 89.4606 150.727C83.0478 156.623 76.9925 162.9 70.5797 168.772C61.4016 176.767 51.6274 184.047 41.3526 190.563C35.8934 193.881 28.3601 200.134 21.7089 198.822C18.2522 198.106 17.7039 194.454 18.9197 191.613C16.2974 192.759 13.5559 194.072 10.6713 194.024C5.30743 193.642 5.18823 188.558 8.0728 185.074C4.87831 185.957 -0.866975 185.265 0.110441 180.73C0.96866 177.197 3.99625 174.739 6.35636 172.161C9.97995 168.581 13.8658 165.263 17.7993 162.017C16.0113 162.375 14.1757 162.47 12.2924 162.136C5.1644 160.036 11.3388 151.563 14.9147 148.842C23.9737 141.347 34.5822 136.048 44.9047 130.511C48.5998 128.697 52.6287 127.217 56.8244 127.528C58.6839 127.528 60.6149 128.554 62.4267 127.814C63.571 127.217 64.6437 126.501 65.6927 125.761C65.6688 125.737 65.645 125.69 65.6211 125.666C63.3087 123.064 60.9486 120.2 60.4957 116.62C60.3526 115.021 60.591 113.469 61.1632 112.085C61.1632 112.037 61.1632 112.013 61.1632 111.989C61.9976 108.552 65.1444 106.5 67.719 104.399C71.1281 101.607 74.6325 98.9096 78.1368 96.2603C81.7843 93.6109 85.1695 90.6274 88.8884 88.0496C96.1356 82.727 103.144 77.0703 110.606 72.0341C115.541 68.5732 120.213 64.7543 125.172 61.3173C130.25 57.8565 135.304 54.4194 140.262 50.7915C150.108 43.273 160.478 36.5184 170.276 28.9044C177.714 23.5341 185.176 18.1876 192.495 12.6264C198.025 8.52105 203.723 4.63054 209.182 0.405882C211.208 -1.07394 213.735 1.83797 211.614 3.60421C208.681 5.89555 205.678 8.09142 202.626 10.2157C197.596 13.8675 192.542 17.4716 187.655 21.3144C181.505 25.8493 175.139 30.1456 169.084 34.8237C161.837 40.5043 154.018 45.3973 146.699 50.9824C139.356 56.6392 131.537 61.6276 124.028 67.0457C120.428 69.7905 116.828 72.5115 113.157 75.137C106.959 79.3139 101.07 83.9204 95.1343 88.4315C87.8871 93.7064 80.8545 99.2676 73.7265 104.686C72.5823 105.497 71.4856 106.38 70.389 107.24C81.7366 108.338 92.8219 121.37 99.5446 129.532C104.336 135.237 108.937 141.419 110.773 148.794C111.321 150.465 111.512 152.422 111.297 154.26C113.419 152.732 115.565 151.252 117.71 149.773C124.695 144.689 131.632 139.485 139.07 135.07C144.196 131.728 149.297 128.411 154.328 124.95C160.335 120.51 166.343 116.047 172.374 111.631C185.128 102.275 197.334 92.2027 209.826 82.4884H209.778Z" fill="#004449"/>
</svg>
