<svg width="336" height="206" viewBox="0 0 336 206" fill="none" xmlns="http://www.w3.org/2000/svg">
<g clip-path="url(#clip0_27_1014)">
<rect width="335" height="205" transform="translate(0.666626 0.248047)" fill="#F6FFF1"/>
<path d="M166.541 74.5575C163.636 74.1742 160.991 72.6025 158.852 70.6552C158.093 69.9345 157.479 69.0835 156.812 68.2785C156.406 67.8798 155.938 67.3508 155.632 66.9138C155.409 66.6302 155.141 66.3005 155.34 65.9325C155.724 65.2272 156.437 66.0475 156.874 66.2852C158.238 66.9522 159.473 67.8492 160.745 68.6695C162.133 69.4898 163.36 70.1798 164.832 70.7702C167.07 71.4218 169.57 71.7898 171.808 70.9465C173.886 70.0495 175.55 68.4702 177.313 67.0902C178.425 66.2162 179.598 65.4265 180.893 64.8438C181.652 64.5372 182.404 63.8625 183.262 64.0235C184.32 64.3532 184.52 65.8252 183.96 66.6685C183.431 67.4352 182.404 67.5808 181.645 68.0562C180.403 68.5928 179.329 69.4208 178.264 70.2335C174.706 73.3385 171.479 75.5695 166.541 74.5575Z" fill="#004449"/>
<path d="M145.067 124.49C144.998 124.429 144.998 124.337 145.029 124.253C145.144 124.03 145.412 123.931 145.588 123.762C146.8 122.742 147.934 122.045 149.215 121.247C151.124 120.028 152.887 118.848 154.804 117.698C157.464 116.149 159.741 114.033 162.394 112.477C165.997 110.338 169.301 110.223 173.15 111.856C176.868 113.696 180.111 116.379 183.906 118.089C185.685 118.909 187.464 119.722 189.357 120.258C189.948 120.45 190.546 120.634 191.144 120.818C191.535 120.933 191.918 121.048 192.163 121.393C192.593 122.014 192.378 122.911 191.895 123.44C191.328 124.084 190.569 124.214 189.802 123.869C187.172 123.087 184.604 122.167 182.143 120.964C180.395 120.136 178.708 119.17 177.091 118.119C175.044 116.816 173.119 115.467 170.927 114.547C169.501 114.056 167.975 113.765 166.465 113.979C162.823 114.723 160.232 117.659 157.142 119.499C155.287 120.611 153.424 121.723 151.476 122.673C150.089 123.394 148.571 123.708 147.076 124.092C146.539 124.26 146.002 124.437 145.443 124.544C145.32 124.567 145.182 124.59 145.082 124.498L145.067 124.49Z" fill="#004449"/>
<path d="M162.026 113.588C161.244 113.343 161.044 112.354 161.29 111.656C161.481 110.913 162.164 110.468 162.562 109.839C163.544 108.16 164.065 106.29 164.525 104.411C165.085 102.541 165.606 100.67 165.905 98.7379C166.495 96.2156 166.656 93.6166 166.741 91.0329C166.679 87.6443 166.304 84.2556 165.545 80.9513C165.253 79.4486 164.862 77.9536 164.379 76.5046C164.111 75.9373 163.889 75.3469 163.605 74.7949C163.252 74.2429 162.8 73.2616 163.582 72.8783C165.131 72.4796 166.679 75.4543 167.086 76.6656C168.68 80.8286 169.286 85.3213 169.462 89.7526C169.501 90.7033 169.462 91.6539 169.401 92.6046C169.271 94.4906 169.163 96.3843 168.749 98.2396C168.412 99.9953 168.121 101.766 167.592 103.484C166.825 105.991 166.365 108.613 165.077 110.928C164.709 111.679 164.195 112.346 163.636 112.967C163.252 113.435 162.631 113.772 162.026 113.596V113.588Z" fill="#004449"/>
<path d="M175.335 115.529C174.837 115.483 174.507 115.069 174.17 114.739C173.257 113.85 172.721 112.692 172.146 111.573C171.203 109.947 170.812 108.107 170.413 106.29C170.03 104.527 169.547 102.779 169.324 100.993C168.757 97.1288 168.228 93.2418 168.381 89.3242C168.381 87.3768 168.443 85.4372 168.742 83.5128C169.148 80.3695 169.892 77.2185 171.417 74.4125C171.885 73.5002 172.521 72.6798 173.303 72.0205C173.871 71.4608 174.055 72.0742 173.84 72.6108C172.46 77.1495 171.371 81.6345 171.134 86.3495C171.065 88.6112 171.072 90.4128 171.134 92.5748C171.341 95.5572 171.778 98.5165 172.238 101.468C172.621 103.231 173.043 104.987 173.449 106.75C173.656 107.969 174.246 109.05 174.814 110.139C175.941 109.641 176.669 110.959 177.029 111.826C177.213 112.37 177.213 112.991 177.045 113.535C177.075 114.471 176.355 115.628 175.32 115.521L175.335 115.529Z" fill="#004449"/>
<path d="M168.404 83.5127C168.366 83.459 168.335 83.3977 168.312 83.3364C167.454 83.2597 167.086 82.2554 167.262 81.5117C167.101 81.2664 167.009 80.9597 167.009 80.6607C166.258 80.3387 166.173 79.4187 166.273 78.7057C165.798 78.4604 165.614 77.9084 165.56 77.4024C165.422 77.3104 165.307 77.1954 165.2 77.0574C165.108 76.9347 165.031 76.7967 164.97 76.651C164.418 76.3597 164.249 75.8077 164.203 75.2557C164.126 74.7114 164.019 74.167 164.096 73.6227C164.195 72.6337 165.422 71.637 166.319 72.3654C166.863 72.3194 167.354 72.6874 167.561 73.178C167.875 73.017 168.282 73.017 168.596 73.178C168.78 73.27 168.918 73.408 169.018 73.569C169.156 73.5614 169.294 73.569 169.424 73.5997C169.685 73.0017 170.007 72.3577 170.658 72.12C171.249 71.8824 171.923 72.166 172.161 72.764C172.981 72.833 173.311 73.799 173.173 74.5044C173.089 74.9337 172.874 75.34 172.69 75.7387C172.13 77.0114 171.448 78.2227 170.796 79.4494C170.26 80.4154 170.175 81.55 169.669 82.5314C169.593 82.677 169.485 82.815 169.355 82.93C169.294 83.1217 169.225 83.3134 169.102 83.4744C168.926 83.712 168.581 83.7734 168.397 83.5127H168.404Z" fill="#004449"/>
<path d="M171.724 112.899C170.85 112.799 170.628 111.856 170.229 111.212C169.892 111.672 169.263 111.979 168.703 111.757C168.282 112.04 167.684 112.048 167.293 111.695C167.162 111.803 167.024 111.895 166.863 111.956C166.587 112.063 166.265 112.079 165.982 111.964C165.828 112.056 165.66 112.109 165.476 112.117C165.399 112.117 165.33 112.117 165.261 112.109C162.892 112.845 163.452 109.28 164.111 108.061C164.54 107.601 164.793 107.011 165.207 106.543C165.568 104.849 165.767 103.124 165.974 101.407C166.143 99.8657 165.698 97.5963 167.546 97.075C168.205 95.6873 170.007 95.9863 170.045 97.558C171.21 97.9183 171.057 99.3673 171.203 100.341C171.348 101.79 171.486 103.247 171.663 104.688C172.475 104.91 172.56 105.884 172.736 106.582C173.135 108.452 174.752 112.562 171.724 112.884V112.899Z" fill="#004449"/>
<path d="M176.178 70.9083C175.32 70.8317 174.89 69.904 175.258 69.1603C175.971 67.9797 177.275 67.2437 178.325 66.3773C180.847 64.4913 183.799 62.6743 186.697 61.555C188.667 60.7883 190.745 60.175 192.861 60.083C193.589 60.106 194.203 60.1597 194.916 60.1903C195.107 60.2057 195.314 60.29 195.376 60.497C195.46 60.9877 194.839 61.026 194.502 61.1257C193.283 61.4707 192.179 62.1223 190.99 62.567C188.345 63.6327 185.762 64.8517 183.354 66.385C181.675 67.4737 179.728 68.8613 178.34 70.1493C177.796 70.7167 176.976 71.0387 176.186 70.916L176.178 70.9083Z" fill="#004449"/>
<path d="M166.143 71.9895C163.674 71.8132 161.535 70.4332 159.626 68.9612C159.304 68.7235 158.99 68.4782 158.691 68.2099C157.978 67.6502 157.318 67.2669 156.605 66.7455C155.823 66.1935 156.352 65.3579 157.188 65.8332C157.847 66.2932 158.491 66.7225 159.143 67.1749C159.703 67.6272 160.255 68.0949 160.845 68.5089C162.064 69.4212 163.406 70.2108 164.786 70.8472C164.77 70.8472 164.763 70.8395 164.747 70.8318C165.414 71.0542 166.074 71.3148 166.718 71.5908C166.81 71.6292 166.963 71.7058 166.925 71.8362C166.894 71.9282 166.764 71.9282 166.687 71.9435C166.511 71.9818 166.334 71.9819 166.15 71.9819L166.143 71.9895Z" fill="#004449"/>
<path d="M144.193 125.848C143.894 125.541 144.852 125.158 145.036 124.997C145.903 124.414 146.823 124.031 147.758 123.64C149.866 122.528 151.952 121.355 153.96 120.067C154.382 119.791 154.942 119.239 155.455 119.615C155.547 119.699 155.532 119.853 155.517 119.96C155.417 120.458 154.934 120.704 154.551 120.972C153.117 121.923 151.714 122.705 150.227 123.533C148.655 124.483 146.968 125.281 145.159 125.656C144.921 125.71 144.684 125.756 144.454 125.848C144.369 125.879 144.277 125.894 144.201 125.84L144.193 125.848Z" fill="#004449"/>
<path d="M145.174 125.349C144.661 124.904 148.647 123.31 149.061 123.11C151.185 122.183 153.109 120.895 155.003 119.561C156.72 118.265 158.583 117.184 160.239 115.819C160.6 115.612 161.029 115.474 161.451 115.543C161.481 116.433 160.561 116.916 159.963 117.414C159.419 117.836 158.852 118.242 158.269 118.625C156.513 119.737 154.934 120.994 153.201 122.106C151.17 123.31 149.199 124.483 146.884 124.966C146.57 125.065 146.248 125.15 145.918 125.226C145.68 125.303 145.435 125.433 145.182 125.349H145.174Z" fill="#004449"/>
<path d="M191.972 125.189C191.818 125.15 191.665 125.104 191.512 125.058C191.351 125.012 191.19 124.966 191.029 124.905C191.059 124.913 191.09 124.928 191.121 124.936C190.185 124.629 189.258 124.261 188.376 123.824C188.376 123.824 188.384 123.824 188.391 123.832C187.425 123.425 186.513 122.935 185.593 122.49C183.814 121.685 182.059 120.834 180.326 119.922C179.506 119.515 178.693 119.078 177.942 118.557C177.275 118.074 174.936 116.303 177.374 117.254C179.092 118.02 180.694 118.925 182.365 119.753C183.96 120.581 185.624 121.271 187.211 122.076C187.195 122.076 187.188 122.061 187.172 122.061C187.157 122.061 187.149 122.045 187.134 122.045C188.368 122.659 189.618 123.249 190.914 123.724C190.914 123.724 190.914 123.724 190.906 123.724C190.891 123.724 190.875 123.717 190.86 123.709C191.174 123.816 191.473 123.924 191.795 124.008C192.133 124.1 192.531 124.177 192.723 124.499C193.053 125.012 192.393 125.327 191.956 125.181L191.972 125.189Z" fill="#004449"/>
<path d="M153.094 139.571C153.125 141.978 153.002 144.385 153.002 146.8C152.964 148.633 152.849 150.457 152.734 152.282C152.734 153.67 152.657 155.065 152.557 156.453C152.419 158.293 151.208 159.849 149.79 160.945C147.022 162.946 143.702 163.928 140.421 164.702C132.164 166.695 123.593 167.148 115.121 166.987C110.03 166.81 104.924 166.55 99.9026 165.63C97.6256 165.239 95.2336 164.932 93.1789 163.843C91.0399 162.724 91.0859 161.06 91.2623 159.105C91.2469 158.914 91.2393 158.722 91.2316 158.523C91.1243 156.606 91.0553 154.306 91.0246 152.497C91.0629 148.357 90.5723 142.116 92.7343 138.528C93.0486 137.976 94.1909 136.795 94.8503 137.156C95.5019 137.631 94.9269 138.444 94.6969 138.996C94.5513 139.433 94.4669 139.877 94.3596 140.322C94.3289 140.468 94.3059 140.613 94.2753 140.759C94.8119 140.981 95.3793 141.311 95.7473 141.38C96.8589 141.687 97.9169 142.162 99.0516 142.4C100.025 142.568 101.007 142.599 101.98 142.752C103.598 143.059 105.231 143.366 106.895 143.258C111.15 143.021 115.412 142.913 119.652 142.538C122.381 142.239 125.103 141.932 127.848 141.794C131.535 141.472 135.231 141.181 138.888 140.644C142.361 140.015 145.742 138.98 149.169 138.183C149.437 138.114 149.705 138.053 149.958 137.961C150.135 137.899 150.303 137.861 150.464 137.846C150.464 137.225 150.418 136.604 150.288 135.99C150.173 135.354 149.935 134.856 149.813 134.242C149.621 133.614 150.112 132.694 150.855 132.993C151.645 133.43 152.128 134.304 152.473 135.109C153.071 136.519 153.094 138.076 153.094 139.586V139.571Z" fill="#B7E8FF"/>
<path d="M99.2433 141.74C97.733 141.533 95.9697 141.288 94.9347 140.054C93.892 138.49 94.8043 136.795 96.4373 136.159C98.86 134.886 101.612 134.564 104.257 134.043C106.703 133.683 109.126 133.138 111.571 132.77C116.716 132.004 121.73 130.432 126.951 130.286C131.535 130.24 136.135 130.041 140.712 130.478C143.518 130.746 146.455 130.861 149.023 132.119C150.48 132.855 152.726 134.925 151.377 136.596C150.618 139.923 142.874 139.755 140.137 139.862C137.83 140.054 135.522 140.253 133.207 140.399C127.533 140.652 121.676 141.434 116.079 141.372C112.721 141.457 109.371 141.886 106.013 141.771C103.759 141.687 101.49 141.947 99.2433 141.74ZM103.107 139.095C106.956 139.118 110.751 139.088 114.569 138.712C116.371 138.666 118.172 138.75 119.974 138.62C123.225 138.513 126.452 138.076 129.703 137.938C133.421 137.784 137.117 137.347 140.835 137.148C140.689 136.987 140.574 136.795 140.521 136.565C140.467 136.351 140.475 136.136 140.528 135.952C139.539 135.538 139.21 134.281 140.199 133.652C140.13 133.499 140.091 133.33 140.091 133.131C135.254 132.747 130.385 132.832 125.54 133.077C121.714 133.361 118.019 134.411 114.262 135.109C111.395 135.561 108.535 136.082 105.676 136.611C103.046 137.11 100.232 137.324 97.8787 138.689C97.8787 138.689 97.8787 138.704 97.8787 138.712C99.55 139.341 101.367 139.111 103.115 139.095H103.107Z" fill="#004449"/>
<path d="M101.321 140.798C100.876 140.782 100.393 140.568 100.102 140.215C99.872 140.184 99.6497 140.108 99.4503 140C98.722 140.062 98.446 140.085 97.802 140.138C96.123 140.399 94.5743 138.567 96.468 137.562C98.9827 136.589 101.589 135.845 104.257 135.446C105.668 135.27 107.968 134.68 108.551 136.466C108.758 136.635 108.919 136.857 108.995 137.118C109.026 137.21 109.034 137.309 109.041 137.409C110.552 137.869 110.391 139.74 108.834 139.97C106.327 140.154 103.836 140.637 101.329 140.805L101.321 140.798Z" fill="#004449"/>
<path d="M119.376 143.619C116.079 143.481 112.729 143.512 109.509 142.699C108.359 142.5 107.539 141.541 107.309 140.43C106.757 138.513 106.205 136.596 105.714 134.664C104.219 130.34 102.525 126.101 100.432 122.076C99.5883 120.312 98.7679 118.541 97.8403 116.824C96.9739 115.068 96.2073 113.267 95.3793 111.488C94.5206 109.686 93.8919 107.793 93.2173 105.922C91.3466 101.238 90.2426 96.2083 90.5493 91.1483C90.5263 90.0367 90.6259 88.9173 90.8636 87.8287C91.0553 86.7937 91.1549 85.7357 91.4309 84.7237C93.1866 78.4677 97.3803 73.354 101.405 68.409C107.6 61.1257 113.948 54.2487 120.48 47.3103C122.32 45.3017 124.206 43.3313 126.161 41.4223C126.828 40.809 127.51 40.0577 128.277 39.475C128.453 39.3753 128.645 39.291 128.829 39.2143C128.952 39.1683 129.082 39.1377 129.212 39.107C129.358 39.0763 129.504 39.0303 129.657 38.9997C129.741 38.9843 129.826 38.9767 129.918 38.9613C130.033 38.946 130.148 38.9307 130.263 38.9307C130.385 38.9307 130.516 38.9307 130.646 38.9537C130.761 38.9767 130.884 39.0073 130.999 39.038C131.137 39.0763 131.282 39.1223 131.42 39.1683C131.543 39.222 131.666 39.2833 131.788 39.3523C131.827 39.3753 131.873 39.406 131.911 39.4443C132.018 39.544 132.11 39.6513 132.202 39.7663C132.187 39.751 132.179 39.7357 132.164 39.7203C132.187 39.751 132.21 39.774 132.233 39.8047C132.348 39.9427 132.455 40.0883 132.563 40.2417C132.747 40.625 132.877 41.0467 132.961 41.4607C133.444 43.4693 132.931 45.5087 132.225 47.3947C131.436 49.6257 130.401 51.7647 129.243 53.827C130.991 53.022 132.9 52.539 134.794 52.2937C138.366 51.7877 142.085 52.0177 145.489 53.2673C147.513 53.9957 149.652 54.8237 151.093 56.4873C152.028 57.53 152.741 59.025 152.159 60.405C151.009 63.3413 147.206 63.5023 144.553 63.556C143.94 63.556 143.173 63.579 142.79 63.05C141.172 63.1497 139.555 63.1343 137.929 63.1113C135.292 63.0807 132.655 63.0577 130.063 63.5253C128.223 64.0773 126.031 64.3993 124.252 65.005C122.772 65.465 121.354 66.4387 119.836 66.753C119.453 67.0213 119.085 67.305 118.74 67.6193C117.038 69.191 116.156 71.3913 115.228 73.469C112.652 78.5213 112.307 84.1333 115.228 89.132C118.234 94.1997 121.921 98.8533 126.061 103.024C132.31 108.452 140.13 110.798 142.483 119.737C143.388 123.563 143.334 127.527 142.997 131.414C142.928 132.318 142.89 133.215 142.859 134.12C142.851 134.273 142.836 134.419 142.828 134.572C142.828 134.764 142.813 134.963 142.805 135.155C142.805 135.216 142.798 135.285 142.79 135.347C142.782 135.508 142.775 135.661 142.775 135.822C142.775 135.807 142.775 135.791 142.775 135.768C142.775 135.983 142.759 136.205 142.752 136.42C142.752 136.627 142.752 136.826 142.744 137.033C142.744 137.156 142.736 137.271 142.736 137.394C142.736 137.608 142.713 137.815 142.706 138.03C142.706 138.13 142.69 138.237 142.683 138.337C142.675 138.436 142.667 138.536 142.652 138.643C142.652 138.674 142.644 138.697 142.637 138.728C142.621 138.728 142.606 138.743 142.591 138.743C142.545 138.758 142.499 138.766 142.453 138.774C142.361 138.804 142.269 138.835 142.184 138.889C142.023 138.988 141.924 139.134 141.908 139.318C141.893 139.448 141.931 139.586 142.016 139.686C141.487 140.154 140.682 140.598 139.532 140.943C136.45 142.293 133.084 142.699 129.772 143.067C127.027 143.381 124.267 143.642 121.507 143.642C120.81 143.642 120.112 143.627 119.414 143.588L119.376 143.619Z" fill="#A4453B"/>
<path d="M142.66 138.72C142.66 138.72 142.652 138.72 142.644 138.728C142.644 138.728 142.652 138.728 142.66 138.72Z" fill="#A4453B"/>
<path d="M128.852 39.1991C128.852 39.1991 128.844 39.1991 128.837 39.1991C128.821 39.1991 128.814 39.2067 128.798 39.2144C128.814 39.2144 128.829 39.1991 128.852 39.1914V39.1991Z" fill="#A4453B"/>
<path d="M165.2 88.2424C165.2 89.1547 165.169 90.0671 165.131 90.9717C165 95.5717 164.479 100.218 163.061 104.611C162.417 106.382 161.903 108.214 161.037 109.893C160.615 110.698 160.132 111.48 159.641 112.254C159.189 112.967 158.668 113.611 158.123 114.248C156.966 115.651 155.854 117.092 154.543 118.365C151.147 121.692 146.715 123.793 142.1 124.789C139.716 125.418 137.347 126.384 134.855 126.407C132.816 126.338 131.206 125.587 129.45 125.004C127.763 124.429 126.008 124.084 124.313 123.517C122.466 122.919 120.741 122.045 119.077 121.04C115.412 119.07 112.767 117.889 110.368 114.248C109.317 112.53 108.436 110.698 107.891 108.758C106.956 107.332 106.458 105.653 105.86 104.066C105.001 101.713 104.28 99.1597 104.196 96.6604C103.905 92.9114 104.204 89.0551 104.901 85.3827C105.154 84.041 105.453 82.7071 105.867 81.4114C106.12 80.7061 106.243 79.8474 106.895 79.3951C107.408 78.2221 108.083 77.1487 108.765 76.0754C109.747 74.4807 110.743 72.8784 112.054 71.529C113.864 69.5817 115.796 67.6727 118.165 66.4231C120.097 65.4417 122.09 64.5294 124.145 63.8394C126.629 63.0421 129.174 62.4671 131.75 62.0761C134.012 61.6851 136.289 61.3861 138.589 61.4704C140.758 61.4244 142.92 61.5931 145.029 62.1297C147.321 62.6434 149.613 63.2797 151.653 64.4757C154.344 66.1164 156.958 67.9334 159.036 70.3254C160.071 71.4831 161.037 72.9014 161.757 74.2201C162.93 76.1291 163.781 78.2451 164.203 80.4531C164.632 83.0444 165.2 85.6281 165.2 88.2654V88.2424Z" fill="#0FFF80"/>
<path d="M157.372 90.7343C157.495 93.6477 157.211 96.5993 156.544 99.436C156.375 100.134 156.138 100.808 155.992 101.514C155.938 101.905 155.823 102.288 155.67 102.656C154.727 104.879 153.631 107.064 152.228 109.027C151.706 109.97 151.147 110.89 150.526 111.779C148.111 114.815 145.443 116.525 142.43 117.407C140.751 118.265 139.026 118.817 136.956 118.587C135.752 118.457 134.533 118.457 133.337 118.219C132.11 118.012 130.907 117.706 129.68 117.499C128.821 117.33 127.963 117.154 127.127 116.916C126.322 116.671 125.563 116.303 124.789 115.965C124.068 115.651 123.324 115.375 122.642 114.999C121.661 114.417 120.595 113.489 120.012 112.408C116.723 109.502 114.055 105.807 112.76 101.629C111.748 97.366 110.728 92.697 111.817 88.3653C112.461 86.165 113.526 84.1486 114.876 82.3163C115.021 81.91 115.182 81.5036 115.366 81.1126C116.003 79.909 116.877 78.851 117.705 77.7776C118.862 76.1293 120.212 74.5883 121.837 73.4C121.96 73.3003 122.09 73.2007 122.22 73.101C126.307 70.5786 131.098 69.2216 135.89 69.0146C139.079 69.0223 142.338 69.5053 145.366 70.5863C147.275 71.192 149.092 72.089 150.51 73.3003C150.825 73.5916 151.124 73.8983 151.4 74.2203C153.753 76.574 155.356 79.6943 156.467 82.7993C157.027 84.7007 157.18 86.694 157.18 88.6797C157.272 89.3696 157.341 90.0596 157.395 90.7496L157.372 90.7343Z" fill="#D5FFBF"/>
<path d="M112.461 117.223C111.088 116.763 110.214 115.391 109.241 114.402C107.6 112.439 106.35 110.231 105.338 107.916C105.262 107.686 105.17 107.464 105.07 107.241C104.97 107.004 104.863 106.758 104.771 106.521C104.664 106.229 104.549 105.946 104.449 105.654C104.395 105.501 104.342 105.355 104.288 105.21C104.242 105.079 104.204 104.949 104.165 104.811C104.081 104.52 104.004 104.236 103.912 103.945C103.912 103.929 103.905 103.914 103.897 103.906C103.897 103.906 103.897 103.891 103.897 103.883C103.897 103.883 103.897 103.899 103.897 103.906C103.828 103.715 103.759 103.523 103.69 103.331C103.606 103.078 103.544 102.818 103.483 102.557C103.483 102.58 103.491 102.603 103.498 102.626C103.452 102.427 103.406 102.227 103.345 102.036C103.33 101.982 103.307 101.928 103.291 101.867C103.238 101.668 103.184 101.468 103.13 101.269C103.13 101.254 103.13 101.238 103.115 101.231C103.084 101.108 103.061 100.978 103.038 100.855C102.977 100.541 102.916 100.226 102.854 99.9196C102.854 99.9043 102.854 99.8889 102.847 99.8736C102.808 99.6973 102.778 99.5133 102.739 99.3369C102.716 99.2296 102.693 99.1299 102.67 99.0226C102.64 98.8156 102.609 98.6163 102.586 98.4093C102.586 98.3709 102.586 98.3326 102.578 98.2943C102.578 98.2636 102.563 98.2253 102.555 98.1946C101.919 93.2496 102.272 88.1743 103.314 83.2829C104.794 77.5483 107.93 71.5989 112.629 67.7579C114.523 66.2706 116.516 64.8753 118.671 63.7789C119.867 62.9663 121.231 63.3189 121.201 64.8983C121.178 65.7876 120.549 66.4623 119.706 66.7153C118.694 67.2136 117.72 67.7886 116.785 68.4096C115.098 69.6056 113.358 70.7786 111.97 72.3119C107.615 77.3796 105.239 83.7659 105.062 90.3363C104.495 95.8869 105.637 101.461 107.784 106.559C108.773 108.836 110.046 111.006 111.541 112.999C112.2 113.98 113.243 114.77 113.618 115.905C113.764 116.518 113.312 117.246 112.645 117.246C112.583 117.246 112.522 117.246 112.453 117.223H112.461Z" fill="#004449"/>
<path d="M157.157 117.001C156.521 116.617 156.268 115.866 156.375 115.168C156.613 114.938 156.851 114.708 157.065 114.455C157.203 114.294 157.341 114.133 157.479 113.972C157.679 113.727 157.87 113.474 158.062 113.221C158.062 113.229 158.047 113.236 158.047 113.244C158.346 112.838 158.629 112.424 158.913 112.01C159.166 111.642 159.419 111.266 159.664 110.89C159.956 110.453 160.247 110.016 160.515 109.564C160.784 109.112 161.037 108.652 161.282 108.184C161.412 107.931 161.543 107.678 161.658 107.417C161.757 107.195 161.842 106.965 161.934 106.743C162.171 106.168 162.34 105.577 162.532 104.987V104.995C162.716 104.412 162.854 103.822 163.007 103.231C163.007 103.254 162.992 103.277 162.992 103.293C163.076 102.994 163.153 102.695 163.222 102.396C163.222 102.419 163.214 102.442 163.206 102.457C163.283 102.15 163.36 101.836 163.444 101.537C163.559 101.154 163.697 100.77 163.797 100.379C163.858 100.142 163.904 99.8964 163.965 99.6587C164.011 99.4517 164.05 99.2524 164.08 99.0454C164.103 98.8921 164.119 98.7387 164.134 98.5854C164.379 97.2897 164.594 95.9941 164.855 94.6984C165.108 92.5671 165.1 90.4127 165.008 88.2661C164.962 86.8324 164.885 85.3911 164.625 83.9804C164.433 82.5007 164.027 81.0747 163.582 79.6564C163.03 77.6707 162.332 75.7157 161.221 73.9601C160.423 72.7181 159.626 71.4454 158.522 70.4487C157.387 69.5134 156.13 68.7314 154.926 67.8804C152.718 66.4621 150.257 65.4194 147.781 64.5377C145.619 63.8707 143.38 63.5104 141.142 63.1424C140.222 63.0044 139.286 62.9354 138.351 62.9431C137.186 63.0121 136.02 63.0427 134.863 63.0427C132.049 63.1731 129.251 63.6484 126.529 64.3614C125.049 64.6987 123.577 65.1051 122.19 65.7414C121.155 66.1631 120.112 66.5081 119.161 67.0677C118.28 67.4357 117.421 68.0491 116.639 68.5474C115.581 69.2144 114.377 69.6667 113.45 70.5177C113.105 70.8321 112.79 71.1771 112.438 71.4837C111.993 71.8824 111.426 72.1277 110.973 72.5034C110.713 72.7257 110.444 72.9557 110.222 73.2087C109.961 73.5231 109.762 73.9064 109.402 74.1287C109.195 74.2361 108.934 74.0981 108.857 73.8911C108.919 74.0521 108.834 73.8374 108.834 73.8221C108.811 73.7531 108.804 73.6687 108.811 73.5921C108.957 72.9481 109.287 72.3424 109.632 71.7674C110.153 70.8014 110.973 70.1267 111.541 69.2144C112.307 68.1257 113.289 67.1981 114.462 66.5387C115.32 66.0251 116.041 65.3197 116.9 64.8061C117.521 64.4457 118.149 64.1007 118.778 63.7481C119.698 63.2727 120.672 62.9277 121.607 62.4984C122.834 61.9694 124.122 61.5784 125.425 61.2717C127.817 60.6277 130.247 60.1677 132.708 59.9071C133.728 59.7997 134.748 59.7997 135.775 59.7844C137.178 59.7461 138.581 59.6157 139.984 59.7767C142.376 60.0604 144.76 60.4974 147.099 61.0724C148.586 61.4711 150.012 62.0307 151.407 62.6594C153.47 63.5257 155.448 64.5761 157.234 65.9024C158.606 66.8531 160.055 67.7501 161.113 69.0534C163.291 71.7137 165.023 74.7574 165.92 78.0694C167.04 81.4121 167.714 84.9004 167.76 88.4347C167.868 91.0491 167.898 93.6941 167.461 96.2931C167.308 97.1747 167.101 98.0487 166.948 98.9304C166.794 99.7737 166.672 100.625 166.472 101.468C166.012 103.193 165.407 104.88 164.855 106.582C163.804 109.679 162.125 112.531 160.14 115.153C159.741 115.674 159.296 116.173 158.859 116.663C158.599 116.985 158.215 117.162 157.824 117.162C157.602 117.162 157.38 117.108 157.173 116.985L157.157 117.001Z" fill="#004449"/>
<path d="M130.715 126.891C129.044 126.638 127.449 126.071 125.87 125.526C124.413 125.005 122.956 124.468 121.553 123.832C117.781 122.084 114.285 119.746 111.487 116.71C110.145 115.33 108.781 113.942 107.753 112.317C106.366 110.247 105.354 107.962 104.587 105.608C104.181 104.527 103.797 103.439 103.437 102.342C103.414 102.235 103.383 102.135 103.353 102.028C103.337 101.974 103.314 101.921 103.299 101.859C103.245 101.66 103.192 101.461 103.138 101.261C103.138 101.246 103.13 101.231 103.123 101.223C103.092 101.1 103.069 100.97 103.046 100.847C102.985 100.518 102.923 100.196 102.854 99.866C102.816 99.6897 102.785 99.5057 102.747 99.3294C102.709 99.1454 102.663 98.9614 102.64 98.7697C102.624 98.6547 102.609 98.5397 102.594 98.417C102.594 98.371 102.594 98.3327 102.594 98.2867C102.578 98.187 102.555 98.095 102.532 97.9954C102.594 97.8804 102.67 97.7654 102.785 97.6657C103.284 97.221 104.004 97.3437 104.526 97.6657C105.338 98.1257 105.438 99.0764 105.645 99.8814C106.105 101.491 106.619 102.925 107.178 104.474C108.114 107.31 109.279 110.116 111.203 112.455C112.384 113.85 113.718 115.123 115.006 116.426C118.157 119.278 122.052 121.241 126.092 122.621C127.587 123.15 129.09 123.686 130.669 123.932C133.567 124.261 136.519 124.369 139.432 124.062C142.238 123.709 144.929 122.789 147.444 121.532C147.52 121.501 147.589 121.471 147.666 121.44C147.773 121.394 147.888 121.356 147.996 121.302C148.134 121.233 148.264 121.156 148.394 121.08L148.433 121.057C148.433 121.057 148.394 121.08 148.379 121.087C148.402 121.072 148.425 121.057 148.456 121.041C148.456 121.041 148.456 121.041 148.463 121.041C148.463 121.041 148.463 121.041 148.471 121.041C148.463 121.041 148.456 121.049 148.448 121.057C148.601 120.965 148.762 120.873 148.923 120.781C149.161 120.643 149.406 120.497 149.644 120.359C149.882 120.221 150.112 120.083 150.334 119.93C150.334 119.93 150.326 119.93 150.319 119.937C150.319 119.937 150.334 119.93 150.342 119.922C150.342 119.922 150.342 119.922 150.349 119.922C150.349 119.922 150.365 119.914 150.372 119.907C150.38 119.907 150.395 119.891 150.403 119.884C150.403 119.884 150.418 119.876 150.426 119.868C150.418 119.868 150.411 119.884 150.403 119.884C150.48 119.83 150.549 119.776 150.625 119.723C151.193 119.355 151.745 118.979 152.289 118.58C153.316 117.791 154.351 117.016 155.31 116.15C155.494 115.989 155.67 115.836 155.846 115.667C155.831 115.682 155.808 115.698 155.793 115.721C155.938 115.59 156.076 115.46 156.214 115.322C156.498 115.054 156.774 114.778 157.035 114.486C157.173 114.325 157.311 114.164 157.449 114.003C157.648 113.758 157.84 113.505 158.024 113.26C158.323 112.861 158.599 112.447 158.882 112.041C159.135 111.673 159.388 111.297 159.634 110.921C159.925 110.484 160.216 110.047 160.485 109.595C160.753 109.143 161.006 108.683 161.251 108.215C161.382 107.962 161.512 107.709 161.627 107.448C161.727 107.226 161.811 106.996 161.903 106.774C162.141 106.206 162.309 105.616 162.501 105.033C162.685 104.451 162.823 103.86 162.976 103.27C162.976 103.285 162.969 103.301 162.961 103.316C163.038 103.032 163.114 102.756 163.183 102.473C163.183 102.488 163.183 102.496 163.176 102.511C163.252 102.204 163.329 101.89 163.413 101.591C163.528 101.208 163.666 100.824 163.766 100.433C163.827 100.196 163.873 99.9504 163.935 99.7127C163.981 99.5057 164.019 99.3064 164.05 99.0994C164.065 98.9767 164.08 98.854 164.096 98.7314C164.165 98.5704 164.234 98.417 164.303 98.256C164.586 97.5277 164.77 96.761 164.993 96.0174C165.207 95.2584 165.361 94.4764 165.644 93.7327C165.736 93.4874 165.721 93.219 165.79 92.966C165.844 92.7667 166.051 92.667 166.25 92.7054C166.848 92.8664 166.932 93.6177 166.971 94.1314C167.193 95.6417 167.216 97.175 166.971 98.6854C166.672 100.173 166.143 101.614 165.89 103.117C165.414 104.888 165.062 106.712 164.349 108.414C163.85 109.549 163.16 110.584 162.555 111.657C161.88 112.723 161.297 113.85 160.623 114.916C159.986 115.843 159.373 116.794 158.583 117.607C156.736 119.493 154.558 121.072 152.35 122.544C151.545 123.035 150.725 123.502 149.889 123.947C149.751 124.008 149.613 124.077 149.475 124.139C149.399 124.177 149.322 124.208 149.245 124.246C149.184 124.269 149.123 124.3 149.061 124.33C149.008 124.353 148.962 124.384 148.908 124.407C148.831 124.445 148.755 124.476 148.67 124.514C148.67 124.514 148.678 124.514 148.686 124.514C148.686 124.514 148.678 124.514 148.67 124.514C148.67 124.514 148.655 124.514 148.647 124.522C148.632 124.522 148.617 124.537 148.601 124.545H148.609C148.609 124.545 148.594 124.545 148.586 124.545C148.571 124.545 148.555 124.56 148.548 124.568C148.548 124.568 148.548 124.568 148.563 124.568C148.555 124.568 148.548 124.576 148.54 124.583C148.532 124.583 148.525 124.591 148.517 124.599C148.517 124.599 148.517 124.599 148.509 124.599C148.509 124.599 148.509 124.599 148.502 124.599C148.502 124.599 148.502 124.599 148.509 124.599C148.509 124.599 148.509 124.599 148.517 124.599C148.517 124.599 148.517 124.599 148.525 124.599C148.371 124.675 148.218 124.752 148.065 124.836C147.95 124.898 147.842 124.967 147.727 125.02C146.324 125.641 144.883 126.17 143.396 126.538C142.161 126.83 140.904 127.052 139.639 127.19C138.267 127.297 136.879 127.29 135.507 127.297C133.912 127.251 132.302 127.144 130.723 126.929L130.715 126.891ZM152.105 120.252C152.105 120.252 152.12 120.305 152.151 120.305C152.182 120.305 152.212 120.282 152.22 120.244C152.228 120.206 152.205 120.19 152.174 120.19C152.143 120.19 152.113 120.213 152.105 120.252Z" fill="#004449"/>
<path d="M148.655 124.491C148.655 124.491 148.632 124.499 148.617 124.507C148.632 124.507 148.64 124.491 148.655 124.491Z" fill="#004449"/>
<path d="M148.371 121.103C148.371 121.103 148.348 121.118 148.333 121.126C148.348 121.118 148.356 121.11 148.371 121.103Z" fill="#004449"/>
<path d="M150.396 119.876C150.396 119.876 150.388 119.876 150.38 119.884C150.38 119.884 150.396 119.876 150.396 119.868V119.876Z" fill="#004449"/>
<path d="M158.055 113.229C158.055 113.229 158.055 113.229 158.047 113.237C158.047 113.237 158.047 113.237 158.055 113.229Z" fill="#004449"/>
<path d="M147.996 124.606C147.175 124.338 146.738 123.387 146.846 122.559C146.876 122.183 147.06 121.823 147.336 121.578C147.436 121.532 147.543 121.493 147.643 121.455C147.75 121.409 147.865 121.371 147.973 121.317C148.111 121.248 148.241 121.171 148.371 121.095C148.371 121.095 148.379 121.095 148.387 121.087C148.41 121.079 148.425 121.064 148.448 121.049C148.448 121.049 148.448 121.049 148.456 121.049C148.456 121.049 148.456 121.049 148.463 121.049C148.463 121.049 148.471 121.049 148.479 121.041C148.632 120.949 148.793 120.857 148.946 120.765C149.184 120.627 149.429 120.481 149.667 120.343C149.912 120.198 150.158 120.052 150.388 119.883C150.395 119.876 150.411 119.868 150.418 119.86C150.518 119.791 150.618 119.715 150.717 119.646C150.97 119.462 151.223 119.285 151.476 119.101C151.676 118.956 151.875 118.81 152.074 118.664C152.166 118.603 152.258 118.542 152.35 118.48C152.35 118.48 152.35 118.48 152.358 118.48C152.366 118.48 152.381 118.465 152.389 118.457C152.389 118.457 152.396 118.457 152.404 118.45C152.404 118.45 152.396 118.45 152.389 118.457C152.55 118.342 152.703 118.22 152.856 118.097C152.91 118.059 152.956 118.02 153.01 117.982C153.224 117.821 153.431 117.645 153.646 117.476C154.374 116.962 155.034 116.395 155.685 115.766C157.142 114.509 158.384 112.999 159.419 111.396C160.416 109.909 161.044 108.222 161.803 106.612C162.371 105.363 162.8 104.059 163.26 102.764C164.303 99.7429 164.402 96.5305 164.724 93.3795C164.885 91.2329 164.816 89.0709 164.563 86.9319C164.563 86.9165 164.563 86.9012 164.563 86.8859C164.563 86.8015 164.54 86.7172 164.533 86.6405C164.525 86.5639 164.51 86.4949 164.502 86.4182C164.379 85.4675 164.218 84.5245 164.034 83.5892C163.536 80.4075 162.555 77.2949 161.075 74.4352C158.56 70.2415 155.164 67.4355 150.664 65.5495C148.885 64.7752 147.114 63.9242 145.197 63.5255C143.986 63.2879 142.782 63.0349 141.571 62.8202C139.662 62.4905 137.715 62.3985 135.783 62.4215C134.41 62.4369 133.053 62.6669 131.681 62.7589C130.431 62.8432 129.189 63.0119 127.978 63.3262C125.992 63.8245 124.037 64.5835 122.128 65.3272C120.649 66.0019 119.299 66.9219 117.827 67.5965C114.584 69.3752 111.809 72.0125 109.739 75.0485C108.489 77.0419 107.431 79.1732 106.588 81.3735C106.212 82.5542 105.89 83.7579 105.699 84.9845C105.346 86.6482 105.078 88.3272 104.978 90.0215C104.94 91.9765 105.116 93.8779 105.269 95.7639C105.438 98.1252 105.66 100.494 106.358 102.771C106.803 104.32 107.493 105.769 108.16 107.233C108.765 108.583 109.478 109.878 110.36 111.067C111.027 112.033 111.709 112.983 112.476 113.873C113.235 114.739 114.078 115.521 114.791 116.418C115.75 117.576 116.654 118.802 117.881 119.707C118.172 119.929 118.487 120.144 118.709 120.443C118.816 120.596 118.786 120.934 118.548 120.941C118.349 120.941 118.172 120.857 117.988 120.78C116.11 120.083 114.492 118.894 112.936 117.66C111.847 116.824 110.805 115.912 109.908 114.869C108.765 113.474 107.638 112.056 106.772 110.469C105.706 108.429 104.71 106.329 103.974 104.144C103.107 101.552 102.755 98.8305 102.578 96.1165C102.394 94.2459 102.302 92.3675 102.226 90.4815C102.233 88.3655 102.54 86.2495 102.985 84.1795C103.199 82.9299 103.452 81.6802 103.851 80.4689C104.104 79.5949 104.426 78.7439 104.832 77.9235C105.369 76.7122 105.944 75.5162 106.603 74.3662C107.868 72.0355 109.586 69.9809 111.495 68.1485C113.473 66.3085 115.696 64.8059 118.149 63.6712C119.522 62.8432 120.94 62.0689 122.466 61.5705C124.022 61.0185 125.555 60.4129 127.165 60.0295C128.768 59.6232 130.408 59.4622 132.057 59.3395C133.644 59.1555 135.231 59.0022 136.833 59.0635C139.923 59.0635 142.966 59.6769 145.964 60.3515C147.49 60.7042 148.923 61.3482 150.357 61.9692C153.186 63.1115 155.892 64.5912 158.231 66.5615C160.538 68.6929 162.555 71.1079 163.896 73.9522C164.632 75.6312 165.307 77.3485 165.821 79.1119C166.304 80.7679 166.557 82.4699 166.886 84.1565C167.645 88.2199 167.73 92.3905 167.208 96.4845C167.047 99.0605 166.672 101.637 165.867 104.09C164.985 106.827 163.827 109.472 162.547 112.048C161.144 114.67 159.227 116.993 156.981 118.94C155.624 120.251 153.93 121.118 152.473 122.314C151.798 122.789 151.116 123.249 150.411 123.648C150.334 123.694 150.25 123.732 150.173 123.778C150.165 123.778 150.158 123.786 150.15 123.793C150.104 123.816 150.066 123.832 150.02 123.855C149.828 123.947 149.636 124.031 149.445 124.123C149.368 124.161 149.299 124.192 149.222 124.23C149.153 124.253 149.092 124.284 149.031 124.322C148.985 124.345 148.931 124.368 148.885 124.391C148.808 124.422 148.732 124.46 148.655 124.491C148.647 124.491 148.64 124.499 148.632 124.499C148.632 124.499 148.601 124.514 148.586 124.522C148.586 124.522 148.586 124.522 148.594 124.522C148.594 124.522 148.578 124.522 148.571 124.529C148.555 124.529 148.54 124.545 148.532 124.552C148.532 124.552 148.54 124.552 148.548 124.552C148.54 124.552 148.532 124.56 148.525 124.56C148.517 124.56 148.509 124.568 148.494 124.575C148.494 124.575 148.486 124.575 148.479 124.575C148.41 124.606 148.348 124.637 148.279 124.675C148.18 124.675 148.08 124.66 147.973 124.621L147.996 124.606ZM152.105 120.251C152.105 120.251 152.12 120.305 152.151 120.305C152.182 120.305 152.212 120.282 152.22 120.244C152.228 120.205 152.205 120.19 152.174 120.19C152.143 120.19 152.113 120.213 152.105 120.251Z" fill="#004449"/>
<path d="M150.441 119.845C150.441 119.845 150.457 119.837 150.465 119.829C150.465 119.829 150.449 119.837 150.441 119.845Z" fill="#004449"/>
<path d="M148.655 124.491C148.655 124.491 148.632 124.507 148.617 124.507C148.632 124.507 148.64 124.491 148.655 124.491Z" fill="#004449"/>
<path d="M148.479 121.033C148.479 121.033 148.471 121.033 148.463 121.041C148.463 121.041 148.471 121.041 148.479 121.033Z" fill="#004449"/>
<path d="M147.045 123.464C146.746 123.165 147.206 122.85 147.459 122.712C148.049 122.344 148.594 121.923 149.169 121.539C150.38 120.849 151.361 119.86 152.45 119.002C153.339 118.289 154.229 117.583 155.095 116.847C155.869 116.127 156.628 115.383 157.326 114.593C158.43 113.298 159.243 111.803 160.163 110.377C161.167 108.79 162.102 107.157 162.739 105.386C163.383 103.53 163.827 101.606 164.303 99.6969C165.046 96.5152 165.054 93.1189 164.97 89.8989C164.924 88.9099 164.778 87.9286 164.602 86.9549C164.602 86.9242 164.602 86.8859 164.602 86.8552C164.602 86.7709 164.579 86.6866 164.571 86.6099C164.556 86.5256 164.548 86.4336 164.533 86.3492C164.502 86.1652 164.479 85.9736 164.448 85.7896C164.441 85.7052 164.425 85.6286 164.418 85.5442C164.41 85.4599 164.395 85.3832 164.379 85.2989C164.379 85.2682 164.372 85.2376 164.364 85.2146C164.364 85.1762 164.349 85.1379 164.341 85.0996C164.333 85.0306 164.326 84.9692 164.31 84.9002C164.303 84.8466 164.287 84.7852 164.28 84.7316C164.28 84.7162 164.28 84.7086 164.28 84.6932C164.318 84.0416 164.556 83.4436 165.184 83.0372C166.212 82.4162 167.086 83.3592 167.116 84.4019C167.339 85.5902 167.561 86.7786 167.691 87.9822C167.883 89.9449 167.868 91.9382 167.791 93.9086C167.684 96.2546 167.469 98.5929 166.825 100.855C166.419 102.48 166.035 104.113 165.499 105.708C164.678 108.107 163.452 110.338 162.064 112.454C161.228 113.758 160.446 115.099 159.442 116.28C158.269 117.606 156.981 118.856 155.517 119.86C154.114 120.826 152.596 121.647 151.009 122.283C150.227 122.597 149.399 122.766 148.601 123.05C148.187 123.18 147.789 123.341 147.382 123.487C147.321 123.51 147.26 123.525 147.206 123.525C147.16 123.525 147.114 123.517 147.068 123.487L147.045 123.464Z" fill="#004449"/>
<path d="M153.171 110.422C152.005 109.771 152.442 108.092 153.002 107.156C153.6 105.638 154.206 104.136 154.957 102.687C156.069 99.8039 156.682 96.7526 157.326 93.7319C158.338 87.4529 156.506 79.7479 151.844 75.2629C150.104 73.8139 148.226 72.3496 146.01 71.7593C143.02 71.0386 139.961 70.4099 136.871 70.5709C133.529 70.7473 130.125 71.0079 126.92 72.0276C125.233 72.7329 123.585 73.5839 122.052 74.5883C119.184 76.7579 117.191 79.8783 115.221 82.8376C114.163 84.7389 113.197 86.6863 112.208 88.6259C111.502 90.0596 110.759 88.9479 111.012 87.8133C111.579 83.8879 113.396 80.2003 115.757 77.0493C117.306 74.9179 118.954 72.7866 121.201 71.3529C123.34 70.0726 125.226 68.9839 127.533 68.3783C128.453 68.1636 129.381 67.9796 130.309 67.8263C130.5 67.8109 130.692 67.7879 130.876 67.7649C130.976 67.7496 131.083 67.7419 131.183 67.7189C131.252 67.7189 131.313 67.7189 131.382 67.7189C131.535 67.7189 131.696 67.7113 131.85 67.6959C131.972 67.6883 132.095 67.6729 132.218 67.6576C132.478 67.6269 132.731 67.6039 132.992 67.5733C133.222 67.5426 133.452 67.5119 133.682 67.4813C133.889 67.4506 134.096 67.4123 134.303 67.3739C134.334 67.3739 134.364 67.3663 134.403 67.3586C134.587 67.3509 134.771 67.3433 134.962 67.3279C135.2 67.3126 135.438 67.2743 135.675 67.2513C135.706 67.2513 135.737 67.2513 135.767 67.2436C137.086 67.1823 138.405 67.1746 139.716 67.2283C142.499 67.5733 145.32 67.9719 147.973 68.9073C150.012 69.8119 151.89 71.1613 153.546 72.6486C159.603 78.4829 161.604 88.9786 159.427 96.9366C158.706 100.111 157.955 103.315 156.406 106.206C155.67 107.509 155.348 110.453 153.531 110.453C153.416 110.453 153.301 110.445 153.171 110.415V110.422Z" fill="#004449"/>
<path d="M135.192 120.411C133.529 120.388 131.88 120.105 130.293 119.606C127.993 119.001 125.801 118.004 123.723 116.885C123.761 116.9 123.8 116.923 123.83 116.938C123.846 116.938 123.861 116.954 123.938 116.992C122.412 116.233 120.978 115.321 119.621 114.293C118.97 113.81 118.226 113.312 117.904 112.545C117.682 112.024 117.674 111.15 118.341 110.951C118.985 110.759 119.683 110.966 120.258 111.273C120.802 111.602 121.239 112.07 121.768 112.423C122.849 113.266 124.237 114.117 125.379 114.692C127.104 115.612 128.883 116.448 130.784 116.946C132.302 117.444 133.881 117.697 135.476 117.667C137.385 117.613 139.363 117.651 141.18 116.954C144.078 115.696 146.846 114.04 149.123 111.832C150.004 110.974 150.917 110.046 151.668 109.111C152.097 108.528 152.458 107.907 152.856 107.301C153.378 106.481 153.746 105.569 154.106 104.672C155.356 101.85 156.237 98.9141 156.705 95.8705C157.418 92.3898 157.41 88.8325 156.943 85.3211C156.644 84.0715 156.345 82.8065 155.762 81.6565C154.735 79.3335 153.309 77.2175 151.668 75.2855C150.388 73.8365 148.847 72.6558 147.436 71.3448C147.045 70.9615 146.409 70.7315 146.094 70.3175C145.657 69.1138 148.341 69.9955 148.785 70.2408C152.143 71.5978 154.773 74.2121 156.728 77.2021C157.272 77.9228 157.732 78.7048 158.116 79.5175C158.859 80.9588 159.572 82.4308 159.917 84.0255C160.377 85.5128 160.416 87.0845 160.531 88.6255C160.776 91.7918 160.331 94.9505 159.726 98.0555C159.227 100.501 158.514 102.901 157.525 105.185C157.073 106.243 156.766 107.102 156.253 108.083C155.708 109.026 155.118 109.946 154.497 110.843C153.071 112.538 151.515 114.14 149.759 115.505C147.697 117.076 145.32 118.456 142.951 119.445C140.498 120.419 137.807 120.404 135.2 120.411H135.192Z" fill="#004449"/>
<path d="M135.79 120.672C126.759 119.814 118.678 116.387 113.618 108.551C112.162 106.351 111.249 103.867 110.605 101.322C109.639 97.6802 109.034 93.7855 109.785 90.0518C110.107 87.2765 110.95 84.8155 112.254 82.3775C113.948 79.3875 115.527 76.2672 117.827 73.6835C119.936 71.6902 122.374 70.0802 125.103 69.0682C126.552 68.4472 128.131 68.4012 129.626 67.9258C129.68 67.9105 129.726 67.8952 129.78 67.8798C129.78 67.8798 129.795 67.8798 129.803 67.8798C129.803 67.8798 129.803 67.8798 129.81 67.8798H129.826C129.826 67.8798 129.826 67.8798 129.818 67.8798C129.956 67.8645 130.102 67.8415 130.24 67.8338C130.447 67.8108 130.654 67.7955 130.861 67.7725C130.968 67.7648 131.068 67.7495 131.167 67.7265C131.236 67.7265 131.298 67.7265 131.367 67.7265C131.52 67.7265 131.681 67.7188 131.834 67.7035C131.957 67.6958 132.08 67.6805 132.202 67.6652C132.463 67.6345 132.716 67.6115 132.977 67.5808C133.207 67.5502 133.437 67.5195 133.667 67.4888C133.713 67.4888 133.759 67.4735 133.805 67.4658C134.901 68.0485 135.177 70.1185 133.835 70.5938C132.915 70.9082 131.942 70.9158 130.991 71.0615C129.872 71.4218 128.645 71.6518 127.541 71.8282C124.467 72.7328 121.615 74.3965 119.43 76.7118C117.766 78.7128 116.455 81.1278 115.198 83.3742C111.318 89.7912 111.61 96.4382 113.994 103.315C115.872 108.298 119.928 112.293 124.689 114.577C126.989 115.658 129.366 116.287 131.819 116.816C134.165 117.261 136.557 117.636 138.926 117.069C141.763 116.341 144.454 115.091 146.984 113.642C149.184 112.185 151.039 110.315 153.033 108.59C153.707 108.03 154.137 107.248 154.558 106.504C154.919 106.052 155.455 106.504 155.425 106.972C155.409 107.486 155.195 107.969 155.064 108.459C153.447 112.998 149.468 116.433 145.159 118.342C142.43 119.584 139.562 120.703 136.534 120.703C136.289 120.703 136.043 120.703 135.79 120.68V120.672Z" fill="#004449"/>
<path d="M133.398 119.791C131.658 119.776 129.987 119.316 128.369 118.718C127.135 118.311 125.87 117.974 124.658 117.476C122.642 116.632 120.871 115.329 119.161 113.987C114.262 110.338 112.169 107.333 110.498 101.452C109.394 97.1897 108.88 92.536 110.168 88.258C110.559 87.1923 111.012 86.1573 111.441 85.107C111.725 84.3327 112.054 83.5813 112.399 82.83C112.637 82.094 113.465 81.5497 114.109 82.2167C114.914 83.1213 114.078 84.2637 113.994 85.2757C113.68 87.1693 112.698 88.8867 112.338 90.765C111.648 95.2577 112.568 99.8807 114.324 104.028C114.653 104.749 114.998 105.454 115.42 106.129C116.156 107.271 117.13 108.237 118.073 109.211C120.181 111.312 122.351 113.366 125.049 114.647C126.82 115.429 128.737 115.827 130.531 116.548C131.666 116.947 132.892 117.031 134.073 117.161C134.771 117.276 135.683 117.33 136.342 117.299C137.692 117.177 139.033 116.947 140.39 117.161C140.981 117.246 141.571 117.069 142.154 117.146C142.874 117.307 142.606 118.12 142 118.273C140.981 118.871 139.808 118.902 138.673 119.109C137.891 119.254 137.124 119.469 136.358 119.645C135.376 119.822 134.38 119.86 133.391 119.791H133.398Z" fill="#004449"/>
<path d="M110.789 143.957C109.31 143.957 107.838 143.926 106.358 143.849C103.644 143.78 100.922 143.796 98.2313 143.428C96.9663 143.19 95.6706 142.876 94.5513 142.224C92.6116 140.974 91.822 138.935 93.823 137.287C94.8963 136.351 96.284 135.945 97.6103 135.523C98.9213 135.04 100.278 134.718 101.658 134.511C102.709 134.458 104.564 133.699 105.239 134.78C105.591 135.401 105.009 136.098 104.388 136.229C103.613 136.428 102.862 136.735 102.088 136.942C100.738 137.348 99.3966 137.785 98.0626 138.237C97.365 138.506 96.4603 138.659 96.0156 139.311C96.9586 141.281 103.192 141.036 105.239 141.128C109.9 141.296 114.561 141.381 119.215 141.082C123.616 140.775 128.024 140.545 132.409 140.131C136.365 139.755 140.298 139.157 144.201 138.452C145.542 138.099 148.931 137.708 149.583 136.512C149.705 136.16 149.491 135.776 149.391 135.431C149.1 134.726 148.586 134.151 147.988 133.683C146.907 132.84 145.627 132.265 144.277 132.043C143.925 132.02 143.641 131.705 143.978 131.429C144.316 131.238 144.73 131.299 145.105 131.268C147.819 131.222 150.97 132.15 152.243 134.757C152.994 136.144 152.672 137.471 151.561 138.544C150.664 139.418 149.429 139.832 148.264 140.208C145.397 141.043 142.43 141.48 139.486 141.94C134.587 142.745 129.642 143.083 124.697 143.412C120.066 143.734 115.435 144.079 110.789 143.964V143.957Z" fill="#004449"/>
<path d="M122.021 64.5221C121.093 64.5374 120.679 63.4564 120.971 62.6821C121.132 62.1837 121.507 61.7544 121.829 61.3787C123.186 59.6997 124.421 57.9211 125.647 56.1501C127.334 53.4974 128.959 50.7834 130.255 47.9084C130.914 46.2907 131.704 44.6271 131.727 42.8484C131.811 41.3151 130.661 39.9657 129.097 39.9427C128.783 39.9734 128.369 40.2034 128.147 39.9121C127.97 39.5134 128.377 39.1377 128.706 38.9767C129.565 38.5551 130.615 38.6394 131.489 38.9691C137.216 41.4837 131.259 51.8567 129.174 55.4754C127.84 57.7831 126.284 59.9451 124.72 62.0994C124.398 62.5287 124.06 62.9504 123.708 63.3567C123.286 63.9087 122.78 64.5451 122.021 64.5297V64.5221Z" fill="#004449"/>
<path d="M147.068 98.0097C146.34 97.0054 146.217 95.6867 145.688 94.575C144.914 92.896 143.978 91.2707 142.775 89.8524C138.75 84.823 131.804 84.4167 126.767 88.181C124.045 90.2664 121.944 93.103 120.472 96.185C120.12 96.7907 119.637 98.531 118.701 97.9867C117.751 96.4227 120.181 91.8227 121.155 90.3814C124.95 84.0334 133.467 80.062 140.39 83.7343C142.897 85.1144 144.96 87.1997 146.455 89.6224C147.467 91.2324 148.325 92.9497 148.877 94.7744C149.368 95.863 149.744 97.358 148.54 98.1247C148.095 98.4084 147.444 98.4314 147.068 98.0097Z" fill="#004449"/>
<path d="M139.478 92.8501C134.817 90.9334 137.416 83.6194 141.671 86.1724C146.639 87.1308 144.231 95.1501 139.478 92.8501Z" fill="#004449"/>
<path d="M138.543 94.1381C136.71 92.8654 135.89 90.1744 136.404 88.0431C136.695 86.7628 137.324 85.2754 138.612 84.7541C139.041 84.5471 139.539 84.4474 140.007 84.6008C141.494 85.2218 141.165 86.7628 139.823 87.3454C139.133 87.8668 138.734 89.6914 139.033 90.4888C139.194 90.9411 139.34 91.4701 139.846 91.6388C140.697 91.9838 141.755 92.0758 142.552 91.5544C142.989 91.1021 142.721 90.4044 143.066 89.9061C143.771 88.8328 145.205 89.5841 145.542 90.5808C145.849 91.3474 145.619 92.2368 145.366 92.9881C144.308 95.6331 140.582 95.5258 138.543 94.1304V94.1381Z" fill="#004449"/>
<path d="M90.557 162.303C90.2733 161.835 90.3193 161.199 90.2503 160.693C90.1966 160.156 90.1736 159.619 90.12 159.098C90.005 157.963 89.9053 156.821 89.9206 155.679C89.8516 152.413 89.8593 149.637 90.143 146.494C90.4266 143.696 90.649 139.993 92.811 137.969C93.2403 137.585 93.593 137.394 94.076 137.21C94.513 137.01 94.9346 136.765 95.4023 136.65C96.1 136.474 96.7286 136.106 97.4186 135.914C97.986 135.707 98.6683 135.937 98.5686 136.642C98.492 137.102 98.0933 137.348 97.7176 137.547C97.1426 137.869 96.56 138.283 95.9773 138.559C95.3716 139.05 94.651 139.425 94.168 140.054C93.1253 141.641 93.0563 143.634 92.8416 145.467C92.6423 148.388 92.466 151.309 92.5886 154.237C92.627 156.093 92.5503 158.178 92.5196 159.987C92.466 160.723 92.604 161.498 92.3356 162.203C91.9753 163.054 91.017 163.123 90.557 162.295V162.303Z" fill="#004449"/>
<path d="M91.4463 145.336C91.1626 145.26 91.2163 144.899 91.1933 144.669C91.1933 144.056 91.1473 143.427 91.178 142.829C91.2393 140.859 91.6073 138.574 93.3246 137.355C94.7583 136.343 96.399 135.554 98.17 135.37C98.6606 135.27 99.1513 135.209 99.642 135.14C100.347 134.963 101.076 135.155 101.275 135.937C101.497 136.788 100.892 137.777 100.025 137.946C99.6113 138.03 99.1973 138.107 98.7833 138.176C97.641 138.398 96.4526 138.482 95.3716 138.958C94.7736 139.249 94.0913 139.387 93.57 139.824C92.7343 140.844 92.5196 142.193 92.19 143.443C92.0136 143.864 91.9983 145.413 91.4463 145.344V145.336Z" fill="#004449"/>
<path d="M151.538 158.186C151.216 157.818 151.277 157.304 151.231 156.852C151.185 156.284 151.17 156.031 151.131 155.533C150.786 151.5 151.208 147.452 151.308 143.42C151.208 141.012 151.645 138.475 150.595 136.213C150.288 135.331 149.759 134.511 148.985 133.974C148.463 133.53 147.911 133.146 147.283 132.855C147.014 132.717 146.662 132.694 146.47 132.441C146.347 132.257 146.47 131.973 146.669 131.897C147.014 131.805 147.398 131.897 147.75 131.95C148.701 132.165 149.598 132.548 150.487 132.924C150.855 133.085 151.177 133.315 151.484 133.576C152.726 134.764 153.5 136.428 153.761 138.122C154.183 141.932 153.93 145.766 153.807 149.584C153.761 151.324 153.799 153.302 153.654 154.996C153.585 155.855 153.585 156.767 153.393 157.557C153.178 158.316 152.128 158.891 151.538 158.178V158.186Z" fill="#004449"/>
<path d="M98.4536 156.652C94.8196 155.357 96.4833 148.311 100.501 149.476C104.388 150.527 102.371 157.979 98.4536 156.652ZM99.2893 153.862C99.7953 153.747 100.01 153.141 100.033 152.681C99.2126 152.413 98.975 153.21 99.205 153.862C99.2356 153.862 99.2586 153.862 99.2893 153.862Z" fill="#004449"/>
<path d="M135.752 93.3101C133.306 92.0758 134.84 87.1614 137.561 89.4538C139.156 90.7878 138.067 94.3681 135.752 93.3101Z" fill="white"/>
<path d="M184.397 139.011C184.366 141.419 184.489 143.826 184.489 146.241C184.527 148.073 184.642 149.898 184.757 151.723C184.757 153.118 184.834 154.506 184.934 155.893C185.072 157.733 186.283 159.289 187.701 160.386C190.469 162.387 193.789 163.368 197.07 164.142C205.327 166.136 213.898 166.588 222.37 166.427C227.461 166.251 232.567 165.99 237.588 165.07C239.865 164.679 242.257 164.373 244.312 163.284C246.451 162.165 246.405 160.501 246.229 158.546C246.244 158.354 246.252 158.163 246.259 157.963C246.367 156.047 246.436 153.747 246.466 151.937C246.428 147.797 246.919 141.557 244.757 137.969C244.442 137.417 243.3 136.236 242.641 136.596C241.989 137.071 242.564 137.884 242.794 138.436C242.94 138.873 243.024 139.318 243.131 139.762C243.162 139.908 243.185 140.054 243.216 140.2C242.679 140.422 242.112 140.752 241.744 140.821C240.632 141.127 239.574 141.603 238.439 141.84C237.466 142.009 236.484 142.039 235.511 142.193C233.893 142.499 232.252 142.806 230.596 142.699C226.341 142.461 222.079 142.354 217.839 141.978C215.11 141.679 212.388 141.372 209.643 141.234C205.956 140.912 202.26 140.629 198.603 140.084C195.13 139.456 191.749 138.421 188.322 137.624C188.054 137.555 187.786 137.493 187.533 137.401C187.356 137.34 187.188 137.302 187.027 137.286C187.027 136.665 187.073 136.044 187.203 135.431C187.318 134.795 187.556 134.296 187.678 133.683C187.87 133.054 187.379 132.134 186.636 132.433C185.846 132.87 185.363 133.744 185.018 134.549C184.42 135.96 184.397 137.516 184.397 139.027V139.011Z" fill="#B7E8FF"/>
<path d="M238.248 141.189C239.758 140.982 241.521 140.736 242.556 139.502C243.599 137.938 242.687 136.244 241.054 135.607C238.631 134.335 235.879 134.013 233.234 133.491C230.788 133.131 228.365 132.587 225.92 132.219C220.775 131.452 215.761 129.88 210.54 129.735C205.956 129.689 201.356 129.489 196.779 129.926C193.973 130.195 191.036 130.31 188.468 131.567C187.011 132.303 184.765 134.373 186.114 136.037C186.873 139.364 194.617 139.195 197.354 139.303C199.661 139.494 201.969 139.694 204.284 139.839C209.958 140.092 215.815 140.874 221.412 140.813C224.77 140.897 228.12 141.327 231.478 141.212C233.732 141.127 236.001 141.388 238.248 141.181V141.189ZM234.384 138.544C230.535 138.567 226.74 138.536 222.922 138.16C221.12 138.114 219.319 138.199 217.517 138.068C214.266 137.961 211.039 137.524 207.788 137.386C204.07 137.233 200.374 136.796 196.656 136.596C196.802 136.435 196.917 136.244 196.97 136.014C197.024 135.799 197.016 135.584 196.963 135.4C197.952 134.986 198.281 133.729 197.292 133.1C197.361 132.947 197.4 132.778 197.4 132.579C202.237 132.196 207.106 132.28 211.951 132.525C215.777 132.809 219.472 133.859 223.229 134.557C226.096 135.009 228.956 135.531 231.815 136.06C234.445 136.558 237.259 136.773 239.612 138.137C239.612 138.137 239.612 138.153 239.612 138.16C237.941 138.789 236.124 138.559 234.376 138.544H234.384Z" fill="#004449"/>
<path d="M236.17 140.246C236.615 140.231 237.098 140.016 237.389 139.663C237.619 139.633 237.841 139.556 238.041 139.449C238.769 139.51 239.045 139.533 239.689 139.587C241.368 139.847 242.917 138.015 241.023 137.011C238.508 136.037 235.902 135.293 233.234 134.895C231.823 134.718 229.523 134.128 228.94 135.914C228.733 136.083 228.572 136.305 228.496 136.566C228.465 136.658 228.457 136.758 228.45 136.857C226.939 137.317 227.1 139.188 228.657 139.418C231.164 139.602 233.655 140.085 236.162 140.254L236.17 140.246Z" fill="#004449"/>
<path d="M218.123 143.059C221.419 142.921 224.77 142.952 227.99 142.139C229.14 141.94 229.96 140.982 230.19 139.87C230.742 137.953 231.294 136.037 231.785 134.105C233.28 129.781 234.974 125.541 237.067 121.516C237.91 119.753 238.731 117.982 239.658 116.264C240.525 114.509 241.291 112.707 242.119 110.928C242.978 109.127 243.607 107.233 244.281 105.362C246.152 100.678 247.256 95.6488 246.949 90.5888C246.972 89.4771 246.873 88.3578 246.635 87.2691C246.443 86.2341 246.344 85.1761 246.068 84.1641C244.312 77.9081 240.118 72.7944 236.101 67.8494C229.906 60.5661 223.558 53.6891 217.026 46.7508C215.186 44.7421 213.3 42.7718 211.345 40.8628C210.678 40.2494 209.996 39.4981 209.229 38.9154C209.053 38.8158 208.861 38.7314 208.677 38.6548C208.555 38.6088 208.424 38.5781 208.294 38.5474C208.148 38.5168 208.003 38.4708 207.849 38.4401C207.765 38.4248 207.681 38.4171 207.589 38.4018C207.474 38.3864 207.359 38.3711 207.244 38.3711C207.121 38.3711 206.991 38.3711 206.86 38.3941C206.745 38.4171 206.623 38.4478 206.508 38.4784C206.37 38.5168 206.224 38.5628 206.086 38.6088C205.963 38.6624 205.841 38.7238 205.718 38.7928C205.68 38.8158 205.634 38.8464 205.595 38.8848C205.488 38.9844 205.396 39.0918 205.304 39.2068C205.319 39.1914 205.327 39.1761 205.342 39.1608C205.319 39.1914 205.296 39.2144 205.273 39.2451C205.158 39.3831 205.051 39.5288 204.944 39.6821C204.76 40.0654 204.629 40.4871 204.545 40.9011C204.062 42.9098 204.576 44.9491 205.281 46.8351C206.071 49.0661 207.106 51.2051 208.263 53.2674C206.515 52.4624 204.606 51.9794 202.713 51.7341C199.14 51.2281 195.422 51.4581 192.018 52.7078C189.994 53.4361 187.855 54.2641 186.413 55.9278C185.478 56.9704 184.765 58.4654 185.348 59.8454C186.498 62.7818 190.308 62.9428 192.953 62.9964C193.566 62.9964 194.333 63.0194 194.716 62.4904C196.334 62.5901 197.952 62.5748 199.577 62.5518C202.214 62.5211 204.852 62.4981 207.443 62.9658C209.283 63.5178 211.476 63.8398 213.254 64.4454C214.734 64.9054 216.152 65.8791 217.67 66.1934C218.054 66.4618 218.422 66.7454 218.767 67.0598C220.469 68.6314 221.35 70.8318 222.278 72.9094C224.854 77.9618 225.199 83.5738 222.278 88.5724C219.273 93.6401 215.585 98.2938 211.445 102.464C205.197 107.892 197.377 110.238 195.023 119.178C194.118 123.003 194.172 126.967 194.509 130.854C194.578 131.759 194.617 132.656 194.647 133.56C194.655 133.714 194.67 133.859 194.678 134.013C194.678 134.204 194.686 134.404 194.701 134.595C194.701 134.657 194.709 134.726 194.716 134.787C194.724 134.948 194.732 135.101 194.732 135.262C194.732 135.247 194.732 135.232 194.732 135.209C194.732 135.423 194.747 135.646 194.755 135.86C194.755 136.067 194.755 136.267 194.762 136.474C194.762 136.596 194.77 136.711 194.778 136.834C194.778 137.049 194.801 137.256 194.808 137.47C194.808 137.578 194.824 137.677 194.831 137.777C194.839 137.877 194.847 137.976 194.862 138.084C194.862 138.114 194.87 138.137 194.877 138.168C194.893 138.168 194.908 138.183 194.923 138.183C194.969 138.199 195.015 138.206 195.061 138.222C195.153 138.252 195.245 138.283 195.33 138.337C195.491 138.436 195.59 138.582 195.606 138.766C195.621 138.896 195.583 139.034 195.498 139.134C196.027 139.602 196.832 140.046 197.982 140.391C201.064 141.741 204.43 142.147 207.75 142.515C210.494 142.829 213.254 143.09 216.014 143.09C216.712 143.09 217.41 143.075 218.107 143.036L218.123 143.059Z" fill="#A4453B"/>
<path d="M194.839 138.16C194.839 138.16 194.847 138.16 194.855 138.168C194.855 138.168 194.847 138.168 194.839 138.16Z" fill="#A4453B"/>
<path d="M208.639 38.6395C208.639 38.6395 208.647 38.6395 208.654 38.6395C208.67 38.6395 208.677 38.6472 208.693 38.6548C208.677 38.6548 208.662 38.6395 208.639 38.6318V38.6395Z" fill="#A4453B"/>
<path d="M172.299 87.6906C172.299 88.603 172.33 89.5153 172.368 90.42C172.498 95.02 173.02 99.666 174.438 104.059C175.082 105.83 175.596 107.662 176.462 109.341C176.891 110.146 177.367 110.928 177.857 111.703C178.31 112.416 178.831 113.06 179.375 113.696C180.533 115.099 181.645 116.54 182.956 117.813C186.352 121.14 190.783 123.241 195.399 124.238C197.783 124.866 200.152 125.832 202.644 125.855C204.683 125.786 206.293 125.035 208.049 124.452C209.735 123.877 211.491 123.532 213.185 122.965C215.033 122.367 216.758 121.493 218.422 120.489C222.086 118.518 224.731 117.338 227.131 113.696C228.181 111.979 229.063 110.146 229.607 108.207C230.543 106.781 231.041 105.102 231.639 103.515C232.498 101.161 233.218 98.608 233.303 96.1086C233.594 92.3596 233.295 88.5033 232.597 84.831C232.344 83.4893 232.045 82.1553 231.631 80.8596C231.378 80.1543 231.256 79.2956 230.604 78.8433C230.09 77.6703 229.416 76.597 228.733 75.5236C227.752 73.929 226.755 72.3266 225.444 70.9773C223.635 69.03 221.703 67.121 219.334 65.8713C217.402 64.89 215.409 63.9776 213.354 63.2876C210.87 62.4903 208.325 61.9153 205.749 61.5243C203.487 61.1333 201.21 60.8343 198.91 60.9186C196.74 60.8726 194.578 61.0413 192.47 61.578C190.178 62.0916 187.885 62.728 185.846 63.924C183.155 65.5646 180.541 67.3816 178.463 69.7736C177.428 70.9313 176.462 72.3496 175.741 73.6683C174.568 75.5773 173.717 77.6933 173.296 79.9013C172.866 82.4926 172.299 85.0763 172.299 87.7136V87.6906Z" fill="#0FFF80"/>
<path d="M180.119 90.1826C179.996 93.0959 180.28 96.0476 180.947 98.8842C181.116 99.5819 181.353 100.257 181.499 100.962C181.56 101.353 181.668 101.736 181.821 102.104C182.764 104.328 183.86 106.513 185.263 108.475C185.785 109.418 186.344 110.338 186.965 111.228C189.38 114.264 192.048 115.973 195.061 116.855C196.74 117.714 198.465 118.266 200.535 118.036C201.739 117.905 202.958 117.905 204.154 117.668C205.381 117.461 206.584 117.154 207.811 116.947C208.67 116.778 209.528 116.602 210.364 116.364C211.169 116.119 211.928 115.751 212.702 115.414C213.423 115.099 214.167 114.823 214.849 114.448C215.83 113.865 216.896 112.937 217.479 111.856C220.768 108.951 223.436 105.255 224.731 101.077C225.743 96.8142 226.763 92.1452 225.674 87.8136C225.03 85.6132 223.965 83.5969 222.615 81.7646C222.47 81.3582 222.309 80.9519 222.125 80.5609C221.488 79.3572 220.614 78.2992 219.786 77.2259C218.621 75.5776 217.279 74.0366 215.654 72.8482C215.531 72.7486 215.401 72.6489 215.271 72.5492C211.184 70.0269 206.393 68.6699 201.601 68.4629C198.419 68.4706 195.153 68.9536 192.125 70.0346C190.216 70.6402 188.399 71.5372 186.981 72.7486C186.666 73.0399 186.367 73.3466 186.091 73.6686C183.738 76.0222 182.135 79.1426 181.024 82.2476C180.464 84.1489 180.311 86.1422 180.311 88.1279C180.219 88.8179 180.15 89.5079 180.096 90.1979L180.119 90.1826Z" fill="#D5FFBF"/>
<path d="M225.03 116.671C226.403 116.211 227.277 114.838 228.25 113.849C229.891 111.887 231.141 109.679 232.153 107.363C232.229 107.133 232.321 106.911 232.421 106.689C232.521 106.451 232.628 106.206 232.72 105.968C232.827 105.677 232.942 105.393 233.042 105.102C233.096 104.948 233.149 104.803 233.203 104.657C233.249 104.527 233.287 104.396 233.326 104.258C233.41 103.967 233.487 103.683 233.579 103.392C233.579 103.377 233.586 103.361 233.594 103.354C233.594 103.354 233.594 103.338 233.594 103.331C233.594 103.331 233.594 103.346 233.594 103.354C233.663 103.162 233.732 102.97 233.801 102.779C233.885 102.526 233.947 102.265 234.008 102.004C234.008 102.027 234 102.05 233.993 102.073C234.039 101.874 234.085 101.675 234.146 101.483C234.161 101.429 234.184 101.376 234.2 101.314C234.253 101.115 234.307 100.916 234.361 100.716C234.361 100.701 234.361 100.686 234.376 100.678C234.407 100.555 234.43 100.425 234.453 100.302C234.514 99.9879 234.575 99.6735 234.637 99.3669C234.637 99.3515 234.637 99.3362 234.644 99.3209C234.683 99.1445 234.713 98.9605 234.752 98.7842C234.775 98.6769 234.798 98.5772 234.821 98.4699C234.851 98.2629 234.882 98.0635 234.905 97.8565C234.905 97.8182 234.905 97.7799 234.913 97.7415C234.913 97.7109 234.928 97.6725 234.936 97.6419C235.572 92.6969 235.219 87.6215 234.177 82.7302C232.697 76.9955 229.561 71.0462 224.862 67.2052C222.968 65.7179 220.975 64.3225 218.82 63.2262C217.624 62.4135 216.26 62.7662 216.29 64.3455C216.313 65.2349 216.942 65.9095 217.785 66.1625C218.797 66.6609 219.771 67.2359 220.706 67.8569C222.393 69.0529 224.133 70.2259 225.521 71.7592C229.876 76.8269 232.252 83.2132 232.429 89.7835C232.996 95.3342 231.854 100.908 229.707 106.006C228.718 108.283 227.445 110.453 225.95 112.446C225.291 113.428 224.248 114.217 223.873 115.352C223.727 115.965 224.179 116.694 224.846 116.694C224.908 116.694 224.969 116.694 225.038 116.671H225.03Z" fill="#004449"/>
<path d="M180.334 116.441C180.97 116.058 181.223 115.307 181.116 114.609C180.878 114.379 180.64 114.149 180.426 113.896C180.288 113.735 180.15 113.574 180.012 113.413C179.812 113.168 179.621 112.915 179.429 112.662C179.429 112.669 179.444 112.677 179.444 112.685C179.145 112.278 178.862 111.864 178.578 111.45C178.325 111.082 178.072 110.707 177.827 110.331C177.535 109.894 177.244 109.457 176.976 109.005C176.707 108.552 176.454 108.092 176.209 107.625C176.079 107.372 175.948 107.119 175.833 106.858C175.734 106.636 175.649 106.406 175.557 106.183C175.32 105.608 175.151 105.018 174.959 104.428V104.435C174.775 103.853 174.637 103.262 174.484 102.672C174.484 102.695 174.499 102.718 174.499 102.733C174.415 102.434 174.338 102.135 174.269 101.836C174.269 101.859 174.277 101.882 174.285 101.898C174.208 101.591 174.131 101.277 174.047 100.978C173.932 100.594 173.794 100.211 173.694 99.8198C173.633 99.5822 173.587 99.3368 173.526 99.0992C173.48 98.8922 173.441 98.6928 173.411 98.4858C173.388 98.3325 173.372 98.1792 173.357 98.0258C173.112 96.7302 172.897 95.4345 172.636 94.1388C172.383 92.0075 172.391 89.8532 172.483 87.7065C172.529 86.2728 172.606 84.8315 172.866 83.4208C173.058 81.9412 173.464 80.5152 173.909 79.0968C174.461 77.1112 175.159 75.1562 176.27 73.4005C177.068 72.1585 177.865 70.8858 178.969 69.8892C180.104 68.9538 181.361 68.1718 182.565 67.3208C184.773 65.9025 187.234 64.8598 189.71 63.9782C191.872 63.3112 194.111 62.9508 196.349 62.5828C197.269 62.4448 198.205 62.3758 199.14 62.3835C200.305 62.4525 201.471 62.4832 202.628 62.4832C205.442 62.6135 208.24 63.0888 210.962 63.8018C212.442 64.1392 213.914 64.5455 215.301 65.1818C216.336 65.6035 217.379 65.9485 218.33 66.5082C219.211 66.8762 220.07 67.4895 220.852 67.9878C221.91 68.6548 223.114 69.1072 224.041 69.9582C224.386 70.2725 224.701 70.6175 225.053 70.9242C225.498 71.3228 226.065 71.5682 226.518 71.9438C226.778 72.1662 227.047 72.3962 227.269 72.6492C227.53 72.9635 227.729 73.3468 228.089 73.5692C228.296 73.6765 228.557 73.5385 228.634 73.3315C228.572 73.4925 228.657 73.2778 228.657 73.2625C228.68 73.1935 228.687 73.1092 228.68 73.0325C228.534 72.3885 228.204 71.7828 227.859 71.2078C227.338 70.2418 226.518 69.5672 225.95 68.6548C225.184 67.5662 224.202 66.6385 223.029 65.9792C222.171 65.4655 221.45 64.7602 220.591 64.2465C219.97 63.8862 219.342 63.5412 218.713 63.1885C217.793 62.7132 216.819 62.3682 215.884 61.9388C214.657 61.4098 213.369 61.0188 212.066 60.7122C209.674 60.0682 207.244 59.6082 204.783 59.3475C203.763 59.2402 202.743 59.2402 201.716 59.2248C200.313 59.1865 198.91 59.0562 197.507 59.2172C195.115 59.5008 192.731 59.9378 190.392 60.5128C188.905 60.9115 187.479 61.4712 186.084 62.0998C184.021 62.9662 182.043 64.0165 180.257 65.3428C178.885 66.2935 177.436 67.1905 176.378 68.4938C174.2 71.1542 172.468 74.1978 171.571 77.5098C170.451 80.8525 169.777 84.3408 169.731 87.8752C169.623 90.4895 169.593 93.1345 170.03 95.7335C170.183 96.6152 170.39 97.4892 170.543 98.3708C170.697 99.2142 170.819 100.065 171.019 100.909C171.479 102.634 172.084 104.32 172.636 106.022C173.687 109.12 175.366 111.972 177.351 114.594C177.75 115.115 178.195 115.613 178.632 116.104C178.892 116.426 179.276 116.602 179.667 116.602C179.889 116.602 180.111 116.549 180.318 116.426L180.334 116.441Z" fill="#004449"/>
<path d="M206.776 126.338C208.447 126.085 210.042 125.518 211.621 124.974C213.078 124.452 214.535 123.916 215.938 123.279C219.71 121.531 223.206 119.193 226.004 116.157C227.346 114.777 228.71 113.389 229.738 111.764C231.125 109.694 232.137 107.409 232.904 105.056C233.31 103.975 233.694 102.886 234.054 101.79C234.077 101.682 234.108 101.583 234.138 101.475C234.154 101.422 234.177 101.368 234.192 101.307C234.246 101.107 234.299 100.908 234.353 100.709C234.353 100.693 234.361 100.678 234.361 100.67C234.391 100.548 234.414 100.417 234.437 100.295C234.499 99.965 234.56 99.643 234.629 99.3133C234.667 99.137 234.698 98.953 234.736 98.7766C234.775 98.5926 234.821 98.4086 234.844 98.217C234.859 98.102 234.874 97.987 234.89 97.8643C234.89 97.8183 234.89 97.78 234.89 97.734C234.905 97.6343 234.928 97.5423 234.951 97.4426C234.89 97.3276 234.813 97.2126 234.698 97.113C234.2 96.6683 233.479 96.791 232.958 97.113C232.145 97.573 232.045 98.5236 231.838 99.3286C231.378 100.939 230.865 102.372 230.305 103.921C229.37 106.758 228.204 109.564 226.28 111.902C225.099 113.297 223.765 114.57 222.477 115.873C219.326 118.725 215.432 120.688 211.391 122.068C209.896 122.597 208.394 123.134 206.814 123.379C203.916 123.709 200.965 123.816 198.051 123.509C195.245 123.157 192.554 122.237 190.04 120.979C189.963 120.949 189.894 120.918 189.817 120.887C189.71 120.841 189.595 120.803 189.488 120.749C189.35 120.68 189.219 120.604 189.089 120.527L189.051 120.504C189.051 120.504 189.089 120.527 189.104 120.535C189.081 120.519 189.058 120.504 189.028 120.489C189.028 120.489 189.028 120.489 189.02 120.489C189.02 120.489 189.02 120.489 189.012 120.489C189.02 120.489 189.028 120.496 189.035 120.504C188.882 120.412 188.721 120.32 188.56 120.228C188.322 120.09 188.077 119.944 187.839 119.806C187.602 119.668 187.372 119.53 187.149 119.377C187.149 119.377 187.157 119.377 187.165 119.385C187.165 119.385 187.149 119.377 187.142 119.369C187.142 119.369 187.142 119.369 187.134 119.369C187.134 119.369 187.119 119.362 187.111 119.354C187.103 119.354 187.088 119.339 187.08 119.331C187.08 119.331 187.065 119.323 187.057 119.316C187.065 119.316 187.073 119.331 187.08 119.331C187.004 119.277 186.935 119.224 186.858 119.17C186.291 118.802 185.739 118.426 185.194 118.028C184.167 117.238 183.132 116.464 182.174 115.597C181.99 115.436 181.813 115.283 181.637 115.114C181.652 115.13 181.675 115.145 181.691 115.168C181.545 115.038 181.407 114.907 181.269 114.769C180.985 114.501 180.709 114.225 180.456 113.934C180.318 113.773 180.18 113.612 180.042 113.451C179.843 113.205 179.651 112.952 179.467 112.707C179.168 112.308 178.892 111.894 178.609 111.488C178.356 111.12 178.103 110.744 177.857 110.369C177.566 109.932 177.275 109.495 177.006 109.042C176.738 108.59 176.485 108.13 176.24 107.662C176.109 107.409 175.979 107.156 175.864 106.896C175.764 106.673 175.68 106.443 175.588 106.221C175.35 105.654 175.182 105.063 174.99 104.481C174.806 103.898 174.668 103.308 174.515 102.717C174.515 102.733 174.522 102.748 174.53 102.763C174.453 102.48 174.384 102.204 174.308 101.92C174.308 101.935 174.308 101.943 174.315 101.958C174.239 101.652 174.162 101.337 174.078 101.038C173.963 100.655 173.825 100.272 173.725 99.8806C173.664 99.643 173.618 99.3976 173.556 99.16C173.51 98.953 173.472 98.7536 173.441 98.5466C173.426 98.424 173.411 98.3013 173.395 98.1786C173.326 98.0176 173.257 97.8643 173.188 97.7033C172.905 96.975 172.721 96.2083 172.498 95.4646C172.284 94.7056 172.13 93.9236 171.847 93.18C171.755 92.9346 171.77 92.6663 171.701 92.4133C171.647 92.214 171.44 92.1143 171.241 92.1526C170.643 92.3136 170.559 93.065 170.52 93.5786C170.298 95.089 170.275 96.6223 170.52 98.1326C170.819 99.62 171.348 101.061 171.601 102.564C172.077 104.335 172.429 106.16 173.142 107.862C173.633 108.996 174.331 110.031 174.936 111.105C175.611 112.17 176.194 113.297 176.868 114.363C177.505 115.291 178.118 116.241 178.908 117.054C180.755 118.94 182.933 120.519 185.141 121.991C185.946 122.482 186.766 122.95 187.602 123.394C187.74 123.456 187.878 123.525 188.016 123.586C188.092 123.624 188.169 123.655 188.246 123.693C188.307 123.716 188.368 123.747 188.43 123.778C188.483 123.801 188.529 123.831 188.583 123.854C188.66 123.893 188.736 123.923 188.821 123.962C188.821 123.962 188.813 123.962 188.805 123.962C188.805 123.962 188.813 123.962 188.821 123.962C188.821 123.962 188.836 123.962 188.844 123.969C188.859 123.969 188.874 123.985 188.89 123.992H188.882C188.882 123.992 188.897 123.992 188.905 123.992C188.92 123.992 188.936 124.008 188.943 124.015C188.943 124.015 188.943 124.015 188.936 124.015C188.943 124.015 188.951 124.023 188.959 124.023C188.966 124.023 188.974 124.031 188.982 124.038C188.982 124.038 188.982 124.038 188.989 124.038C188.989 124.038 188.989 124.038 188.997 124.038C188.997 124.038 188.997 124.038 188.989 124.038C188.989 124.038 188.989 124.038 188.982 124.038C188.982 124.038 188.982 124.038 188.974 124.038C189.127 124.115 189.281 124.192 189.434 124.276C189.549 124.337 189.656 124.406 189.771 124.46C191.174 125.081 192.616 125.61 194.103 125.978C195.337 126.269 196.595 126.492 197.86 126.637C199.232 126.745 200.62 126.737 201.992 126.745C203.594 126.699 205.197 126.591 206.776 126.377V126.338ZM185.386 119.699C185.386 119.699 185.371 119.753 185.34 119.753C185.309 119.753 185.279 119.73 185.271 119.691C185.263 119.653 185.286 119.638 185.317 119.638C185.348 119.638 185.378 119.661 185.386 119.699Z" fill="#004449"/>
<path d="M188.836 123.932C188.836 123.932 188.859 123.939 188.874 123.947C188.859 123.947 188.851 123.932 188.836 123.932Z" fill="#004449"/>
<path d="M189.127 120.543C189.127 120.543 189.15 120.558 189.166 120.566C189.15 120.558 189.143 120.551 189.127 120.543Z" fill="#004449"/>
<path d="M187.096 119.324C187.096 119.324 187.104 119.324 187.111 119.332C187.111 119.332 187.096 119.324 187.096 119.316V119.324Z" fill="#004449"/>
<path d="M179.437 112.677C179.437 112.677 179.437 112.677 179.445 112.685C179.445 112.685 179.445 112.685 179.437 112.677Z" fill="#004449"/>
<path d="M189.495 124.046C190.316 123.778 190.753 122.827 190.645 121.999C190.615 121.624 190.431 121.263 190.155 121.018C190.055 120.972 189.948 120.934 189.848 120.895C189.741 120.849 189.626 120.811 189.518 120.757C189.38 120.688 189.25 120.612 189.12 120.535C189.12 120.535 189.112 120.535 189.104 120.527C189.081 120.52 189.066 120.504 189.043 120.489C189.043 120.489 189.043 120.489 189.035 120.489C189.035 120.489 189.035 120.489 189.028 120.489C189.028 120.489 189.02 120.489 189.012 120.481C188.859 120.389 188.698 120.297 188.545 120.205C188.307 120.067 188.062 119.922 187.824 119.784C187.579 119.638 187.333 119.492 187.103 119.324C187.096 119.316 187.08 119.308 187.073 119.301C186.973 119.232 186.873 119.155 186.774 119.086C186.521 118.902 186.268 118.726 186.015 118.542C185.815 118.396 185.616 118.25 185.417 118.105C185.325 118.043 185.233 117.982 185.141 117.921C185.141 117.921 185.141 117.921 185.133 117.921C185.125 117.921 185.11 117.905 185.102 117.898C185.102 117.898 185.095 117.898 185.087 117.89C185.087 117.89 185.095 117.89 185.102 117.898C184.941 117.783 184.788 117.66 184.635 117.537C184.581 117.499 184.535 117.461 184.481 117.422C184.267 117.261 184.06 117.085 183.845 116.916C183.117 116.403 182.457 115.835 181.806 115.207C180.349 113.949 179.107 112.439 178.072 110.837C177.075 109.349 176.447 107.663 175.688 106.053C175.12 104.803 174.691 103.5 174.231 102.204C173.188 99.1833 173.089 95.971 172.774 92.82C172.613 90.6733 172.682 88.5113 172.935 86.3723C172.935 86.357 172.935 86.3416 172.935 86.3263C172.935 86.242 172.958 86.1576 172.966 86.081C172.974 86.0043 172.989 85.9353 172.997 85.8586C173.119 84.908 173.28 83.965 173.464 83.0296C173.963 79.848 174.944 76.7353 176.424 73.8756C178.938 69.682 182.335 66.876 186.835 64.99C188.621 64.2156 190.385 63.3646 192.301 62.966C193.513 62.7283 194.716 62.4753 195.928 62.2606C197.837 61.931 199.784 61.839 201.716 61.862C203.088 61.8773 204.445 62.1073 205.818 62.1993C207.067 62.2836 208.309 62.4523 209.521 62.7666C211.506 63.265 213.461 64.024 215.37 64.7676C216.85 65.4423 218.199 66.3623 219.671 67.037C222.914 68.8156 225.69 71.453 227.76 74.489C229.009 76.4823 230.067 78.6136 230.911 80.814C231.286 81.9946 231.608 83.1983 231.8 84.425C232.153 86.0886 232.421 87.7676 232.521 89.462C232.559 91.417 232.383 93.3183 232.229 95.2043C232.061 97.5656 231.838 99.9346 231.141 102.212C230.696 103.76 230.006 105.209 229.339 106.674C228.733 108.023 228.02 109.319 227.139 110.507C226.472 111.473 225.789 112.431 225.023 113.313C224.264 114.179 223.42 114.961 222.707 115.858C221.749 117.016 220.844 118.243 219.618 119.147C219.326 119.37 219.012 119.584 218.79 119.883C218.682 120.037 218.713 120.374 218.951 120.382C219.15 120.382 219.326 120.297 219.51 120.221C221.389 119.523 223.006 118.335 224.563 117.1C225.651 116.265 226.694 115.352 227.591 114.31C228.733 112.914 229.86 111.496 230.727 109.909C231.792 107.87 232.789 105.769 233.525 103.584C234.391 100.993 234.744 98.271 234.92 95.557C235.104 93.6863 235.196 91.808 235.273 89.922C235.265 87.806 234.959 85.69 234.514 83.62C234.299 82.3703 234.046 81.1206 233.648 79.9093C233.395 79.0353 233.073 78.1843 232.666 77.364C232.13 76.1526 231.555 74.9566 230.895 73.8066C229.63 71.476 227.913 69.4213 226.004 67.589C224.026 65.749 221.803 64.2463 219.349 63.1116C217.977 62.2836 216.559 61.5093 215.033 61.011C213.477 60.459 211.943 59.8533 210.333 59.47C208.731 59.0636 207.09 58.9026 205.442 58.78C203.855 58.596 202.268 58.4426 200.666 58.504C197.576 58.504 194.532 59.1173 191.535 59.792C190.009 60.1446 188.575 60.7886 187.142 61.4096C184.313 62.552 181.606 64.0316 179.268 66.002C176.96 68.1333 174.944 70.5483 173.602 73.3926C172.866 75.0716 172.192 76.789 171.678 78.5523C171.195 80.2083 170.942 81.9103 170.612 83.597C169.853 87.6603 169.769 91.831 170.29 95.925C170.451 98.501 170.827 101.077 171.632 103.53C172.514 106.267 173.671 108.912 174.952 111.488C176.355 114.11 178.271 116.433 180.518 118.381C181.875 119.692 183.569 120.558 185.026 121.754C185.7 122.229 186.383 122.689 187.088 123.088C187.165 123.134 187.249 123.172 187.326 123.218C187.333 123.218 187.341 123.226 187.349 123.234C187.395 123.257 187.433 123.272 187.479 123.295C187.671 123.387 187.862 123.471 188.054 123.563C188.131 123.602 188.2 123.632 188.276 123.671C188.345 123.694 188.407 123.724 188.468 123.763C188.514 123.786 188.568 123.809 188.614 123.832C188.69 123.862 188.767 123.901 188.844 123.931C188.851 123.931 188.859 123.939 188.867 123.939C188.867 123.939 188.897 123.954 188.913 123.962C188.913 123.962 188.913 123.962 188.905 123.962C188.905 123.962 188.92 123.962 188.928 123.97C188.943 123.97 188.959 123.985 188.966 123.993H188.959C188.966 123.993 188.974 124 188.982 124C188.989 124 188.997 124.008 189.012 124.016C189.012 124.016 189.02 124.016 189.028 124.016C189.097 124.046 189.158 124.077 189.227 124.115C189.327 124.115 189.426 124.1 189.534 124.062L189.495 124.046ZM185.386 119.692C185.386 119.692 185.371 119.745 185.34 119.745C185.309 119.745 185.279 119.722 185.271 119.684C185.263 119.646 185.286 119.63 185.317 119.63C185.348 119.63 185.378 119.653 185.386 119.692Z" fill="#004449"/>
<path d="M187.05 119.293C187.05 119.293 187.034 119.285 187.027 119.277C187.027 119.277 187.042 119.285 187.05 119.293Z" fill="#004449"/>
<path d="M188.836 123.932C188.836 123.932 188.859 123.947 188.874 123.947C188.859 123.947 188.851 123.932 188.836 123.932Z" fill="#004449"/>
<path d="M189.012 120.481C189.012 120.481 189.02 120.481 189.028 120.489C189.028 120.489 189.02 120.489 189.012 120.481Z" fill="#004449"/>
<path d="M190.446 122.912C190.745 122.613 190.285 122.298 190.032 122.16C189.442 121.792 188.897 121.371 188.322 120.987C187.111 120.297 186.13 119.308 185.041 118.45C184.152 117.737 183.262 117.031 182.396 116.295C181.622 115.575 180.863 114.831 180.165 114.041C179.061 112.746 178.241 111.251 177.328 109.825C176.324 108.238 175.389 106.605 174.752 104.834C174.108 102.978 173.664 101.054 173.188 99.1451C172.445 95.9635 172.437 92.5671 172.521 89.3471C172.567 88.3581 172.713 87.3768 172.889 86.4031C172.889 86.3725 172.889 86.3341 172.889 86.3035C172.889 86.2191 172.912 86.1348 172.92 86.0581C172.935 85.9738 172.943 85.8818 172.958 85.7975C172.989 85.6135 173.012 85.4218 173.043 85.2378C173.05 85.1535 173.066 85.0768 173.073 84.9925C173.081 84.9081 173.096 84.8315 173.112 84.7471C173.112 84.7165 173.119 84.6858 173.127 84.6628C173.127 84.6245 173.142 84.5861 173.15 84.5478C173.158 84.4788 173.165 84.4175 173.181 84.3485C173.188 84.2948 173.204 84.2335 173.211 84.1798C173.211 84.1645 173.211 84.1568 173.211 84.1415C173.173 83.4898 172.935 82.8918 172.307 82.4855C171.279 81.8645 170.405 82.8075 170.375 83.8501C170.152 85.0385 169.93 86.2268 169.8 87.4305C169.608 89.3931 169.623 91.3865 169.7 93.3568C169.807 95.7028 170.022 98.0411 170.666 100.303C171.072 101.928 171.456 103.561 171.992 105.156C172.813 107.555 174.039 109.786 175.427 111.902C176.263 113.206 177.045 114.547 178.049 115.728C179.222 117.054 180.51 118.304 181.974 119.308C183.377 120.274 184.895 121.095 186.482 121.731C187.264 122.045 188.092 122.214 188.89 122.498C189.304 122.628 189.702 122.789 190.109 122.935C190.17 122.958 190.231 122.973 190.285 122.973C190.331 122.973 190.377 122.965 190.423 122.935L190.446 122.912Z" fill="#004449"/>
<path d="M184.32 109.871C185.486 109.219 185.049 107.54 184.489 106.605C183.891 105.087 183.285 103.584 182.534 102.135C181.422 99.2522 180.809 96.2008 180.165 93.1802C179.153 86.9012 180.985 79.1962 185.647 74.7112C187.387 73.2622 189.265 71.7978 191.481 71.2075C194.471 70.4868 197.53 69.8582 200.62 70.0192C203.962 70.1955 207.366 70.4562 210.571 71.4758C212.258 72.1812 213.906 73.0322 215.439 74.0365C218.307 76.2062 220.3 79.3265 222.27 82.2858C223.328 84.1872 224.294 86.1345 225.283 88.0742C225.989 89.5078 226.732 88.3962 226.479 87.2615C225.912 83.3362 224.095 79.6485 221.734 76.4975C220.185 74.3662 218.537 72.2348 216.29 70.8012C214.151 69.5208 212.265 68.4322 209.958 67.8265C209.038 67.6118 208.11 67.4278 207.182 67.2745C206.991 67.2592 206.799 67.2362 206.615 67.2132C206.515 67.1978 206.408 67.1902 206.308 67.1672C206.239 67.1672 206.178 67.1672 206.109 67.1672C205.956 67.1672 205.795 67.1595 205.641 67.1442C205.519 67.1365 205.396 67.1212 205.273 67.1058C205.013 67.0752 204.76 67.0522 204.499 67.0215C204.269 66.9908 204.039 66.9602 203.809 66.9295C203.602 66.8988 203.395 66.8605 203.188 66.8222C203.157 66.8222 203.127 66.8145 203.088 66.8068C202.904 66.7992 202.72 66.7915 202.529 66.7762C202.291 66.7608 202.053 66.7225 201.816 66.6995C201.785 66.6995 201.754 66.6995 201.724 66.6918C200.405 66.6305 199.086 66.6228 197.775 66.6765C194.992 67.0215 192.171 67.4202 189.518 68.3555C187.479 69.2602 185.601 70.6095 183.945 72.0968C177.888 77.9312 175.887 88.4268 178.064 96.3848C178.785 99.5588 179.536 102.764 181.085 105.654C181.821 106.957 182.143 109.901 183.96 109.901C184.075 109.901 184.19 109.894 184.32 109.863V109.871Z" fill="#004449"/>
<path d="M202.299 119.86C203.962 119.837 205.611 119.553 207.198 119.055C209.498 118.449 211.69 117.452 213.768 116.333C213.73 116.348 213.691 116.371 213.661 116.387C213.645 116.387 213.63 116.402 213.553 116.44C215.079 115.681 216.513 114.769 217.87 113.742C218.521 113.259 219.265 112.76 219.587 111.994C219.809 111.472 219.817 110.598 219.15 110.399C218.506 110.207 217.808 110.414 217.233 110.721C216.689 111.051 216.252 111.518 215.723 111.871C214.642 112.714 213.254 113.565 212.112 114.14C210.387 115.06 208.608 115.896 206.707 116.394C205.189 116.893 203.61 117.146 202.015 117.115C200.106 117.061 198.128 117.1 196.311 116.402C193.413 115.145 190.645 113.489 188.368 111.281C187.487 110.422 186.574 109.494 185.823 108.559C185.394 107.976 185.033 107.355 184.635 106.75C184.113 105.929 183.745 105.017 183.385 104.12C182.135 101.299 181.254 98.3624 180.786 95.3187C180.073 91.8381 180.081 88.2807 180.548 84.7694C180.847 83.5197 181.146 82.2547 181.729 81.1047C182.756 78.7817 184.182 76.6657 185.823 74.7337C187.103 73.2847 188.644 72.1041 190.055 70.7931C190.446 70.4097 191.082 70.1797 191.397 69.7657C191.834 68.5621 189.15 69.4437 188.706 69.6891C185.348 71.0461 182.718 73.6604 180.763 76.6504C180.219 77.3711 179.759 78.1531 179.375 78.9657C178.632 80.4071 177.919 81.8791 177.574 83.4737C177.114 84.9611 177.075 86.5327 176.96 88.0737C176.715 91.2401 177.16 94.3987 177.765 97.5037C178.264 99.9494 178.977 102.349 179.966 104.634C180.418 105.692 180.725 106.55 181.238 107.532C181.783 108.475 182.373 109.395 182.994 110.292C184.42 111.986 185.976 113.588 187.732 114.953C189.794 116.525 192.171 117.905 194.54 118.894C196.993 119.867 199.684 119.852 202.291 119.86H202.299Z" fill="#004449"/>
<path d="M201.708 120.113C210.74 119.254 218.82 115.827 223.88 107.992C225.337 105.792 226.249 103.308 226.893 100.762C227.859 97.1206 228.465 93.2259 227.714 89.4922C227.392 86.7169 226.548 84.2559 225.245 81.8179C223.551 78.8279 221.971 75.7076 219.671 73.1239C217.563 71.1306 215.125 69.5206 212.396 68.5086C210.947 67.8876 209.367 67.8416 207.872 67.3662C207.819 67.3509 207.773 67.3356 207.719 67.3203C207.719 67.3203 207.704 67.3203 207.696 67.3203C207.696 67.3203 207.696 67.3203 207.688 67.3203H207.673C207.673 67.3203 207.673 67.3203 207.681 67.3203C207.543 67.3049 207.397 67.2819 207.259 67.2742C207.052 67.2512 206.845 67.2359 206.638 67.2129C206.538 67.2053 206.431 67.1899 206.331 67.1669C206.262 67.1669 206.201 67.1669 206.132 67.1669C205.979 67.1669 205.818 67.1593 205.664 67.1439C205.542 67.1363 205.419 67.1209 205.296 67.1056C205.036 67.0749 204.783 67.0519 204.522 67.0213C204.292 66.9906 204.062 66.9599 203.832 66.9292C203.786 66.9292 203.74 66.9139 203.694 66.9062C202.598 67.4889 202.322 69.5589 203.663 70.0343C204.583 70.3486 205.557 70.3562 206.508 70.5019C207.627 70.8622 208.854 71.0922 209.958 71.2686C213.032 72.1732 215.884 73.8369 218.069 76.1522C219.733 78.1532 221.044 80.5682 222.301 82.8146C226.18 89.2316 225.889 95.8786 223.505 102.756C221.626 107.739 217.571 111.733 212.81 114.018C210.51 115.099 208.133 115.728 205.68 116.257C203.334 116.701 200.942 117.077 198.573 116.51C195.736 115.781 193.045 114.532 190.515 113.083C188.315 111.626 186.459 109.755 184.466 108.03C183.791 107.471 183.362 106.689 182.94 105.945C182.58 105.493 182.043 105.945 182.074 106.413C182.089 106.926 182.304 107.409 182.434 107.9C184.052 112.439 188.031 115.873 192.34 117.782C195.069 119.024 197.936 120.144 200.965 120.144C201.21 120.144 201.455 120.144 201.708 120.121V120.113Z" fill="#004449"/>
<path d="M204.093 119.239C205.833 119.224 207.504 118.764 209.122 118.166C210.356 117.76 211.621 117.422 212.833 116.924C214.849 116.081 216.62 114.777 218.33 113.436C223.229 109.786 225.322 106.781 226.993 100.901C228.097 96.6379 228.611 91.9842 227.323 87.7062C226.932 86.6406 226.479 85.6056 226.05 84.5552C225.766 83.7809 225.437 83.0296 225.092 82.2782C224.854 81.5422 224.026 80.9979 223.382 81.6649C222.577 82.5696 223.413 83.7119 223.497 84.7239C223.811 86.6176 224.793 88.3349 225.153 90.2132C225.843 94.7059 224.923 99.3289 223.167 103.477C222.838 104.197 222.493 104.903 222.071 105.577C221.335 106.72 220.361 107.686 219.418 108.659C217.31 110.76 215.14 112.815 212.442 114.095C210.671 114.877 208.754 115.276 206.96 115.996C205.825 116.395 204.599 116.479 203.418 116.61C202.72 116.725 201.808 116.778 201.149 116.748C199.799 116.625 198.458 116.395 197.101 116.61C196.51 116.694 195.92 116.518 195.337 116.594C194.617 116.755 194.885 117.568 195.491 117.721C196.51 118.319 197.683 118.35 198.818 118.557C199.6 118.703 200.367 118.917 201.133 119.094C202.115 119.27 203.111 119.308 204.1 119.239H204.093Z" fill="#004449"/>
<path d="M212.794 142.845C207.849 142.523 202.904 142.178 198.005 141.373C195.061 140.913 192.094 140.476 189.227 139.64C188.062 139.264 186.827 138.85 185.93 137.976C184.819 136.911 184.497 135.577 185.248 134.189C186.521 131.582 189.672 130.655 192.386 130.701C192.754 130.739 193.175 130.67 193.513 130.862C193.842 131.138 193.566 131.452 193.214 131.475C191.864 131.698 190.584 132.265 189.503 133.116C188.913 133.584 188.391 134.151 188.1 134.864C188 135.201 187.786 135.585 187.908 135.945C188.56 137.141 191.949 137.532 193.29 137.885C197.2 138.59 201.133 139.188 205.082 139.564C209.475 139.978 213.875 140.215 218.276 140.514C222.93 140.805 227.599 140.729 232.252 140.56C234.299 140.468 240.532 140.713 241.475 138.743C241.023 138.099 240.126 137.946 239.428 137.67C238.094 137.225 236.753 136.781 235.403 136.374C234.629 136.167 233.878 135.86 233.103 135.661C232.49 135.531 231.9 134.833 232.252 134.212C232.927 133.131 234.79 133.89 235.833 133.944C237.213 134.151 238.57 134.473 239.881 134.956C241.215 135.377 242.595 135.784 243.668 136.719C245.669 138.367 244.879 140.415 242.94 141.657C241.82 142.308 240.525 142.623 239.26 142.86C236.569 143.228 233.847 143.213 231.133 143.282C229.661 143.358 228.181 143.381 226.702 143.389C226.073 143.404 225.437 143.412 224.808 143.412C220.798 143.412 216.796 143.121 212.794 142.837V142.845Z" fill="#004449"/>
<path d="M213.783 62.7896C213.438 62.3756 213.093 61.9616 212.771 61.5322C211.207 59.3779 209.651 57.2082 208.317 54.9082C206.232 51.2896 200.275 40.9166 206.002 38.4019C206.883 38.0799 207.926 37.9879 208.785 38.4096C209.114 38.5782 209.513 38.9462 209.344 39.3449C209.122 39.6362 208.7 39.4062 208.394 39.3756C206.837 39.3986 205.68 40.7479 205.764 42.2812C205.787 44.0599 206.569 45.7236 207.236 47.3412C208.532 50.2086 210.157 52.9226 211.844 55.5829C213.07 57.3539 214.305 59.1402 215.662 60.8116C215.984 61.1872 216.367 61.6166 216.52 62.1149C216.812 62.8892 216.39 63.9702 215.47 63.9549C215.462 63.9549 215.455 63.9549 215.447 63.9549C214.696 63.9549 214.197 63.3339 213.783 62.7819V62.7896Z" fill="#004449"/>
<path d="M245.148 161.659C244.879 160.954 245.017 160.187 244.964 159.443C244.941 157.634 244.856 155.549 244.895 153.693C245.025 150.765 244.841 147.844 244.642 144.923C244.427 143.09 244.35 141.097 243.315 139.51C242.832 138.889 242.112 138.506 241.506 138.015C240.923 137.739 240.341 137.325 239.766 137.003C239.39 136.804 238.991 136.558 238.915 136.098C238.823 135.393 239.497 135.163 240.065 135.37C240.755 135.554 241.383 135.922 242.081 136.106C242.549 136.221 242.97 136.466 243.407 136.666C243.89 136.85 244.251 137.041 244.672 137.425C246.834 139.449 247.064 143.152 247.34 145.95C247.624 149.093 247.632 151.869 247.563 155.135C247.57 156.277 247.478 157.412 247.363 158.554C247.31 159.075 247.287 159.612 247.233 160.149C247.164 160.655 247.21 161.291 246.926 161.759C246.704 162.157 246.374 162.349 246.045 162.349C245.684 162.349 245.332 162.119 245.148 161.674V161.659Z" fill="#004449"/>
<path d="M245.301 142.875C244.979 141.633 244.764 140.284 243.921 139.257C243.4 138.82 242.717 138.682 242.119 138.39C241.038 137.915 239.858 137.831 238.708 137.608C238.294 137.539 237.88 137.463 237.466 137.378C236.599 137.202 235.994 136.221 236.216 135.37C236.408 134.595 237.144 134.404 237.849 134.572C238.34 134.641 238.838 134.703 239.321 134.802C241.084 134.986 242.725 135.776 244.166 136.788C245.884 138.015 246.252 140.292 246.313 142.262C246.344 142.868 246.298 143.489 246.298 144.102C246.275 144.332 246.336 144.692 246.045 144.769C246.029 144.769 246.022 144.769 246.006 144.769C245.485 144.769 245.47 143.274 245.293 142.868L245.301 142.875Z" fill="#004449"/>
<path d="M184.098 157.005C183.906 156.215 183.906 155.311 183.837 154.444C183.692 152.75 183.722 150.764 183.684 149.024C183.561 145.206 183.308 141.373 183.73 137.562C183.991 135.868 184.757 134.204 186.007 133.016C186.314 132.755 186.636 132.525 187.004 132.364C187.893 131.981 188.798 131.605 189.741 131.391C190.086 131.337 190.477 131.245 190.822 131.337C191.021 131.406 191.136 131.697 191.021 131.881C190.829 132.134 190.477 132.157 190.208 132.295C189.587 132.587 189.028 132.97 188.506 133.415C187.732 133.951 187.203 134.772 186.896 135.653C185.846 137.915 186.283 140.453 186.183 142.86C186.283 146.893 186.712 150.941 186.36 154.973C186.321 155.472 186.306 155.732 186.26 156.292C186.214 156.744 186.275 157.258 185.953 157.626C185.762 157.856 185.524 157.948 185.286 157.948C184.773 157.948 184.236 157.519 184.098 157.005Z" fill="#004449"/>
<path d="M236.99 148.925C241.008 147.752 242.671 154.805 239.037 156.101C238.715 156.208 238.409 156.262 238.117 156.262C234.828 156.262 233.418 149.899 236.983 148.925H236.99ZM237.458 152.13C237.481 152.597 237.696 153.203 238.202 153.31C238.232 153.31 238.255 153.31 238.286 153.31C238.478 152.751 238.332 152.076 237.757 152.076C237.665 152.076 237.565 152.091 237.458 152.13Z" fill="#004449"/>
<path d="M218.207 97.5661C219.411 96.7918 219.035 95.3044 218.544 94.2158C217.992 92.3911 217.134 90.6738 216.122 89.0638C214.619 86.6411 212.557 84.5481 210.057 83.1758C203.134 79.5034 194.624 83.4748 190.822 89.8228C189.848 91.2641 187.418 95.8641 188.368 97.4281C189.296 97.9801 189.787 96.2321 190.139 95.6264C191.611 92.5521 193.712 89.7078 196.434 87.6224C201.471 83.8504 208.417 84.2644 212.442 89.2938C213.645 90.7121 214.581 92.3374 215.355 94.0164C215.884 95.1281 216.007 96.4468 216.735 97.4511C216.934 97.6734 217.21 97.7731 217.494 97.7731C217.739 97.7731 217.992 97.6964 218.199 97.5661H218.207Z" fill="#004449"/>
<path d="M211.33 85.6212C207.075 83.0605 204.476 90.3822 209.137 92.2988C209.728 92.5825 210.287 92.7128 210.793 92.7128C214.374 92.7128 215.677 86.4645 211.33 85.6288V85.6212Z" fill="#004449"/>
<path d="M215.025 92.4446C215.278 91.6933 215.508 90.804 215.202 90.0373C214.864 89.033 213.431 88.2893 212.725 89.3626C212.38 89.861 212.649 90.5586 212.219 91.011C211.422 91.54 210.364 91.4403 209.513 91.0953C209.015 90.919 208.869 90.3976 208.7 89.9453C208.401 89.1403 208.8 87.3233 209.49 86.802C210.832 86.2193 211.161 84.686 209.674 84.0573C209.206 83.8963 208.708 84.0036 208.279 84.2106C206.998 84.732 206.362 86.2193 206.071 87.4996C205.557 89.631 206.377 92.3143 208.21 93.5946C209.099 94.2003 210.295 94.5606 211.46 94.5606C212.978 94.5606 214.427 93.9473 215.033 92.4523L215.025 92.4446Z" fill="#004449"/>
<path d="M204.821 89.194C207.543 86.9017 209.076 91.816 206.63 93.0503C206.339 93.1807 206.071 93.242 205.818 93.242C204.085 93.242 203.426 90.3593 204.821 89.194Z" fill="white"/>
</g>
<defs>
<clipPath id="clip0_27_1014">
<rect width="335" height="205" fill="white" transform="translate(0.666626 0.248047)"/>
</clipPath>
</defs>
</svg>
