<svg width="196" height="131" viewBox="0 0 196 131" fill="none" xmlns="http://www.w3.org/2000/svg">
<path d="M4.20642 58.5492C4.2316 59.6477 4.40792 60.8346 5.15096 61.6932C5.93179 62.5013 6.82596 63.2715 7.88385 63.6756C8.00979 63.7134 8.12313 63.7387 8.21129 63.7639C8.43798 63.8776 8.67726 63.9786 8.91655 64.0544C10.3523 64.6857 11.8258 65.2539 13.2867 65.8473C17.8205 67.6908 22.3921 69.4459 26.9511 71.2515C36.4974 75.1404 46.1947 78.6253 55.7535 82.4638C61.3075 84.6103 66.874 86.7189 72.4909 88.6887C85.8154 93.2468 98.7997 98.7267 111.986 103.638C116.091 105.217 120.235 106.732 124.214 108.601C125.234 109.055 126.229 109.586 127.25 110.04C128.03 110.507 129.126 110.81 129.516 111.669C129.453 112.161 129.34 112.654 129.214 113.121C128.194 115.52 126.872 117.73 126.141 120.192C125.814 121.808 126.784 123.26 128.32 123.563C128.496 123.639 128.698 123.702 128.912 123.752C130.499 124.056 132.035 123.525 133.534 122.97C133.95 122.856 134.378 122.755 134.793 122.654C138.093 121.808 141.254 120.52 144.503 119.51C146.279 119.03 148.067 118.588 149.768 117.856C155.007 116.189 160.221 114.472 165.472 112.856C168.432 112.452 171.328 111.24 174.212 110.495C179.137 108.979 184.162 107.78 189.073 106.24C190.786 105.747 191.97 104.926 191.768 102.969C191.756 102.426 191.504 101.959 191.214 101.505C190.685 100.191 189.816 98.8025 189.514 98.1838C189.048 97.3378 188.582 96.4919 188.104 95.6585C187.927 95.2923 187.751 94.9135 187.575 94.5474C187.096 93.512 186.466 92.5524 185.887 91.5675C185.761 91.3402 185.635 91.113 185.509 90.8857C185.106 90.0397 184.741 89.1685 184.149 88.4361C184.074 88.2846 183.973 88.1331 183.859 88.0195C182.739 86.0245 181.655 84.0169 180.472 82.0598C177.235 76.4157 174.149 70.6833 170.988 64.9887C170.447 63.7387 169.767 62.5518 169.049 61.3902C168.696 60.6831 168.344 59.9886 167.966 59.2942C167.109 57.4633 166.19 55.6325 165.145 53.9279C163.873 51.9329 163.016 49.698 161.556 47.8167C161.304 47.5136 161.001 47.198 160.661 46.9707C160.422 46.7434 160.158 46.5288 159.868 46.3394C159.679 46.2257 159.49 46.1373 159.301 46.0616C157.979 45.2156 156.291 45.607 155.41 47.0086C154.251 49.3066 153.684 51.8193 152.79 54.2688C152.563 54.7107 152.299 55.1274 152.009 55.5315C151.128 55.885 150.133 55.3421 149.239 55.1527C148.181 54.7739 147.098 54.4708 146.04 54.1047C141.859 52.7158 137.816 50.9607 133.748 49.2813C120.789 43.7762 107.603 38.814 94.7949 32.9553C89.3669 30.5184 83.8633 28.2203 78.3597 25.9602C68.7883 22.1596 59.3428 18.0181 49.7462 14.268C45.1998 12.4498 40.6786 10.5685 36.1195 8.78814C34.6586 8.20732 33.1977 7.61387 31.7242 7.08356C29.684 6.21233 27.1778 5.97243 25.4272 7.58862C25.1124 7.8664 24.8353 8.18207 24.5835 8.49773L24.5205 8.56086C23.0344 10.3917 22.0395 12.5635 21.1327 14.71C21.0194 15.0383 20.8934 15.3665 20.7801 15.6822C19.8229 17.9045 18.9917 20.2025 17.9968 22.3995C15.2387 28.8264 12.531 35.2154 9.98704 41.7181C8.63949 44.8873 7.43047 47.9682 6.24663 51.1879C5.44062 53.587 4.38272 55.986 4.15603 58.5366L4.20642 58.5492Z" fill="#B7E8FF"/>
<path d="M186.391 95.9865C188.595 96.2769 190.308 94.2441 189.552 92.1228C189.199 91.34 188.758 90.5066 187.965 90.1026C186.454 89.3197 184.237 90.0899 183.746 91.7693C183.053 93.7643 184.199 95.8729 186.391 95.9865Z" fill="#004449"/>
<path d="M172.386 70.6452C174.855 71.2765 177.021 68.5113 175.585 66.3269C175.296 65.7714 174.943 65.2032 174.364 64.9128C172.374 63.7511 170.208 65.4178 170.258 67.5896C170.283 68.8901 171.014 70.3548 172.374 70.6452H172.386Z" fill="#004449"/>
<path d="M142.312 55.443C144.881 55.6955 145.977 53.2838 145.183 51.0995C144.289 48.7509 141.078 48.8646 139.932 50.9353C138.836 52.7662 140.121 55.4051 142.312 55.443Z" fill="#004449"/>
<path d="M109.681 41.8694C111.834 42.5765 113.887 41.0613 113.913 38.8012C114.051 36.1117 110.865 34.6597 108.762 36.137C106.608 37.5764 107.313 41.1118 109.681 41.8694Z" fill="#004449"/>
<path d="M77.9189 28.8768C80.0724 28.8768 81.5208 26.3262 80.4251 24.4701C79.6191 22.0711 76.332 21.8943 75.123 24.0661C73.851 26.0484 75.5764 28.9778 77.9189 28.8768Z" fill="#004449"/>
<path d="M41.8498 13.9901C43.9907 13.9396 45.4265 11.4648 44.696 9.52033C43.6759 6.41421 39.4695 6.33845 38.3612 9.43195C37.5678 11.7173 39.4317 14.1795 41.8624 13.9775L41.8498 13.9901Z" fill="#004449"/>
<path d="M183.104 105.823C184.892 107.123 184.754 109.787 182.751 110.81C181.958 111.138 181.064 111.442 180.22 111.189C178.595 110.722 177.499 108.626 178.293 107.073C179.149 105.141 181.441 104.409 183.104 105.835V105.823Z" fill="#004449"/>
<path d="M155.548 114.598C157.777 115.836 157.45 119.346 154.918 119.939C154.327 120.141 153.684 120.318 153.067 120.116C150.825 119.598 150.397 116.884 151.921 115.343C152.828 114.409 154.364 113.853 155.561 114.585L155.548 114.598Z" fill="#004449"/>
<path d="M123.282 104.926C125.323 106.517 124.466 109.017 122.401 110.065C120.146 111.151 117.88 108.866 118.471 106.568C118.925 104.484 121.67 103.449 123.282 104.926Z" fill="#004449"/>
<path d="M90.261 92.325C92.3139 93.2973 92.7672 95.81 91.2308 97.464C89.4928 99.5222 86.1806 98.3731 85.6516 95.8478C85.0723 93.3225 88.0067 91.2392 90.2484 92.3124L90.261 92.325Z" fill="#004449"/>
<path d="M58.2849 79.9006C59.8465 81.3779 59.1664 84.2315 57.0884 84.8249C54.8593 86.0244 52.3531 83.8779 52.9576 81.4663C53.3984 79.143 56.6477 78.2086 58.2849 79.9006Z" fill="#004449"/>
<path d="M21.8632 65.8724C23.387 67.375 22.7322 70.1781 20.8682 71.0745C17.9968 72.6402 14.8861 69.7866 16.2085 66.7689C17.2034 64.5593 20.2385 64.0542 21.8632 65.8724Z" fill="#004449"/>
<path d="M13.6519 34.7986C15.9692 35.0006 17.8709 32.3238 16.876 30.2025C15.7551 27.3868 11.5361 27.7025 11.2465 30.8591C10.7931 32.5889 11.7124 34.6723 13.6645 34.7986H13.6519Z" fill="#004449"/>
<path d="M177.613 80.1278C177.449 81.5293 178.469 83.1455 179.93 83.297C181.29 83.3981 182.789 82.7162 183.091 81.2768C183.356 80.2541 183.179 78.9788 182.273 78.3222C181.819 77.7161 181.114 77.2489 180.346 77.2868C178.86 77.3878 177.638 78.6252 177.613 80.1278Z" fill="#0FFF80"/>
<path d="M163.696 53.5364C162.626 55.4051 163.797 58.1324 166.102 58.0566C168.356 58.1071 169.691 55.4935 168.57 53.6121C167.588 51.3646 164.817 51.4277 163.696 53.5364Z" fill="#0FFF80"/>
<path d="M122.451 44.4073C121.834 47.0589 124.227 49.1801 126.771 48.2205C129.101 47.4124 128.799 44.2179 127.312 42.7659C126.393 42.0461 125.083 41.9578 124 42.2861C123.081 42.5765 122.628 43.5234 122.464 44.4073H122.451Z" fill="#0FFF80"/>
<path d="M91.3692 29.685C89.6061 31.3138 90.198 34.4704 92.5279 35.2154C93.548 35.5437 94.6059 35.127 95.4749 34.5967C96.4572 33.978 96.7217 32.7027 96.5202 31.6168C96.2935 29.0789 93.1828 27.7278 91.3692 29.685Z" fill="#0FFF80"/>
<path d="M62.3779 15.6442C57.567 12.9295 55.0986 19.3185 59.6576 21.4145C60.6526 21.7554 61.7608 21.465 62.6424 20.9347C64.5441 19.7478 64.3174 16.6796 62.3779 15.6442Z" fill="#0FFF80"/>
<path d="M18.1102 15.0634C17.3294 16.8059 17.8961 19.4953 20.0119 19.8994C23.5004 20.5812 25.4399 14.3563 21.6617 13.5987C20.2763 13.2578 18.7777 13.725 18.1228 15.0634H18.1102Z" fill="#0FFF80"/>
<path d="M5.35247 48.751C4.91168 50.1778 5.67992 51.5414 6.92672 52.2611C10.1886 54.3066 13.0474 48.4479 10.05 46.5413C8.23651 45.3797 5.98217 46.9454 5.35247 48.751Z" fill="#0FFF80"/>
<path d="M39.8977 72.7412C35.1624 71.125 32.5806 77.4761 37.9205 78.8145C40.0363 79.3954 42.3032 77.3246 41.7364 75.1529C41.4594 74.168 40.8549 73.1831 39.8977 72.7412Z" fill="#0FFF80"/>
<path d="M73.234 85.3551C71.03 84.2945 68.4482 86.1758 68.612 88.5749C68.5868 91.239 71.7605 92.4133 73.6747 90.7214C74.5689 90.0774 75.2364 88.9663 74.9467 87.8299C74.6823 86.845 74.2037 85.8096 73.234 85.3551Z" fill="#0FFF80"/>
<path d="M101.293 99.2822C100.815 100.04 100.5 101.037 100.966 101.883C101.52 102.881 102.54 103.714 103.699 103.828C105.777 103.79 108.182 101.681 107.036 99.4968C105.852 97.0473 102.653 96.9463 101.293 99.2948V99.2822Z" fill="#0FFF80"/>
<path d="M137.514 121.05C136.884 123.348 138.861 125.305 141.115 124.346C143.219 123.74 144.037 120.924 142.362 119.409C140.738 117.767 138.017 118.954 137.514 121.038V121.05Z" fill="#0FFF80"/>
<path d="M165.85 111.303C164.83 112.414 164.868 114.156 165.888 115.255C166.429 115.81 167.261 115.949 168.004 115.823C169.112 115.974 170.107 115.166 170.623 114.245C171.391 112.995 170.762 111.467 169.704 110.608C168.545 109.712 166.694 110.191 165.85 111.315V111.303Z" fill="#0FFF80"/>
</svg>
