<svg width="26" height="41" viewBox="0 0 26 41" fill="none" xmlns="http://www.w3.org/2000/svg">
<path fill-rule="evenodd" clip-rule="evenodd" d="M11.7797 31.6942L11.7757 31.6908L11.7676 31.684L11.7395 31.66C11.7155 31.6395 11.6812 31.6101 11.6373 31.5719C11.5494 31.4957 11.4228 31.3849 11.2631 31.2421C10.9438 30.9566 10.4914 30.543 9.95005 30.0228C8.86938 28.9843 7.42469 27.5118 5.97554 25.7796C4.53031 24.0521 3.05412 22.0349 1.93303 19.9065C0.819147 17.7918 0 15.4628 0 13.14C0 6.16871 5.74097 0.517334 12.8228 0.517334C19.9047 0.517334 25.6456 6.16871 25.6456 13.14C25.6456 15.4628 24.8265 17.7918 23.7126 19.9065C22.5915 22.0349 21.1153 24.0521 19.6701 25.7796C18.2209 27.5118 16.7763 28.9843 15.6956 30.0228C15.1543 30.543 14.7018 30.9566 14.3825 31.2421C14.2228 31.3849 14.0963 31.4957 14.0084 31.5719C13.9644 31.6101 13.9301 31.6395 13.9061 31.66L13.878 31.684L13.87 31.6908L13.8659 31.6942L12.9437 32.4723C12.8739 32.5313 12.7717 32.5313 12.7019 32.4723L11.7797 31.6942ZM12.823 7.5197C15.3017 7.5197 17.311 9.52904 17.311 12.0077C17.311 14.4863 15.3017 16.4957 12.823 16.4957C10.3444 16.4957 8.33502 14.4863 8.33502 12.0077C8.33502 9.52904 10.3444 7.5197 12.823 7.5197Z" fill="#483CFF"/>
<circle cx="13.042" cy="38.5674" r="2.3027" fill="#483CFF"/>
</svg>
