<svg width="164" height="164" viewBox="0 0 164 164" fill="none" xmlns="http://www.w3.org/2000/svg">
<path d="M143.735 65.6274C143.824 65.9423 143.838 66.2778 143.749 66.6132C143.475 67.7565 142.982 68.8314 142.496 69.8994C141.832 71.3918 141.271 72.6652 140.648 74.1303C140.525 74.4042 140.401 74.6712 140.278 74.945C138.539 79.4156 136.814 83.8861 135.02 88.3293C133.973 90.9924 132.953 93.6624 131.919 96.3325C129.516 102.556 126.846 108.669 124.45 114.892C120.691 124.47 116.501 133.877 112.537 143.372C110.634 148.028 108.567 152.608 106.513 157.195C106.15 158.003 105.808 158.817 105.472 159.632C105.369 159.947 105.246 160.255 105.089 160.55C105.089 160.55 105.089 160.563 105.082 160.57C105.055 160.639 105.02 160.707 104.986 160.769C104.685 161.727 104.028 162.98 102.843 162.727C102.186 162.576 101.652 162.152 101.159 161.713C100.344 161.063 99.605 160.33 98.8587 159.605C98.8314 159.571 98.7766 159.523 98.7013 159.447C97.4416 158.325 96.2504 157.113 94.9838 156.011C92.0605 153.354 89.2125 150.623 86.3371 147.918C83.4001 145.125 80.5452 142.243 77.6972 139.361C77.0195 138.56 76.1089 137.889 75.3901 137.088C75.2737 137.129 75.1436 137.17 75.0067 137.197C71.1249 138.156 67.1884 138.847 63.3066 139.812C57.0903 141.038 51.004 142.838 44.7603 143.9C43.2131 144.173 41.659 144.461 40.1118 144.721C39.7626 144.769 39.3861 144.844 39.0164 144.844C38.8863 144.872 38.7288 144.879 38.5508 144.858C37.8868 144.79 37.3185 144.365 36.7092 144.112C35.5864 143.53 34.5116 142.873 33.3888 142.291C31.1296 141.045 28.932 139.744 26.7275 138.457C24.215 137.06 21.7161 135.636 19.2241 134.212C15.7462 132.131 12.3711 129.728 8.98223 127.674C8.414 127.27 7.07899 126.716 6.64084 125.983C6.55868 125.894 6.51761 125.764 6.50391 125.614C6.49707 125.545 6.49707 125.477 6.50391 125.401C6.54499 124.895 6.81884 124.251 6.93522 123.923C7.26384 122.896 7.5993 121.869 7.94846 120.849C9.70107 115.871 11.5769 110.935 13.4596 106.006C16.6499 98.1946 19.717 90.3352 22.9553 82.5443C26.1387 75.2736 29.1442 67.9277 32.0744 60.5475C34.272 55.1322 36.2026 49.7032 38.4208 44.3358C40.3514 39.6119 42.5285 34.9908 44.4933 30.2806C44.5892 29.9931 44.7398 29.6987 44.7809 29.5412C44.9657 29.0551 45.2053 28.528 45.6161 28.1925C45.6708 28.1309 45.7462 28.0693 45.8283 28.0282C46.3692 27.7475 46.9785 28.0761 47.4851 28.2952C48.156 28.5759 48.8406 28.8361 49.5116 29.1167C51.7776 30.0957 53.9821 31.2254 56.1934 32.3276C60.6708 34.4841 65.2372 36.449 69.7146 38.5987C71.8438 39.564 73.9387 40.6115 76.0815 41.5425C76.5676 41.7753 77.1153 41.9122 77.5877 42.1792C77.6014 42.1792 77.6151 42.1792 77.6219 42.1724C80.1892 41.5973 82.7566 40.9812 85.3239 40.4061C86.9259 40.098 88.5005 39.7488 90.0683 39.4065C91.3006 39.0848 92.5329 38.7562 93.7583 38.4138C97.3526 37.4759 100.721 36.6886 104.274 35.7712C106.698 35.1414 109.155 34.4088 111.558 33.8817C111.784 33.7448 112.058 33.7585 112.318 33.8269C112.578 33.8611 112.839 33.9501 113.058 34.0734C113.79 34.3541 114.379 34.8744 114.934 35.3878C116.07 36.4695 117.213 37.5444 118.302 38.674C118.713 39.0916 119.117 39.5229 119.52 39.9542C120.931 41.3372 122.321 42.7475 123.656 44.192C125.175 45.8899 126.723 47.5603 128.263 49.2376C128.338 49.3198 128.414 49.4019 128.489 49.4841C129.42 50.4494 130.358 51.4147 131.303 52.3869C133.993 55.0637 136.677 57.7406 139.272 60.5133C140.34 61.6018 141.394 62.6972 142.489 63.7515C142.784 64.0596 143.14 64.3266 143.373 64.6758C143.571 64.9428 143.687 65.2919 143.708 65.6274H143.735Z" fill="#B7E8FF"/>
<path d="M144.009 65.1892C144.146 65.7506 143.961 66.3462 143.845 66.8939C143.735 67.3594 143.626 67.8318 143.496 68.2905C143.106 69.6324 142.544 70.9194 142.038 72.2202C140.97 75.0545 139.689 77.793 138.608 80.6205C137.314 83.9272 135.78 87.1312 134.466 90.4242C132.72 94.8605 131.18 99.379 129.441 103.815C127.086 109.956 124.244 115.878 121.752 121.964C119.986 126.168 118.24 130.378 116.392 134.541C116.104 135.178 115.83 135.821 115.557 136.465C114.482 139.717 113.03 142.825 111.709 145.981C110.579 148.589 109.6 151.198 108.43 153.758C107.389 156.004 106.403 158.29 105.239 160.481C104.966 160.988 104.692 161.501 104.404 162.001C104.308 162.22 104.158 162.46 103.966 162.631C103.952 162.658 103.939 162.692 103.911 162.72C103.672 162.925 103.322 162.994 103.014 162.953C102.432 162.877 101.967 162.466 101.515 162.124C101.433 162.042 101.269 161.932 101.152 161.809C100.735 161.46 100.331 161.09 99.9268 160.734C99.0231 159.913 98.1194 159.098 97.2225 158.277C95.107 156.387 92.9779 154.511 90.9104 152.56C86.6383 148.521 82.0514 144.591 78.1765 140.182C77.3755 139.244 76.4992 138.375 75.7187 137.423C75.2395 137.574 74.7329 137.69 74.1989 137.813C71.3029 138.546 68.3933 139.203 65.4837 139.847C62.5604 140.483 59.6302 141.058 56.748 141.88C53.7562 142.667 50.7302 143.304 47.711 143.948C46.1569 144.297 44.5755 144.475 42.994 144.605C41.5563 144.721 40.0639 144.995 38.6467 144.639H38.633C38.633 144.639 38.6399 144.639 38.6467 144.639C38.6056 144.625 38.5577 144.612 38.5166 144.598C38.3112 144.687 38.0374 144.701 37.6951 144.598C35.0525 143.311 32.4783 141.88 29.8494 140.566C27.3163 139.244 24.8654 137.8 22.3597 136.43C17.9644 133.932 13.7266 131.084 9.58471 128.201C8.85901 127.702 8.11963 127.222 7.42132 126.681C7.20909 126.497 6.89416 126.284 6.72985 126.031C6.69562 126.011 6.66824 125.983 6.63401 125.956C6.40124 125.73 6.33278 125.401 6.40124 125.093C6.50393 124.614 6.59978 124.135 6.72985 123.662C7.15432 122.067 7.72255 120.52 8.3387 118.993C8.72209 118.035 8.9617 117.035 9.29717 116.063C10.6527 112.428 12.2958 108.909 13.6787 105.287C15.534 100.543 16.8416 98.0919 21.675 95.9217C23.4414 95.0933 25.2967 94.484 27.2067 94.0937C28.8498 93.7172 30.5066 93.3475 32.1839 93.1695C34.4295 92.8683 36.6955 92.9367 38.9479 93.06C41.1729 93.1969 43.4048 93.2653 45.6298 93.368C47.7863 93.4433 49.9086 93.7993 52.0515 93.991C55.7279 94.2375 59.4317 93.7993 63.0122 92.9983C65.8534 92.4917 68.5097 91.3005 70.9812 89.8354C73.4937 88.2403 75.6708 86.1385 77.5809 83.8587C78.7105 82.3662 79.6484 80.7437 80.6685 79.1691C82.0993 76.903 83.5713 74.6643 84.7967 72.275C85.8716 70.1801 87.2203 68.2563 88.5553 66.3257C89.726 64.5936 90.794 62.7725 92.1084 61.1363C93.2312 59.7944 94.4156 58.4936 95.689 57.2956C99.6118 53.9067 104.582 51.6338 109.758 51.1477C111.517 50.9697 113.29 50.8807 115.057 50.9423C116.803 51.0587 118.555 51.1409 120.308 51.2025C123.875 51.4489 127.195 51.3462 130.591 52.3184C130.803 52.3937 131.043 52.4964 131.241 52.6333C131.316 52.6607 131.385 52.6881 131.46 52.7155C133.069 53.4206 134.356 54.6735 135.582 55.8989C136.348 56.6246 137.006 57.4393 137.711 58.2198C139.621 60.1573 141.62 62.0194 143.304 64.1691C143.509 64.4567 143.838 64.6963 143.927 65.0523C143.961 65.0797 143.996 65.1139 144.023 65.1618L144.009 65.1892Z" fill="#FFA97F"/>
<path d="M53.2358 141.305C53.3042 142.51 51.9624 143.954 50.8054 143.373C49.6004 143.913 47.9642 143.687 46.7045 143.776C38.9546 144.119 33.286 140.942 26.8917 137.074C24.5845 135.712 22.1131 134.705 19.7032 133.555C16.4376 131.782 13.0487 130.18 9.87896 128.256C6.03826 125.97 8.83149 121.478 9.87896 118.35C10.9607 115.221 12.1656 112.133 13.4116 109.066C14.3564 106.924 14.8698 104.596 15.9104 102.501C14.9725 101.392 16.4718 99.6597 18.6215 100.461C23.585 101.892 23.1948 108.389 21.9282 112.359C20.0592 118.042 19.0871 121.889 25.8579 124.272C33.1833 126.291 41.6246 123.697 48.2723 128.085C50.1276 129.406 51.6474 131.241 52.3184 133.439C53.2015 135.958 53.2289 138.669 53.2358 141.319V141.305Z" fill="#FFD3B6"/>
<path d="M141.113 72.8706C141.832 76.061 139.511 79.4156 138.286 82.1609C138.121 82.4964 137.95 82.825 137.786 83.1604C138.32 83.9957 137.978 85.2827 137.231 85.9194C134.171 87.8364 129.139 88.343 125.593 87.9322C122.895 87.6515 120.287 86.6314 118.11 85.0226C116.816 84.0436 115.604 82.9482 114.139 82.2294C112.181 81.2777 109.977 80.8738 107.807 81.0724C104.493 81.4352 101.179 81.935 98.0507 80.4014C95.7504 79.354 93.5665 77.9026 92.0809 75.8282C89.5341 72.2545 88.8358 67.4416 90.3967 63.3271C90.7116 62.4576 91.095 61.6224 91.4921 60.794C91.9439 59.9793 92.4232 58.6785 93.4433 58.4937C93.9704 58.4047 94.388 58.8565 94.4291 59.3495C94.4291 59.3632 94.4291 59.3768 94.4291 59.3905C95.4902 58.4526 96.6473 57.6242 97.8248 56.8301C99.2077 55.899 100.625 55.009 102.193 54.4202C104.63 53.5576 107.718 53.4481 109.71 55.3376C111.818 57.3367 112.934 60.2052 115.289 61.9647C119.904 65.1345 125.716 65.2919 130.919 66.9282C133.24 67.5922 135.472 68.537 137.635 69.605C139.121 70.2554 140.689 71.1865 141.106 72.8775L141.113 72.8706Z" fill="#FFD3B6"/>
<path d="M154.08 65.1961C154.08 65.5178 154.087 65.8533 153.936 66.1477C153.902 66.2093 153.854 66.2709 153.799 66.312C153.614 66.5585 153.34 66.6954 153.039 66.7433C152.375 66.9282 151.697 67.0651 151.02 67.1678C150.944 67.1815 150.862 67.1952 150.78 67.202C150.787 68.2495 150.992 72.7474 150.116 73.5758C149.897 73.8359 149.534 73.966 149.192 73.9386C149.13 73.9455 149.075 73.9386 149.027 73.9249C140.394 74.4795 131.748 74.7876 123.101 74.8697C121.205 74.856 119.308 74.856 117.419 74.7533C117.323 74.7533 117.234 74.7533 117.138 74.7533C116.077 74.7328 115.022 74.6712 113.975 74.6369C113.16 74.6027 112.339 74.5822 111.558 74.3357C110.99 74.1988 110.497 73.8702 110.258 73.3293C110.237 73.2882 110.216 73.2403 110.196 73.1924C109.833 72.5146 109.86 71.5562 109.593 70.8579C109.231 69.3585 108.923 67.8524 108.608 66.3462C107.916 63.1354 107.204 59.9314 106.588 56.7068C105.116 49.6416 103.541 42.59 102.384 35.4632C101.638 30.3901 100.344 25.3171 99.5364 20.2715C99.2694 18.2519 98.8107 16.246 98.7012 14.2058C98.7012 13.6649 98.8449 13.3021 99.0503 13.0899C99.1325 12.9529 99.2762 12.8366 99.4679 12.7681C100.7 12.3779 101.946 12.0013 103.185 11.6179C105.486 10.8717 107.834 10.2898 110.148 9.56409C114.584 8.27701 119.116 7.16109 123.601 6.01093C126.592 5.2647 129.612 4.60747 132.569 3.71746C133.514 3.46416 134.452 3.19716 135.397 2.93016C136.061 2.72477 136.663 2.49885 137.341 2.35508C138.443 2.06754 139.539 1.76631 140.654 1.53354C141.675 1.32815 142.763 0.992689 143.797 1.246C144.002 1.30761 144.173 1.43769 144.31 1.59515C144.317 1.602 144.324 1.60884 144.331 1.62254C144.351 1.64308 144.372 1.67046 144.386 1.69784C144.393 1.70469 144.399 1.71838 144.406 1.73208C144.447 1.78684 144.502 1.85531 144.516 1.92377C144.557 2.01277 144.591 2.10861 144.618 2.21815C145.652 6.72293 146.419 11.1729 147.268 15.6777C148.042 19.5869 148.548 23.5371 149.219 27.4668C149.65 30.0547 150.075 32.6562 150.362 35.2646C150.801 38.8725 151.554 42.4462 151.923 46.061C151.978 47.4508 152.204 48.8269 152.382 50.203C152.663 52.0925 152.82 54.1121 153.108 55.9674C153.313 57.2066 153.498 58.4526 153.676 59.6986C153.97 61.5128 154.066 63.3545 154.087 65.1892L154.08 65.1961Z" fill="#0FFF80"/>
<path d="M34.8334 107.67C32.8138 107.533 33.43 104.206 35.2168 104.199C37.2433 104.336 36.634 107.663 34.8334 107.67Z" fill="#FFFBED"/>
<path d="M33.4231 113.913C32.1976 112.551 34.183 109.635 35.7234 111.202C36.9488 112.565 34.9634 115.481 33.4231 113.913Z" fill="#FFFBED"/>
<path d="M36.6065 118.569C36.7913 116.392 39.7762 116.015 39.6051 118.528C39.4202 120.705 36.4353 121.081 36.6065 118.569Z" fill="#FFFBED"/>
<path d="M43.2063 122.875C41.9672 121.499 43.98 118.555 45.5272 120.13C46.7663 121.506 44.7536 124.45 43.2063 122.875Z" fill="#FFFBED"/>
<path d="M52.6951 120.766C51.4696 119.404 53.455 116.501 54.9886 118.055C56.214 119.418 54.2286 122.321 52.6951 120.766Z" fill="#FFFBED"/>
<path d="M60.2258 116.611C59.0141 115.262 60.9789 112.394 62.4919 113.934C63.7037 115.283 61.7388 118.151 60.2258 116.611Z" fill="#FFFBED"/>
<path d="M66.6338 112.353C65.422 111.004 67.3869 108.135 68.8999 109.676C70.1116 111.024 68.1468 113.893 66.6338 112.353Z" fill="#FFFBED"/>
<path d="M73.0009 107.546C71.7617 106.17 73.7676 103.24 75.3149 104.808C76.554 106.184 74.5481 109.114 73.0009 107.546Z" fill="#FFFBED"/>
<path d="M80.2714 102.467C79.0254 101.077 81.045 98.1194 82.6127 99.7077C83.8588 101.097 81.8391 104.055 80.2714 102.467Z" fill="#FFFBED"/>
<path d="M86.1728 97.3936C84.9473 96.0312 86.9327 93.1148 88.4731 94.6757C89.6986 96.0381 87.7132 98.9546 86.1728 97.3936Z" fill="#FFFBED"/>
<path d="M93.06 92.9779C91.8003 91.5744 93.8473 88.5827 95.4219 90.1847C96.6816 91.5881 94.6346 94.5799 93.06 92.9779Z" fill="#FFFBED"/>
<path d="M102.241 89.6027C101.022 88.2472 102.994 85.3581 104.52 86.9053C105.739 88.2609 103.767 91.1499 102.241 89.6027Z" fill="#FFFBED"/>
<path d="M112.175 87.453C112.633 87.453 112.503 88.2472 112.086 88.2472C111.627 88.2472 111.757 87.453 112.175 87.453Z" fill="#FFFBED"/>
<path d="M110.723 89.6986C109.47 88.3088 111.504 85.3376 113.064 86.9327C114.317 88.3225 112.284 91.2937 110.723 89.6986Z" fill="#FFFBED"/>
<path d="M116.132 95.3056C115.221 94.1965 116.043 92.0742 117.528 92.0263C118.473 92.0058 119.014 93.0258 118.884 93.8748C118.795 95.1755 117.227 96.5037 116.132 95.3056Z" fill="#FFFBED"/>
<path d="M114.276 103.138C113.064 101.72 115.009 98.7903 116.611 100.379C117.823 101.796 115.878 104.726 114.276 103.138Z" fill="#FFFBED"/>
<path d="M110.71 110.182C109.265 108.977 111.442 106.02 112.736 107.8C113.523 108.998 112.051 111.182 110.71 110.182Z" fill="#FFFBED"/>
<path d="M123.868 39.9474C115.283 39.6872 110.648 29.6508 113.482 22.1816C117.371 11.2003 132.617 11.2482 135.568 22.921C136.458 26.5837 136.424 30.7051 134.63 34.1008C132.501 37.8388 128.215 40.4335 123.861 39.9474H123.868ZM126.025 36.0314C132.638 34.8744 134.589 27.6517 131.837 22.1542C128.523 15.2875 117.631 17.4577 116.166 24.5777C114.42 31.0679 119.233 37.0241 126.025 36.0314Z" fill="#004449"/>
<path d="M122.813 37.4827C122.41 36.9898 122.314 36.36 122.17 35.7575C121.807 34.2103 121.485 32.6494 121.129 31.1021C120.178 27.2614 119.534 23.3591 118.761 19.4773C118.603 18.7037 118.329 17.8069 118.754 17.0743C118.925 16.7731 119.26 16.5882 119.609 16.6225C120.924 16.7457 121.424 20.0456 121.773 21.1409C122.471 24.0574 123.115 26.9876 123.888 29.8835C124.251 31.3144 124.593 32.7589 124.867 33.9364C125.08 35.0181 125.634 36.182 125.1 37.2568C124.614 38.318 123.512 38.3864 122.82 37.4759L122.813 37.4827Z" fill="#004449"/>
<path d="M127.524 35.8191C126.435 33.423 126.332 30.616 125.689 28.0556C125.032 24.2217 124.149 20.381 124.018 16.4855C123.998 15.6777 124.806 14.7124 125.614 15.2943C126.442 15.9858 126.401 17.2386 126.682 18.2108C127.394 22.0036 128.188 25.7758 129.016 29.548C129.249 31.5403 130.454 33.6147 129.858 35.5932C129.502 36.6544 128.085 36.7502 127.517 35.8123L127.524 35.8191Z" fill="#004449"/>
<path d="M113.195 28.5965C111.257 26.4947 114.872 25.7553 116.378 25.5363C117.966 25.2076 119.555 24.9064 121.143 24.5846C123.176 24.5778 135.965 20.3332 135.253 23.6399C135.191 24.9201 126.935 26.1045 125.326 26.6727C122.245 27.3916 119.144 28.042 116.056 28.7197C115.118 28.9593 114.023 29.2743 113.195 28.5896V28.5965Z" fill="#004449"/>
<path d="M115.016 33.0876C113.366 30.3765 118.336 30.3902 119.897 29.8493C122.998 29.2126 126.1 28.5896 129.215 28.0419C131.179 27.9393 133.302 26.9329 135.212 27.5216C136.992 29.0415 133.938 29.863 132.747 30.0479C128.824 30.8831 124.915 31.7936 120.992 32.6631C119.075 32.8206 116.713 34.4979 115.016 33.0876Z" fill="#004449"/>
<path d="M117.207 52.0515C115.748 51.4216 116.7 49.4841 117.46 48.6284C118.035 47.9506 118.809 47.4029 119.671 47.1633C120.465 46.9374 121.287 47.0332 122.067 47.2318C122.711 47.3824 123.32 47.7041 123.991 47.7521C124.552 47.5946 125.155 47.444 125.62 47.0606C127.195 45.575 129.215 44.2674 131.46 44.3427C132.508 44.3632 133.446 44.863 134.438 45.1368C135.013 45.2601 135.602 45.0821 136.04 44.6987C136.985 43.8429 137.916 42.9803 139.025 42.3436C139.963 41.837 141.326 41.0154 142.236 41.9876C142.948 42.7886 142.578 44.0072 141.86 44.6781C141.38 45.1505 141.011 45.1642 140.518 45.3833C139.97 45.6434 139.47 45.9789 139.005 46.3554C136.834 48.4093 135.007 49.6416 132.022 48.3477C130.748 47.7521 129.639 47.9985 128.489 48.7311C127.715 49.2308 127.106 49.9291 126.298 50.3741C125.579 50.7712 124.772 50.9971 123.971 51.1751C123.211 51.3258 122.437 51.0793 121.739 50.8123C120.862 50.4974 119.671 49.9223 119.007 50.8945C118.631 51.5243 118.028 52.2774 117.207 52.0515Z" fill="#004449"/>
<path d="M118.843 60.301C117.158 58.8702 119.596 56.5082 121.04 55.9195C123.128 54.8446 125.182 56.5151 127.243 56.3371C130.83 54.3654 132.391 51.4558 137.019 53.8519C138.751 54.2285 141.134 50.5658 143.331 51.4489C145.152 52.5032 143.557 54.9747 141.942 55.1801C140.648 55.7962 139.586 56.8232 138.258 57.3777C136.691 58.1719 135.232 57.1381 133.76 56.6862C131.316 56.3166 129.995 59.1714 127.749 59.6506C125.374 60.8761 122.663 57.6105 120.664 59.5342C120.226 60.0546 119.555 60.6502 118.836 60.3079L118.843 60.301Z" fill="#004449"/>
<path d="M6.6065 126.284C5.47004 125.709 7.32535 122.108 7.51704 121.04C9.30389 115.687 11.3509 110.422 13.3842 105.157C18.2313 92.5944 22.9688 79.9701 28.1446 67.5306C32.9095 56.7273 37.0035 45.6434 41.8164 34.8607C42.8227 32.6494 43.7127 30.3764 44.8629 28.2267C45.0477 27.9118 45.2531 27.5627 45.5681 27.371C46.0267 27.056 46.6634 27.371 46.6771 27.946C45.8419 31.6293 44.014 35.203 42.6379 38.7356C35.3399 56.8437 27.5352 74.7328 20.5111 92.9504C17.177 101.399 13.7539 109.813 10.5499 118.309C10.0433 119.692 9.5572 121.068 9.09166 122.423C8.4892 123.539 8.31805 126.955 6.6065 126.271V126.284Z" fill="#004449"/>
<path d="M37.8114 145.324C37.3869 145.262 37.0172 145.022 36.6475 144.824C35.9971 144.475 35.3536 144.119 34.7032 143.763C33.3613 143.03 32.04 142.277 30.6982 141.545C27.5216 139.854 24.4134 137.978 21.3395 136.157C19.224 134.952 17.1702 133.637 15.0958 132.371C13.0967 131.145 11.1318 129.872 9.25598 128.468C8.58506 127.975 7.94152 127.448 7.28429 126.942C6.85298 126.586 6.01775 125.908 6.57913 125.353C7.1679 124.929 8.22221 125.805 8.79045 126.038C9.48191 126.394 10.1734 126.757 10.8511 127.147C17.4166 131.043 24.0026 135.007 30.5544 138.902C32.6562 140.08 34.7169 141.332 36.7844 142.572C37.4006 143.003 38.1879 143.256 38.6534 143.859C39.1943 144.612 38.7767 145.447 37.8045 145.317L37.8114 145.324Z" fill="#004449"/>
<path d="M37.8661 145.454C37.5512 145.337 37.428 144.913 37.6813 144.673C37.9962 144.365 38.4618 144.276 38.8725 144.167C39.4887 144.016 39.9816 143.9 40.5088 143.776C45.7255 142.571 50.9903 141.579 56.2755 140.696C58.6511 140.264 61.0199 139.84 63.3887 139.367C67.1267 138.621 70.8031 137.683 74.5068 136.841C76.1499 136.369 77.3549 138.156 75.4311 138.888C72.72 139.504 70.0158 140.134 67.3047 140.757C61.0815 142.181 54.7967 143.29 48.5051 144.386C46.3554 144.707 44.192 144.961 42.0902 145.207C41.4398 145.283 40.7895 145.378 40.1391 145.461C39.386 145.522 38.5918 145.714 37.8593 145.461L37.8661 145.454Z" fill="#004449"/>
<path d="M101.049 162.959C98.1055 160.693 95.3739 158.174 92.5601 155.75C87.3707 151.116 82.4689 146.166 77.745 141.058C77.0262 140.257 76.3005 139.456 75.6022 138.628C75.3146 138.245 74.9176 137.854 74.9449 137.341C75.1093 136.54 75.8829 136.944 76.3005 137.3C77.2453 137.985 78.1079 138.772 78.9568 139.566C81.1681 141.764 83.4616 143.886 85.6592 146.104C87.8774 148.425 90.1161 150.718 92.4575 152.923C95.7436 155.867 99.0024 158.852 102.391 161.665C102.994 162.083 103.254 163.363 102.309 163.507C101.823 163.576 101.426 163.233 101.056 162.959H101.049Z" fill="#004449"/>
<path d="M37.6745 145.406C35.0319 144.249 32.6837 142.524 30.267 140.97C30.2054 140.922 30.1164 140.771 30.1917 140.703C30.4039 140.572 30.6298 140.833 30.8352 140.887C33.2793 141.976 35.6344 143.27 38.0579 144.406C39.0643 144.721 38.7083 145.947 37.6745 145.399V145.406Z" fill="#004449"/>
<path d="M38.722 145.022C37.702 145.002 37.5034 143.817 38.6193 143.715C40.5089 143.482 42.3984 143.105 44.2469 142.791C46.3829 142.435 48.5189 142.079 50.6549 141.743C52.3322 141.408 54.0369 141.243 55.7416 141.127C55.9333 141.12 56.125 141.065 56.3167 141.079C56.5289 141.106 56.748 141.305 56.6453 141.524C56.5015 141.777 56.125 141.723 55.8785 141.812C54.0917 142.27 52.2843 142.674 50.4701 142.989C49.4911 143.14 48.5121 143.297 47.5399 143.503C44.6097 144.03 41.6933 144.673 38.7289 145.016L38.722 145.022Z" fill="#004449"/>
<path d="M8.31806 127.722C7.7909 127.373 7.2706 127.01 6.79136 126.599C6.59282 126.435 6.43536 126.23 6.33952 125.99C6.23682 125.723 6.2779 125.429 6.33267 125.155C6.36005 124.991 6.33267 124.806 6.40798 124.648C6.49013 124.498 6.69552 124.539 6.77083 124.669C6.86667 124.915 6.83929 125.278 6.85983 125.525C6.8119 125.887 7.15421 126.024 7.40067 126.195C7.82514 126.524 8.28383 126.812 8.70145 127.154C9.11906 127.572 8.89998 128.044 8.32491 127.729L8.31806 127.722Z" fill="#004449"/>
<path d="M37.4965 144.064C36.7776 143.017 38.7288 139.094 39.0437 137.724C41.0565 132.097 43.2747 126.558 45.5134 121.02C50.3194 109.498 54.8652 97.8729 59.6439 86.3439C63.6146 75.9446 68.092 65.7575 72.1792 55.4061C73.3362 52.6334 74.37 49.8196 75.6365 47.0948C76.3554 45.9241 77.7041 40.2692 79.3266 41.8301C79.7374 42.7954 78.9569 43.8566 78.7515 44.8082C78.1422 46.7114 77.4097 48.5736 76.6497 50.4289C74.5411 56.1934 72.145 61.8415 69.8652 67.5375C65.1756 78.8474 60.6845 90.2325 56.0291 101.556C52.4417 111.12 48.1971 120.424 44.548 129.968C43.1309 133.747 41.6453 137.499 40.4061 141.346C40.0227 142.311 40.0227 143.557 39.119 144.208C38.633 144.564 37.8525 144.619 37.4965 144.064V144.064Z" fill="#004449"/>
<path d="M109.669 74.2946C108.936 73.6306 108.943 72.5557 108.656 71.6657C108.053 69.3586 107.588 67.024 107.074 64.6963C106.027 59.9862 105.054 55.2555 104.123 50.5179C102.124 39.9611 100.105 29.4112 98.4684 18.7996C98.3246 16.8484 97.5099 14.7946 97.996 12.8708C98.6669 11.7686 99.6254 12.727 99.7007 13.6855C100.933 19.4979 101.919 25.1939 102.939 31.0132C102.925 30.9447 102.912 30.8762 102.898 30.8009C104.733 40.7005 106.506 50.6206 108.642 60.4585C109.34 63.6009 109.977 66.757 110.737 69.8857C110.942 71.166 111.736 72.4941 111.291 73.788C111.086 74.4863 110.23 74.8629 109.676 74.3015L109.669 74.2946Z" fill="#004449"/>
<path d="M113.359 75.2462C112.092 74.8423 112.51 73.384 113.551 72.9664C114.174 72.72 114.851 72.72 115.502 72.5899C116.289 72.4598 117.076 72.2955 117.857 72.1449C121.02 71.5287 124.183 70.892 127.359 70.358C133.767 69.0436 140.162 67.6469 146.631 66.6063C148.158 66.3462 149.691 66.0997 151.225 65.908C152.04 65.8122 152.854 65.6342 153.676 65.6547C154.319 65.6684 154.764 66.2092 154.244 66.7912C153.724 67.243 152.909 67.3115 152.266 67.5443C144.954 69.3996 137.492 70.5703 130.139 72.275C126.907 72.9664 123.628 73.4388 120.397 74.1371C118.836 74.4315 117.282 74.7533 115.714 75.0408C114.927 75.123 114.132 75.4242 113.345 75.2462H113.359Z" fill="#004449"/>
<path d="M6.55867 127.072C4.52536 126.504 6.88044 122.882 7.0516 121.52C8.22229 117.816 9.68053 114.221 11.0087 110.572C15.5819 97.5305 20.696 84.694 25.6389 71.7889C29.9931 61.0747 34.2788 50.333 38.9205 39.742C40.8306 35.559 42.6654 31.3418 44.5207 27.1382C45.6777 24.8105 48.5736 26.0086 47.2249 28.5143C43.7334 36.8529 39.9748 45.0683 36.4764 53.407C31.2323 66.045 26.3989 78.8473 21.3464 91.5607C17.7522 100.851 14.5276 110.271 10.7211 119.479C10.0365 121.266 9.43406 123.087 8.74945 124.874C8.43452 125.901 7.87998 127.305 6.55867 127.072V127.072Z" fill="#004449"/>
<path d="M36.7709 144.831C26.7892 139.559 16.8485 134.096 7.45559 127.839C7.00374 127.517 6.51082 127.202 6.15482 126.777C5.72351 126.291 5.74405 125.381 6.51767 125.271C7.4419 125.237 8.29767 125.689 9.09867 126.1C11.2484 127.154 13.3159 128.352 15.3971 129.543C22.6815 133.74 30.1369 137.615 37.4555 141.75C38.2976 142.168 39.0644 143.058 38.8658 144.057C38.6399 145.002 37.5582 145.187 36.764 144.831H36.7709Z" fill="#004449"/>
<path d="M38.9548 145.31C38.4414 145.255 37.8663 145.262 37.4761 144.885C37.2433 144.653 37.2844 144.276 37.5034 144.057C37.7773 143.783 38.1881 143.728 38.5441 143.639C39.7216 143.359 40.906 143.099 42.0904 142.852C47.2592 141.948 52.4007 140.853 57.5833 140.025C62.8137 139.169 68.0647 138.464 73.2815 137.546C74.4933 137.368 76.1569 136.78 76.8689 138.169C77.3139 139.402 76.0611 140.032 75.0341 140.162C74.1099 140.36 73.1857 140.572 72.2614 140.764C67.0378 141.873 61.7183 142.469 56.4468 143.331C50.6686 144.29 44.8425 145.488 38.9548 145.317V145.31Z" fill="#004449"/>
<path d="M100.728 163.548C95.9833 159.879 91.3348 155.593 87.0696 151.465C82.9551 147.576 79.0254 143.701 75.5064 139.278C75.1436 138.758 73.9797 137.533 75.034 137.218C75.8761 137.3 76.4101 138.156 77.0947 138.573C79.5731 140.388 81.7433 142.571 84.0162 144.625C88.3019 148.534 92.704 152.478 96.8802 156.469C98.4753 158.003 100.064 159.536 101.618 160.94C102.165 161.419 102.891 161.926 102.953 162.706C103.138 164.062 101.563 164.349 100.721 163.534L100.728 163.548Z" fill="#004449"/>
<path d="M38.2428 143.653C37.3459 142.325 38.3865 140.887 38.8521 139.607C40.0159 136.882 41.0428 134.11 42.1245 131.357C44.3701 125.641 46.5609 119.904 48.868 114.215C55.6594 97.2156 61.6498 79.9016 68.7219 63.0121C71.967 55.8784 74.5069 48.3202 78.0875 41.3919C78.7995 40.7141 79.7716 41.4604 79.6415 42.3572C77.1906 51.9692 72.6516 60.9651 69.1395 70.228C62.2728 87.3776 56.1386 104.794 49.1966 121.917C47.0059 127.455 44.8767 133.014 42.6996 138.56C41.8028 140.148 40.7211 145.995 38.2428 143.66V143.653Z" fill="#004449"/>
<path d="M109.97 74.4316C109.498 74.2604 109.21 73.7743 109.107 73.3088C108.977 72.7542 108.834 72.1997 108.69 71.6452C108.122 69.4544 107.526 67.2705 106.985 65.066C105.342 58.9524 104.103 52.736 103.028 46.4992C102.33 42.7886 101.72 38.9821 101.09 35.2715C100.611 32.8342 100.187 30.3901 99.7623 27.9392C99.2215 24.7694 98.7149 21.5997 98.2973 18.4162C98.0782 16.7457 97.7427 15.0821 97.6948 13.3911C97.6263 11.8781 99.0366 11.5221 99.4132 13.1515C100.556 16.554 101.227 20.0798 101.933 23.5987C102.85 28.0556 103.74 32.5261 104.514 37.0104C105.554 42.7338 106.499 48.5462 107.437 54.2764C108.532 60.3216 110.114 66.2709 111.387 72.2819C111.723 73.2198 111.182 74.8081 109.97 74.4384V74.4316Z" fill="#004449"/>
<path d="M113.379 75.4722C111.641 74.3084 113.366 72.8091 114.858 72.6927C116.782 72.1929 118.699 71.6863 120.636 71.2413C127.01 69.7351 133.446 68.5302 139.86 67.1952C144.461 66.4558 149.041 65.4084 153.676 65.0592C154.634 64.9633 155.949 65.8739 155.114 66.8597C154.135 67.7977 151.478 67.825 150.082 68.2837C141.866 69.9131 133.658 71.5767 125.477 73.3704C122.389 74.0482 119.315 74.8013 116.214 75.4243C115.283 75.5955 114.283 75.9925 113.386 75.4859L113.379 75.4722Z" fill="#004449"/>
<path d="M129.358 76.1225C125.504 75.9582 121.65 75.8487 117.795 75.7255C116.775 75.7186 115.762 75.6502 114.742 75.6159C114.379 75.6159 113.968 75.4858 113.715 75.212C113.373 74.8902 113.332 74.3494 113.653 73.9934C113.975 73.5826 114.502 73.5552 114.975 73.5347C118.069 73.4252 121.164 73.3019 124.258 73.2335C127.763 73.2198 131.535 73.1239 134.945 73.0349C137.204 72.9938 139.457 72.9254 141.702 72.7405C143.366 72.6105 145.029 72.6173 146.7 72.6173C147.87 72.6173 149.062 72.5009 150.212 72.7474C150.807 72.8775 151.472 73.3978 151.321 74.0687C151.122 74.7533 150.438 74.9724 149.801 75.0682C147.843 75.3489 145.865 75.4927 143.893 75.5885C139.059 75.9103 134.219 76.2868 129.365 76.1225H129.358Z" fill="#004449"/>
<path d="M115.68 75.6297C114.886 75.5407 114.016 75.5886 113.318 75.1367C113.208 75.0614 113.078 74.9861 113.044 74.8423C113.01 74.6712 113.153 74.5411 113.311 74.5069C113.564 74.4384 113.756 74.6507 113.989 74.6986C114.728 74.9108 115.515 74.5 116.248 74.7054C117.104 75.0957 116.31 75.7666 115.673 75.6228L115.68 75.6297Z" fill="#004449"/>
<path d="M116.659 75.8829C115.639 75.8008 113.811 75.9788 113.113 75.1435C112.777 74.6369 113.113 74.2604 113.64 74.4521C113.825 74.4863 113.955 74.6232 114.112 74.6985C114.708 74.7602 115.29 74.6643 115.872 74.6506C118.192 74.5069 120.527 74.6164 122.848 74.6027C123.861 74.5274 124.778 75.3489 123.361 75.7871C121.136 75.9377 118.884 75.8966 116.652 75.8898L116.659 75.8829Z" fill="#004449"/>
<path d="M75.7186 139.409C74.8423 139.217 74.5274 138.224 74.6643 137.437C74.7533 136.937 75.0066 136.451 75.1983 135.979C76.1157 133.781 77.0468 131.583 77.9641 129.386C79.84 124.765 81.9623 120.26 83.934 115.68C85.2553 112.565 86.515 109.415 87.8911 106.321C89.9929 101.707 92.1768 97.1266 94.1485 92.4507C96.7706 86.207 99.5227 80.0112 102.46 73.9112C102.795 73.1102 103.959 72.1175 104.603 73.1513C105.089 74.1235 104.397 75.1709 104.13 76.1089C103.85 76.8893 103.555 77.6698 103.261 78.4503C102.042 81.6132 100.707 84.735 99.379 87.8569C96.8664 94.0664 94.1827 100.207 91.3279 106.273C89.2466 110.853 87.4529 115.556 85.3922 120.143C84.0367 123.183 82.6538 126.216 81.3941 129.297C80.463 131.549 79.5182 133.788 78.5803 136.04C78.2448 136.807 77.9641 137.601 77.6013 138.354C77.2385 139.005 76.4922 139.58 75.7255 139.409H75.7186Z" fill="#004449"/>
<path d="M111.771 144.242C110.182 142.702 112.188 140.271 112.592 138.553C113.749 135.493 114.934 132.446 116.193 129.427C120.007 120.157 123.93 110.942 127.887 101.727C131.234 93.9569 134.137 86.0085 137.711 78.3339C138.437 76.9852 139.991 71.344 141.887 74.1098C142.25 75.8419 140.812 77.8341 140.333 79.5046C139.094 82.6333 137.697 85.6936 136.451 88.8223C133.453 96.7638 130.112 104.568 126.723 112.346C124.094 118.459 121.595 124.635 119.021 130.776C117.761 133.802 116.59 136.855 115.358 139.888C114.523 141.373 114.119 145.036 111.778 144.235L111.771 144.242Z" fill="#004449"/>
<path d="M58.48 94.9015C56.5768 94.08 57.9939 91.3347 59.7055 91.3484C63.7242 90.7391 67.9346 90.1298 71.3987 87.85C76.2664 84.5707 79.2445 79.3402 82.1062 74.363C84.6461 69.7213 87.3298 65.2645 90.5954 61.1089C93.7583 57.0696 97.8318 53.5096 102.72 51.7775C103.138 51.6269 103.569 51.5242 104.007 51.4352C104.657 51.3188 105.417 51.0861 105.986 51.5448C107.013 52.5032 106.116 54.1874 104.938 54.4955C103.685 54.783 102.474 55.2143 101.337 55.8031C98.181 57.4667 95.4767 59.9382 93.2654 62.7246C89.7259 67.1677 86.9464 72.1312 84.1874 77.081C79.8948 84.6528 74.6849 91.8071 65.689 93.7788C64.4499 94.0937 63.1902 94.3059 61.9373 94.5456C61.1295 94.6962 60.3216 94.8605 59.5001 94.9495C59.1646 94.9906 58.8155 95.0316 58.4869 94.9152L58.48 94.9015Z" fill="#004449"/>
<path d="M36.497 101.296C35.5796 100.427 35.1209 99.1668 34.6827 98.0098C34.0118 96.1476 33.7311 94.1759 33.7106 92.2042C33.6558 89.0208 34.0597 86.3782 35.5727 83.5302C36.23 82.2636 37.0447 81.045 38.1674 80.1481C39.9406 78.6694 42.2135 77.6493 44.5549 77.752C47.2386 77.7657 49.9976 79.3198 50.9013 81.935C51.3942 83.4617 51.3805 85.1322 51.0314 86.6931C50.737 87.8432 50.2578 88.9112 49.6485 89.9108C48.3545 92.4028 46.2254 94.3882 44.1852 96.2777C43.3705 97.0445 40.1528 99.9815 38.1332 100.995C37.9347 101.118 37.7019 101.255 37.476 101.344C37.3391 101.419 37.1816 101.467 37.0241 101.467C36.8461 101.467 36.6681 101.412 36.5038 101.289L36.497 101.296ZM42.6585 82.8045C42.2067 82.8798 41.7822 83.1057 41.4399 83.4138C41.3988 83.4548 41.3509 83.4959 41.3098 83.537C41.2551 83.5849 41.2071 83.6328 41.1524 83.6808C41.0018 83.8314 40.8648 83.9957 40.7348 84.1737C40.5841 84.3859 40.4472 84.6187 40.3582 84.8652C40.2555 85.139 40.1939 85.4128 40.1734 85.7004C40.1528 85.9332 40.1802 86.1796 40.2281 86.4055C40.2761 86.6315 40.3445 86.8574 40.4541 87.0696C40.5636 87.2887 40.7074 87.4804 40.8717 87.6652C41.0154 87.8295 41.1866 87.9665 41.3646 88.0965C41.5358 88.2198 41.7274 88.3293 41.9191 88.4115C42.0287 88.4594 42.1382 88.5005 42.2478 88.5279C42.3641 88.5621 42.4874 88.5826 42.6038 88.6032C42.6859 88.6169 42.7681 88.6237 42.8502 88.6237C42.9735 88.6237 43.0967 88.61 43.2131 88.5963C44.1852 88.4799 45.0547 87.8501 45.5408 87.008C45.7598 86.6315 45.9105 86.2139 45.9721 85.7825C46.0337 85.3512 45.9789 84.9062 45.8215 84.5023C45.4928 83.6602 44.6645 83.1399 43.8361 82.8729C43.5896 82.7976 43.3363 82.7565 43.083 82.7565C42.9392 82.7565 42.7886 82.7702 42.6448 82.7908L42.6585 82.8045Z" fill="#004449"/>
<path d="M43.1514 85.8031C43.1514 85.8031 43.1377 85.8236 43.1309 85.8373C43.1309 85.8236 43.1446 85.8168 43.1514 85.8031Z" fill="#004449"/>
<path d="M43.1789 85.7963C43.1789 85.7963 43.1651 85.8169 43.1514 85.8238C43.1583 85.8169 43.1651 85.8032 43.1789 85.7963Z" fill="#004449"/>
<path d="M97.3456 139.162C96.4282 138.293 95.9695 137.033 95.5314 135.876C94.8604 134.014 94.5798 132.042 94.5592 130.07C94.5044 126.887 94.9084 124.244 96.4214 121.396C97.0786 120.13 97.8933 118.911 99.0161 118.014C100.789 116.535 103.062 115.515 105.404 115.618C108.087 115.632 110.846 117.186 111.75 119.801C112.243 121.328 112.229 122.998 111.88 124.559C111.586 125.709 111.106 126.777 110.497 127.777C109.203 130.269 107.074 132.254 105.034 134.144C104.219 134.911 101.001 137.848 98.9818 138.861C98.7833 138.984 98.5505 139.121 98.3246 139.21C98.1877 139.285 98.0302 139.333 97.8728 139.333C97.6948 139.333 97.5168 139.278 97.3525 139.155L97.3456 139.162ZM103.507 120.671C103.055 120.746 102.631 120.972 102.289 121.28C102.247 121.321 102.2 121.362 102.158 121.403C102.104 121.451 102.056 121.499 102.001 121.547C101.85 121.697 101.713 121.862 101.583 122.04C101.433 122.252 101.296 122.485 101.207 122.731C101.104 123.005 101.043 123.279 101.022 123.566C101.001 123.799 101.029 124.046 101.077 124.272C101.125 124.498 101.193 124.723 101.303 124.936C101.412 125.155 101.556 125.346 101.72 125.531C101.864 125.696 102.035 125.833 102.213 125.963C102.384 126.086 102.569 126.195 102.768 126.278C102.877 126.325 102.987 126.367 103.096 126.394C103.213 126.428 103.336 126.449 103.452 126.469C103.535 126.483 103.617 126.49 103.699 126.49C103.822 126.49 103.945 126.476 104.062 126.462C105.034 126.346 105.903 125.716 106.389 124.874C106.608 124.498 106.759 124.08 106.821 123.649C106.882 123.217 106.828 122.772 106.67 122.368C106.341 121.526 105.513 121.006 104.685 120.739C104.438 120.664 104.185 120.623 103.932 120.623C103.788 120.623 103.637 120.636 103.493 120.657L103.507 120.671Z" fill="#004449"/>
<path d="M104 123.669C104 123.669 103.986 123.69 103.979 123.703C103.979 123.69 103.993 123.683 104 123.669Z" fill="#004449"/>
<path d="M104.028 123.656C104.028 123.656 104.014 123.676 104 123.683C104.007 123.676 104.014 123.662 104.028 123.656Z" fill="#004449"/>
</svg>
