<svg width="32" height="32" viewBox="0 0 32 32" fill="none" xmlns="http://www.w3.org/2000/svg">
<path d="M21.0748 4H10.9253C9.08857 4 7.32711 4.72962 6.02837 6.02836C4.72964 7.3271 4.00001 9.08856 4.00001 10.9253V21.0747C4.00001 22.9114 4.72964 24.6729 6.02837 25.9716C7.32711 27.2704 9.08857 28 10.9253 28H21.0748C22.9114 28 24.6729 27.2704 25.9717 25.9716C27.2704 24.6729 28 22.9114 28 21.0747V10.9306C28 9.09389 27.2704 7.33242 25.9717 6.03369C24.6729 4.73495 22.9114 4.00533 21.0748 4.00533V4ZM25.7946 21.2639C25.7928 22.4835 25.3069 23.6526 24.4436 24.5141C23.5803 25.3757 22.4103 25.8592 21.1906 25.8585H10.8027C9.58286 25.8581 8.41305 25.3734 7.55046 24.5108C6.68788 23.6482 6.20313 22.4784 6.20278 21.2585V10.8707C6.20278 9.65066 6.68741 8.48064 7.55007 7.61798C8.41274 6.75532 9.58275 6.27068 10.8027 6.27068H21.1906C21.7948 6.27051 22.3931 6.38936 22.9514 6.62045C23.5096 6.85155 24.0169 7.19035 24.4441 7.61751C24.8714 8.04468 25.2104 8.55183 25.4416 9.11001C25.6729 9.66819 25.7919 10.2665 25.7919 10.8707L25.7946 21.2639Z" fill="#FFFEF0"/>
<path d="M15.9972 9.83447C14.7651 9.83474 13.5607 10.2003 12.5364 10.8851C11.512 11.5698 10.7137 12.5429 10.2424 13.6813C9.77103 14.8197 9.64784 16.0724 9.88838 17.2808C10.1289 18.4892 10.7224 19.5992 11.5937 20.4703C12.4651 21.3415 13.5752 21.9347 14.7836 22.175C15.9921 22.4153 17.2447 22.2918 18.383 21.8202C19.5213 21.3487 20.4943 20.5501 21.1788 19.5256C21.8633 18.5011 22.2286 17.2967 22.2286 16.0645C22.2286 15.2463 22.0675 14.436 21.7543 13.6801C21.4411 12.9241 20.9821 12.2373 20.4034 11.6587C19.8248 11.0802 19.1378 10.6213 18.3818 10.3083C17.6258 9.99531 16.8155 9.8343 15.9972 9.83447ZM15.9972 20.1025C15.1987 20.1022 14.4181 19.8652 13.7542 19.4213C13.0904 18.9775 12.573 18.3467 12.2676 17.6089C11.9622 16.871 11.8824 16.0592 12.0384 15.276C12.1943 14.4928 12.579 13.7734 13.1438 13.2088C13.7086 12.6442 14.428 12.2598 15.2113 12.1041C15.9945 11.9484 16.8064 12.0284 17.5441 12.3341C18.2819 12.6397 18.9125 13.1573 19.3561 13.8213C19.7997 14.4853 20.0365 15.266 20.0365 16.0645C20.0365 16.5949 19.932 17.1201 19.729 17.6101C19.526 18.1001 19.2285 18.5453 18.8534 18.9203C18.4783 19.2953 18.033 19.5927 17.5429 19.7955C17.0528 19.9984 16.5276 20.1027 15.9972 20.1025Z" fill="#FFFEF0"/>
<path d="M22.4374 8.14526C22.1502 8.145 21.8694 8.22991 21.6305 8.38926C21.3916 8.54861 21.2053 8.77523 21.0953 9.04046C20.9852 9.30569 20.9563 9.59761 21.0121 9.87929C21.068 10.161 21.2061 10.4197 21.4091 10.6229C21.6121 10.826 21.8707 10.9644 22.1523 11.0206C22.434 11.0767 22.7259 11.048 22.9912 10.9382C23.2566 10.8283 23.4834 10.6423 23.6429 10.4035C23.8025 10.1648 23.8877 9.88407 23.8877 9.5969C23.8877 9.21213 23.7349 8.84311 23.463 8.57091C23.191 8.29871 22.8221 8.14562 22.4374 8.14526Z" fill="#FFFEF0"/>
</svg>
