<svg width="32" height="32" viewBox="0 0 32 32" fill="none" xmlns="http://www.w3.org/2000/svg">
<path d="M15.9951 4C9.36076 4 4 9.37062 4 15.9951C4 21.0794 7.15919 25.4233 11.6216 27.1707C11.513 26.2229 11.4241 24.7618 11.661 23.7252C11.8782 22.7873 13.0629 17.7622 13.0629 17.7622C13.0629 17.7622 12.7075 17.0416 12.7075 15.9852C12.7075 14.3167 13.675 13.0728 14.8795 13.0728C15.9062 13.0728 16.3998 13.8429 16.3998 14.761C16.3998 15.7877 15.7482 17.3278 15.4027 18.7594C15.1164 19.9539 16.0049 20.9313 17.1798 20.9313C19.3122 20.9313 20.9511 18.6804 20.9511 15.4422C20.9511 12.5693 18.8877 10.5652 15.9358 10.5652C12.52 10.5652 10.5158 13.1222 10.5158 15.768C10.5158 16.7947 10.9107 17.9004 11.4044 18.5027C11.5031 18.6211 11.513 18.7297 11.4833 18.8482C11.3945 19.2234 11.1872 20.0428 11.1477 20.2106C11.0983 20.4278 10.97 20.4772 10.7429 20.3686C9.26202 19.6577 8.33402 17.4661 8.33402 15.7088C8.33402 11.9276 11.0786 8.45248 16.2616 8.45248C20.4179 8.45248 23.6561 11.4142 23.6561 15.383C23.6561 19.5195 21.0498 22.8466 17.4364 22.8466C16.2221 22.8466 15.0769 22.2147 14.6919 21.4644C14.6919 21.4644 14.0897 23.7548 13.9416 24.3176C13.675 25.3641 12.9445 26.6672 12.4508 27.4669C13.5763 27.8124 14.761 28 16.0049 28C22.6294 28 28 22.6294 28 16.0049C27.9901 9.37062 22.6195 4 15.9951 4Z" fill="#FFFEF0"/>
</svg>
