<svg width="32" height="32" viewBox="0 0 32 32" fill="none" xmlns="http://www.w3.org/2000/svg">
<path d="M5.32423 23.0031L5.39898 23.2173C5.38996 23.1931 5.36161 23.123 5.32423 23.0031ZM8.38247 18.1128C8.51908 16.9526 8.98046 16.305 9.8478 15.6382C11.0915 14.7382 12.6418 15.2469 12.6418 15.2469V12.2216C13.0187 12.2124 13.3956 12.2359 13.7682 12.2917V16.1839C13.7682 16.1839 12.2217 15.6739 10.9742 16.5753C10.1068 17.242 9.64546 17.8897 9.50886 19.0498C9.50886 19.6796 9.61711 20.5044 10.1442 21.2171C10.0153 21.1469 9.88646 21.0679 9.74341 20.9787C8.58997 20.1729 8.37732 18.9656 8.38247 18.1128ZM20.1798 6.62877C19.5103 5.88811 19.0619 4.97802 18.8846 4L19.9595 4C19.9595 4 19.7468 5.79883 21.3049 7.56962L21.3281 7.59257C20.9058 7.32143 20.5196 6.99892 20.1785 6.6326L20.1798 6.62877ZM25.3581 9.36973V13.179C25.3581 13.179 23.9868 13.1229 22.97 12.8578C22.1533 12.6516 21.3699 12.3331 20.6425 11.9118C20.6425 11.9118 20.011 11.5013 19.9633 11.4733V19.3507C19.9372 20.1855 19.7784 21.0111 19.4929 21.7971C18.8152 23.529 17.4839 24.9327 15.78 25.7122C14.85 26.1338 13.8388 26.3513 12.8158 26.3497C11.3999 26.3457 10.0153 25.9361 8.82968 25.1704C8.42038 24.8911 8.03851 24.5744 7.68912 24.2245L7.69814 24.2334C8.88344 25.0046 10.2708 25.4162 11.6894 25.4177C12.7124 25.4193 13.7236 25.2019 14.6536 24.7803C15.5666 24.355 16.3827 23.7503 17.052 23.0031C17.6082 22.3684 18.051 21.6445 18.3614 20.8626C18.6472 20.0766 18.8064 19.2511 18.8331 18.4162V10.5439C18.8846 10.5719 19.511 10.9824 19.511 10.9824C20.2388 11.4029 21.0221 11.7212 21.8385 11.9284C22.8566 12.1936 24.2278 12.2497 24.2278 12.2497V9.26264C24.5967 9.35636 24.978 9.3925 25.3581 9.36973Z" fill="#FFFEF0"/>
<path d="M24.1796 9.19756V12.1505C24.1796 12.1505 22.7887 12.0963 21.7559 11.8329C20.9275 11.6288 20.1328 11.314 19.3949 10.8977C19.3949 10.8977 18.7543 10.4919 18.7072 10.4642V18.2517C18.6801 19.0771 18.5187 19.8932 18.2288 20.6702C17.9139 21.4432 17.4647 22.1588 16.9005 22.7863C16.22 23.5255 15.3905 24.1233 14.4624 24.5432C13.519 24.96 12.4933 25.1749 11.4556 25.1734C10.0192 25.1695 8.61481 24.7646 7.41209 24.0076L7.40294 23.9987C7.20177 23.8027 7.01193 23.5961 6.83426 23.3799C6.38197 22.8031 6.01828 22.1664 5.75442 21.4895C5.60147 21.0509 5.2851 19.9909 5.32824 18.9688C5.40537 17.1678 6.03549 16.0575 6.20283 15.7802C6.64574 15.0246 7.22069 14.3483 7.90233 13.7813C8.50385 13.2922 9.18553 12.9029 9.91951 12.6294C10.7134 12.3086 11.5636 12.1375 12.4243 12.1253V15.1135C12.4243 15.1135 10.8555 14.6094 9.59006 15.5004C8.71025 16.1596 8.24223 16.7998 8.10365 17.948C8.10365 18.7911 8.31413 19.9846 9.4894 20.7811C9.62798 20.8694 9.76132 20.9475 9.89597 21.0168C10.1023 21.2855 10.3522 21.5204 10.6359 21.7125C11.789 22.4448 12.7485 22.4952 13.9826 22.0213C14.8036 21.7024 15.4207 20.9891 15.707 20.1913C15.8887 19.6872 15.8848 19.1969 15.8848 18.6789V4H18.7517C18.9297 4.96766 19.3853 5.86792 20.0668 6.59878C20.4146 6.95916 20.8061 7.27779 21.233 7.5478C21.6941 8.02507 22.2356 8.42389 22.8344 8.72746C23.2611 8.93477 23.7118 9.09257 24.177 9.19756H24.1796Z" fill="#FFFEF0"/>
<path d="M4.88461 24.4247L4.96383 24.6535C4.95427 24.6276 4.92422 24.5527 4.88461 24.4247ZM8.12557 19.2001C8.27034 17.9606 8.75928 17.2688 9.67844 16.5564C10.9964 15.5949 12.6394 16.1383 12.6394 16.1383V12.9063C13.0387 12.8965 13.4381 12.9216 13.8331 12.9812V17.1394C13.8331 17.1394 12.1942 16.5946 10.8721 17.5575C9.95296 18.2698 9.46401 18.9617 9.31924 20.2011C9.31924 20.874 9.43397 21.7552 9.99256 22.5165C9.85599 22.4416 9.71941 22.3572 9.56781 22.2618C8.34545 21.401 8.1201 20.1112 8.12557 19.2001ZM20.6278 6.93123C19.9182 6.13995 19.443 5.16766 19.2552 4.1228L20.3942 4.1228C20.3942 4.1228 20.1689 6.04457 21.8201 7.93638L21.8446 7.9609C21.3971 7.67123 20.9878 7.32668 20.6264 6.93532L20.6278 6.93123ZM26.1154 9.85952V13.9291C26.1154 13.9291 24.6622 13.8692 23.5846 13.5859C22.7191 13.3656 21.8889 13.0255 21.1181 12.5753C21.1181 12.5753 20.4488 12.1368 20.3983 12.1068V20.5226C20.3706 21.4145 20.2024 22.2965 19.8998 23.1362C19.1816 24.9864 17.7708 26.4861 15.965 27.3189C14.9795 27.7693 13.9079 28.0016 12.8238 27.9999C11.3232 27.9957 9.85599 27.5581 8.59949 26.7401C8.16573 26.4417 7.76106 26.1033 7.39079 25.7295L7.40035 25.739C8.65646 26.5629 10.1267 27.0027 11.6301 27.0043C12.7142 27.006 13.7858 26.7737 14.7714 26.3233C15.7389 25.8689 16.6037 25.2229 17.313 24.4247C17.9025 23.7465 18.3717 22.9732 18.7007 22.1379C19.0035 21.2982 19.1722 20.4162 19.2005 19.5242V11.1139C19.2552 11.1439 19.9189 11.5824 19.9189 11.5824C20.6902 12.0316 21.5203 12.3717 22.3855 12.593C23.4644 12.8763 24.9176 12.9363 24.9176 12.9363V9.74511C25.3085 9.84523 25.7126 9.88383 26.1154 9.85952Z" fill="#FFFEF0"/>
<path d="M24.9177 9.73966V12.9308C24.9177 12.9308 23.4645 12.8722 22.3855 12.5876C21.5201 12.367 20.6899 12.0269 19.919 11.577C19.919 11.577 19.2498 11.1384 19.2006 11.1085V19.5242C19.1723 20.4162 19.0036 21.2981 18.7007 22.1379C18.3718 22.9732 17.9025 23.7465 17.3131 24.4247C16.6022 25.2235 15.7355 25.8695 14.766 26.3233C13.7804 26.7737 12.7088 27.006 11.6247 27.0043C10.1241 27.0001 8.6569 26.5625 7.4004 25.7444L7.39084 25.7349C7.18068 25.523 6.98235 25.2997 6.79673 25.0662C6.32422 24.4428 5.94427 23.7547 5.66861 23.0232C5.50882 22.5492 5.17831 21.4038 5.22338 20.2992C5.30396 18.3529 5.96225 17.153 6.13707 16.8533C6.59978 16.0367 7.20044 15.306 7.91256 14.6932C8.54097 14.1647 9.25314 13.744 10.0199 13.4484C10.8493 13.1017 11.7376 12.9167 12.6367 12.9036V16.1329C12.6367 16.1329 10.9978 15.5881 9.67576 16.551C8.7566 17.2633 8.26766 17.9552 8.12289 19.196C8.12289 20.1071 8.34278 21.397 9.5706 22.2577C9.71537 22.3531 9.85467 22.4375 9.99535 22.5124C10.2109 22.8028 10.4719 23.0566 10.7684 23.2642C11.973 24.0556 12.9754 24.11 14.2647 23.5979C15.1224 23.2533 15.7671 22.4825 16.0662 21.6203C16.256 21.0755 16.2519 20.5457 16.2519 19.9859V4.1228H19.247C19.433 5.16853 19.909 6.14141 20.621 6.93123C20.9843 7.32068 21.3933 7.66503 21.8392 7.95681C22.321 8.47259 22.8867 8.90358 23.5123 9.23164C23.9581 9.45568 24.4289 9.62621 24.9149 9.73966H24.9177Z" fill="#FFFEF0"/>
</svg>
